font.ufo
<glyph name="exclam" format="1">
  <advance width="418"/>
  <unicode hex="0021"/>
  <outline>
    <contour>
      <point x="259" y="90" type="curve" smooth="yes"/>
      <point x="259" y="131"/>
      <point x="230" y="162"/>
      <point x="186" y="162" type="curve" smooth="yes"/>
      <point x="136" y="162"/>
      <point x="85" y="114"/>
      <point x="85" y="61" type="curve" smooth="yes"/>
      <point x="85" y="20"/>
      <point x="114" y="-12"/>
      <point x="158" y="-12" type="curve" smooth="yes"/>
      <point x="211" y="-12"/>
      <point x="259" y="36"/>
    </contour>
    <contour>
      <point x="217" y="370" type="curve"/>
      <point x="263" y="605" type="line" smooth="yes"/>
      <point x="283" y="708"/>
      <point x="230" y="773"/>
      <point x="164" y="773" type="curve" smooth="yes"/>
      <point x="98" y="773"/>
      <point x="50" y="709"/>
      <point x="65" y="605" type="curve"/>
      <point x="104" y="314" type="line" smooth="yes"/>
      <point x="113" y="256"/>
      <point x="133" y="222"/>
      <point x="173" y="222" type="curve" smooth="yes"/>
      <point x="190" y="222"/>
      <point x="200" y="227"/>
      <point x="211" y="236" type="curve"/>
      <point x="205" y="275"/>
      <point x="209" y="324"/>
    </contour>
  </outline>
</glyph>
<glyph name="quotedbl" format="1">
  <advance width="515"/>
  <unicode hex="0022"/>
  <outline>
    <contour>
      <point x="227" y="812" type="curve" smooth="yes"/>
      <point x="227" y="884"/>
      <point x="202" y="930"/>
      <point x="149" y="930" type="curve" smooth="yes"/>
      <point x="101" y="930"/>
      <point x="72" y="884"/>
      <point x="72" y="812" type="curve" smooth="yes"/>
      <point x="72" y="722"/>
      <point x="120" y="594"/>
      <point x="150" y="594" type="curve" smooth="yes"/>
      <point x="182" y="594"/>
      <point x="227" y="722"/>
    </contour>
    <contour>
      <point x="443" y="812" type="curve" smooth="yes"/>
      <point x="443" y="884"/>
      <point x="418" y="930"/>
      <point x="365" y="930" type="curve" smooth="yes"/>
      <point x="317" y="930"/>
      <point x="288" y="884"/>
      <point x="288" y="812" type="curve" smooth="yes"/>
      <point x="288" y="722"/>
      <point x="336" y="594"/>
      <point x="366" y="594" type="curve" smooth="yes"/>
      <point x="398" y="594"/>
      <point x="443" y="722"/>
    </contour>
  </outline>
</glyph>
<glyph name="numbersign" format="1">
  <advance width="908"/>
  <unicode hex="0023"/>
  <outline>
    <contour>
      <point x="436" y="746" type="curve" smooth="yes"/>
      <point x="367" y="746"/>
      <point x="336" y="708"/>
      <point x="311" y="628" type="curve" smooth="yes"/>
      <point x="146" y="103" type="line" smooth="yes"/>
      <point x="134" y="67"/>
      <point x="118" y="44"/>
      <point x="91" y="32" type="curve"/>
      <point x="106" y="7"/>
      <point x="116" y="-11"/>
      <point x="157" y="-11" type="curve" smooth="yes"/>
      <point x="226" y="-11"/>
      <point x="268" y="28"/>
      <point x="293" y="108" type="curve" smooth="yes"/>
      <point x="458" y="634" type="line" smooth="yes"/>
      <point x="469" y="668"/>
      <point x="487" y="691"/>
      <point x="514" y="703" type="curve"/>
      <point x="500" y="728"/>
      <point x="475" y="746"/>
    </contour>
    <contour>
      <point x="736" y="746" type="curve" smooth="yes"/>
      <point x="667" y="746"/>
      <point x="636" y="708"/>
      <point x="611" y="628" type="curve" smooth="yes"/>
      <point x="446" y="103" type="line" smooth="yes"/>
      <point x="434" y="67"/>
      <point x="418" y="44"/>
      <point x="391" y="32" type="curve"/>
      <point x="406" y="7"/>
      <point x="416" y="-11"/>
      <point x="457" y="-11" type="curve" smooth="yes"/>
      <point x="526" y="-11"/>
      <point x="568" y="28"/>
      <point x="593" y="108" type="curve" smooth="yes"/>
      <point x="758" y="634" type="line" smooth="yes"/>
      <point x="769" y="668"/>
      <point x="787" y="691"/>
      <point x="814" y="703" type="curve"/>
      <point x="800" y="728"/>
      <point x="775" y="746"/>
    </contour>
    <contour>
      <point x="756" y="241" type="curve" smooth="yes"/>
      <point x="756" y="254"/>
      <point x="752" y="265"/>
      <point x="746" y="278" type="curve"/>
      <point x="198" y="278" type="line" smooth="yes"/>
      <point x="101" y="278"/>
      <point x="65" y="247"/>
      <point x="65" y="215" type="curve" smooth="yes"/>
      <point x="65" y="202"/>
      <point x="68" y="191"/>
      <point x="74" y="178" type="curve"/>
      <point x="623" y="178" type="line" smooth="yes"/>
      <point x="720" y="178"/>
      <point x="756" y="209"/>
    </contour>
    <contour>
      <point x="844" y="521" type="curve" smooth="yes"/>
      <point x="844" y="534"/>
      <point x="840" y="545"/>
      <point x="834" y="558" type="curve"/>
      <point x="286" y="558" type="line" smooth="yes"/>
      <point x="188" y="558"/>
      <point x="152" y="527"/>
      <point x="152" y="494" type="curve" smooth="yes"/>
      <point x="152" y="481"/>
      <point x="156" y="470"/>
      <point x="162" y="457" type="curve"/>
      <point x="710" y="457" type="line" smooth="yes"/>
      <point x="808" y="457"/>
      <point x="844" y="488"/>
    </contour>
  </outline>
</glyph>
<glyph name="percent" format="1">
  <advance width="947"/>
  <unicode hex="0025"/>
  <outline>
    <contour>
      <point x="221" y="328" type="curve" smooth="yes"/>
      <point x="340" y="328"/>
      <point x="418" y="438"/>
      <point x="418" y="553" type="curve" smooth="yes"/>
      <point x="418" y="653"/>
      <point x="356" y="746"/>
      <point x="251" y="746" type="curve" smooth="yes"/>
      <point x="131" y="746"/>
      <point x="60" y="631"/>
      <point x="60" y="522" type="curve" smooth="yes"/>
      <point x="60" y="419"/>
      <point x="118" y="328"/>
    </contour>
    <contour>
      <point x="236" y="646" type="curve" smooth="yes"/>
      <point x="266" y="646"/>
      <point x="286" y="586"/>
      <point x="286" y="528" type="curve" smooth="yes"/>
      <point x="286" y="458"/>
      <point x="262" y="426"/>
      <point x="234" y="426" type="curve" smooth="yes"/>
      <point x="204" y="426"/>
      <point x="185" y="486"/>
      <point x="185" y="542" type="curve" smooth="yes"/>
      <point x="185" y="606"/>
      <point x="205" y="646"/>
    </contour>
    <contour>
      <point x="218" y="89" type="line"/>
      <point x="203" y="66"/>
      <point x="175" y="35"/>
      <point x="162" y="29" type="curve"/>
      <point x="181" y="-10"/>
      <point x="208" y="-12"/>
      <point x="221" y="-12" type="curve" smooth="yes"/>
      <point x="262" y="-12"/>
      <point x="293" y="32"/>
      <point x="308" y="54" type="curve" smooth="yes"/>
      <point x="732" y="648" type="line" smooth="yes"/>
      <point x="748" y="670"/>
      <point x="768" y="700"/>
      <point x="787" y="707" type="curve"/>
      <point x="770" y="739"/>
      <point x="742" y="746"/>
      <point x="726" y="746" type="curve" smooth="yes"/>
      <point x="686" y="746"/>
      <point x="654" y="703"/>
      <point x="640" y="683" type="curve" smooth="yes"/>
    </contour>
    <contour>
      <point x="690" y="-11" type="curve" smooth="yes"/>
      <point x="809" y="-11"/>
      <point x="887" y="100"/>
      <point x="887" y="215" type="curve" smooth="yes"/>
      <point x="887" y="314"/>
      <point x="826" y="408"/>
      <point x="720" y="408" type="curve" smooth="yes"/>
      <point x="600" y="408"/>
      <point x="529" y="293"/>
      <point x="529" y="184" type="curve" smooth="yes"/>
      <point x="529" y="80"/>
      <point x="587" y="-11"/>
    </contour>
    <contour>
      <point x="706" y="307" type="curve" smooth="yes"/>
      <point x="736" y="307"/>
      <point x="755" y="247"/>
      <point x="755" y="190" type="curve" smooth="yes"/>
      <point x="755" y="120"/>
      <point x="731" y="88"/>
      <point x="703" y="88" type="curve" smooth="yes"/>
      <point x="673" y="88"/>
      <point x="654" y="148"/>
      <point x="654" y="204" type="curve" smooth="yes"/>
      <point x="654" y="268"/>
      <point x="674" y="307"/>
    </contour>
  </outline>
</glyph>
<glyph name="ampersand" format="1">
  <advance width="780"/>
  <unicode hex="0026"/>
  <outline>
    <contour>
      <point x="335" y="480" type="curve"/>
      <point x="254" y="480"/>
      <point x="198" y="526"/>
      <point x="198" y="589" type="curve" smooth="yes"/>
      <point x="198" y="635"/>
      <point x="226" y="661"/>
      <point x="260" y="661" type="curve" smooth="yes"/>
      <point x="299" y="661"/>
      <point x="324" y="632"/>
      <point x="324" y="559" type="curve"/>
      <point x="404" y="534"/>
      <point x="466" y="581"/>
      <point x="466" y="640" type="curve" smooth="yes"/>
      <point x="466" y="697"/>
      <point x="388" y="748"/>
      <point x="296" y="748" type="curve" smooth="yes"/>
      <point x="193" y="748"/>
      <point x="78" y="653"/>
      <point x="78" y="523" type="curve" smooth="yes"/>
      <point x="78" y="428"/>
      <point x="132" y="350"/>
      <point x="247" y="350" type="curve" smooth="yes"/>
      <point x="355" y="350"/>
      <point x="371" y="439"/>
    </contour>
    <contour>
      <point x="205" y="383" type="line"/>
      <point x="126" y="347"/>
      <point x="60" y="293"/>
      <point x="60" y="202" type="curve" smooth="yes"/>
      <point x="60" y="74"/>
      <point x="181" y="-11"/>
      <point x="344" y="-11" type="curve" smooth="yes"/>
      <point x="516" y="-11"/>
      <point x="643" y="109"/>
      <point x="643" y="258" type="curve" smooth="yes"/>
      <point x="643" y="308"/>
      <point x="629" y="341"/>
      <point x="606" y="383" type="curve"/>
      <point x="540" y="361" type="line"/>
      <point x="626" y="361" type="line" smooth="yes"/>
      <point x="739" y="361"/>
      <point x="792" y="404"/>
      <point x="792" y="475" type="curve" smooth="yes"/>
      <point x="792" y="545"/>
      <point x="721" y="604"/>
      <point x="624" y="560" type="curve"/>
      <point x="635" y="494"/>
      <point x="620" y="448"/>
      <point x="517" y="448" type="curve" smooth="yes"/>
      <point x="430" y="448"/>
      <point x="433" y="386"/>
      <point x="457" y="349" type="curve"/>
      <point x="517" y="349"/>
      <point x="552" y="320"/>
      <point x="552" y="260" type="curve" smooth="yes"/>
      <point x="552" y="182"/>
      <point x="472" y="133"/>
      <point x="376" y="133" type="curve" smooth="yes"/>
      <point x="280" y="133"/>
      <point x="200" y="182"/>
      <point x="200" y="260" type="curve" smooth="yes"/>
      <point x="200" y="304"/>
      <point x="217" y="335"/>
      <point x="266" y="367" type="curve"/>
    </contour>
  </outline>
</glyph>
<glyph name="asterisk" format="1">
  <advance width="653"/>
  <unicode hex="002A"/>
  <outline>
    <contour>
      <point x="402" y="847" type="curve" smooth="yes"/>
      <point x="402" y="893"/>
      <point x="377" y="929"/>
      <point x="324" y="929" type="curve" smooth="yes"/>
      <point x="277" y="929"/>
      <point x="252" y="894"/>
      <point x="252" y="850" type="curve" smooth="yes"/>
      <point x="252" y="815"/>
      <point x="272" y="773"/>
      <point x="290" y="740" type="curve"/>
      <point x="259" y="776"/>
      <point x="210" y="816"/>
      <point x="170" y="816" type="curve" smooth="yes"/>
      <point x="137" y="816"/>
      <point x="96" y="792"/>
      <point x="96" y="738" type="curve" smooth="yes"/>
      <point x="96" y="694"/>
      <point x="139" y="664"/>
      <point x="196" y="664" type="curve"/>
      <point x="220" y="664"/>
      <point x="245" y="667"/>
      <point x="268" y="672" type="curve"/>
      <point x="217" y="650"/>
      <point x="154" y="608"/>
      <point x="154" y="557" type="curve" smooth="yes"/>
      <point x="154" y="526"/>
      <point x="187" y="481"/>
      <point x="230" y="481" type="curve" smooth="yes"/>
      <point x="299" y="481"/>
      <point x="320" y="570"/>
      <point x="326" y="635" type="curve"/>
      <point x="330" y="570"/>
      <point x="353" y="482"/>
      <point x="420" y="482" type="curve" smooth="yes"/>
      <point x="457" y="482"/>
      <point x="499" y="518"/>
      <point x="499" y="554" type="curve" smooth="yes"/>
      <point x="499" y="607"/>
      <point x="436" y="649"/>
      <point x="384" y="671" type="curve"/>
      <point x="407" y="666"/>
      <point x="434" y="661"/>
      <point x="458" y="661" type="curve"/>
      <point x="512" y="661"/>
      <point x="557" y="690"/>
      <point x="557" y="737" type="curve" smooth="yes"/>
      <point x="557" y="788"/>
      <point x="523" y="815"/>
      <point x="486" y="815" type="curve" smooth="yes"/>
      <point x="440" y="815"/>
      <point x="390" y="769"/>
      <point x="358" y="734" type="curve"/>
      <point x="378" y="766"/>
      <point x="402" y="811"/>
    </contour>
  </outline>
</glyph>
<glyph name="comma" format="1">
  <advance width="359"/>
  <unicode hex="002C"/>
  <outline>
    <contour>
      <point x="156" y="-53" type="curve" smooth="yes"/>
      <point x="156" y="-110"/>
      <point x="131" y="-158"/>
      <point x="82" y="-196" type="curve"/>
      <point x="88" y="-220"/>
      <point x="104" y="-229"/>
      <point x="121" y="-229" type="curve" smooth="yes"/>
      <point x="192" y="-229"/>
      <point x="299" y="-120"/>
      <point x="299" y="8" type="curve" smooth="yes"/>
      <point x="299" y="101"/>
      <point x="248" y="154"/>
      <point x="188" y="154" type="curve" smooth="yes"/>
      <point x="137" y="154"/>
      <point x="101" y="114"/>
      <point x="86" y="72" type="curve"/>
      <point x="134" y="43"/>
      <point x="156" y="1"/>
    </contour>
  </outline>
</glyph>
<glyph name="hyphen" format="1">
  <advance width="588"/>
  <unicode hex="002D"/>
  <outline>
    <contour>
      <point x="528" y="328" type="curve" smooth="yes"/>
      <point x="528" y="338"/>
      <point x="526" y="352"/>
      <point x="522" y="359" type="curve"/>
      <point x="205" y="359" type="line" smooth="yes"/>
      <point x="163" y="359"/>
      <point x="60" y="359"/>
      <point x="60" y="261" type="curve" smooth="yes"/>
      <point x="60" y="248"/>
      <point x="65" y="232"/>
      <point x="68" y="225" type="curve"/>
      <point x="383" y="225" type="line" smooth="yes"/>
      <point x="425" y="225"/>
      <point x="528" y="225"/>
    </contour>
  </outline>
</glyph>
<glyph name="period" format="1">
  <advance width="396"/>
  <unicode hex="002E"/>
  <outline>
    <contour>
      <point x="295" y="100" type="curve" smooth="yes"/>
      <point x="295" y="145"/>
      <point x="263" y="180"/>
      <point x="215" y="180" type="curve" smooth="yes"/>
      <point x="158" y="180"/>
      <point x="103" y="127"/>
      <point x="103" y="68" type="curve" smooth="yes"/>
      <point x="103" y="24"/>
      <point x="136" y="-12"/>
      <point x="184" y="-12" type="curve" smooth="yes"/>
      <point x="242" y="-12"/>
      <point x="295" y="41"/>
    </contour>
  </outline>
</glyph>
<glyph name="three" format="1">
  <advance width="578"/>
  <unicode hex="0033"/>
  <outline>
    <contour>
      <point x="499" y="586" type="curve" smooth="yes"/>
      <point x="499" y="683"/>
      <point x="416" y="746"/>
      <point x="290" y="746" type="curve" smooth="yes"/>
      <point x="190" y="746"/>
      <point x="88" y="690"/>
      <point x="88" y="631" type="curve" smooth="yes"/>
      <point x="88" y="610"/>
      <point x="100" y="589"/>
      <point x="119" y="584" type="curve"/>
      <point x="148" y="606"/>
      <point x="197" y="634"/>
      <point x="252" y="634" type="curve" smooth="yes"/>
      <point x="304" y="634"/>
      <point x="348" y="606"/>
      <point x="348" y="559" type="curve" smooth="yes"/>
      <point x="348" y="456"/>
      <point x="154" y="438"/>
      <point x="154" y="368" type="curve" smooth="yes"/>
      <point x="154" y="358"/>
      <point x="157" y="346"/>
      <point x="168" y="337" type="curve"/>
      <point x="179" y="340"/>
      <point x="198" y="341"/>
      <point x="211" y="341" type="curve" smooth="yes"/>
      <point x="338" y="341"/>
      <point x="404" y="257"/>
      <point x="404" y="187" type="curve" smooth="yes"/>
      <point x="404" y="139"/>
      <point x="371" y="97"/>
      <point x="304" y="97" type="curve" smooth="yes"/>
      <point x="238" y="97"/>
      <point x="158" y="142"/>
      <point x="127" y="239" type="curve"/>
      <point x="109" y="239"/>
      <point x="36" y="216"/>
      <point x="36" y="138" type="curve" smooth="yes"/>
      <point x="36" y="36"/>
      <point x="156" y="-11"/>
      <point x="248" y="-11" type="curve" smooth="yes"/>
      <point x="383" y="-11"/>
      <point x="530" y="91"/>
      <point x="530" y="238" type="curve" smooth="yes"/>
      <point x="530" y="346"/>
      <point x="462" y="421"/>
      <point x="382" y="442" type="curve"/>
      <point x="449" y="464"/>
      <point x="499" y="518"/>
    </contour>
  </outline>
</glyph>
<glyph name="four" format="1">
  <advance width="655"/>
  <unicode hex="0034"/>
  <outline>
    <contour>
      <point x="510" y="626" type="curve" smooth="yes"/>
      <point x="510" y="103" type="line" smooth="yes"/>
      <point x="510" y="67"/>
      <point x="520" y="44"/>
      <point x="542" y="32" type="curve"/>
      <point x="521" y="7"/>
      <point x="492" y="-11"/>
      <point x="451" y="-11" type="curve" smooth="yes"/>
      <point x="383" y="-11"/>
      <point x="353" y="28"/>
      <point x="353" y="108" type="curve" smooth="yes"/>
      <point x="353" y="558" type="line" smooth="yes"/>
      <point x="353" y="565"/>
      <point x="352" y="576"/>
      <point x="341" y="576" type="curve" smooth="yes"/>
      <point x="304" y="576"/>
      <point x="169" y="379"/>
      <point x="169" y="311" type="curve" smooth="yes"/>
      <point x="169" y="293"/>
      <point x="180" y="288"/>
      <point x="206" y="288" type="curve" smooth="yes"/>
      <point x="542" y="288" type="line" smooth="yes"/>
      <point x="563" y="288"/>
      <point x="594" y="290"/>
      <point x="613" y="306" type="curve"/>
      <point x="622" y="296"/>
      <point x="631" y="278"/>
      <point x="631" y="257" type="curve" smooth="yes"/>
      <point x="631" y="212"/>
      <point x="590" y="176"/>
      <point x="529" y="176" type="curve" smooth="yes"/>
      <point x="127" y="176" type="line" smooth="yes"/>
      <point x="77" y="176"/>
      <point x="48" y="194"/>
      <point x="48" y="240" type="curve" smooth="yes"/>
      <point x="48" y="394"/>
      <point x="293" y="746"/>
      <point x="431" y="746" type="curve" smooth="yes"/>
      <point x="484" y="746"/>
      <point x="510" y="706"/>
    </contour>
  </outline>
</glyph>
<glyph name="five" format="1">
  <advance width="583"/>
  <unicode hex="0035"/>
  <outline>
    <contour>
      <point x="392" y="736" type="curve"/>
      <point x="275" y="736" type="line" smooth="yes"/>
      <point x="202" y="736"/>
      <point x="140" y="716"/>
      <point x="126" y="648" type="curve" smooth="yes"/>
      <point x="90" y="474"/>
      <point x="76" y="416"/>
      <point x="76" y="388" type="curve" smooth="yes"/>
      <point x="76" y="349"/>
      <point x="100" y="329"/>
      <point x="126" y="329" type="curve"/>
      <point x="157" y="342"/>
      <point x="196" y="350"/>
      <point x="236" y="350" type="curve" smooth="yes"/>
      <point x="328" y="350"/>
      <point x="421" y="301"/>
      <point x="421" y="209" type="curve" smooth="yes"/>
      <point x="421" y="148"/>
      <point x="376" y="115"/>
      <point x="307" y="115" type="curve" smooth="yes"/>
      <point x="246" y="115"/>
      <point x="178" y="155"/>
      <point x="150" y="238" type="curve"/>
      <point x="115" y="238"/>
      <point x="48" y="211"/>
      <point x="48" y="136" type="curve" smooth="yes"/>
      <point x="48" y="42"/>
      <point x="150" y="-11"/>
      <point x="256" y="-11" type="curve" smooth="yes"/>
      <point x="419" y="-11"/>
      <point x="541" y="119"/>
      <point x="541" y="257" type="curve" smooth="yes"/>
      <point x="541" y="396"/>
      <point x="434" y="485"/>
      <point x="323" y="485" type="curve" smooth="yes"/>
      <point x="234" y="485"/>
      <point x="179" y="446"/>
      <point x="138" y="418" type="curve"/>
      <point x="166" y="380" type="line"/>
      <point x="214" y="595" type="line"/>
      <point x="338" y="595" type="line" smooth="yes"/>
      <point x="448" y="595"/>
      <point x="490" y="631"/>
      <point x="490" y="697" type="curve" smooth="yes"/>
      <point x="490" y="720"/>
      <point x="480" y="745"/>
      <point x="470" y="756" type="curve"/>
      <point x="449" y="739"/>
      <point x="416" y="736"/>
    </contour>
  </outline>
</glyph>
<glyph name="seven" format="1">
  <advance width="526"/>
  <unicode hex="0037"/>
  <outline>
    <contour>
      <point x="169" y="736" type="line"/>
      <point x="126" y="736"/>
      <point x="18" y="736"/>
      <point x="18" y="634" type="curve" smooth="yes"/>
      <point x="18" y="611"/>
      <point x="29" y="586"/>
      <point x="37" y="575" type="curve"/>
      <point x="59" y="592"/>
      <point x="92" y="595"/>
      <point x="115" y="595" type="curve" smooth="yes"/>
      <point x="311" y="595" type="line" smooth="yes"/>
      <point x="324" y="595"/>
      <point x="344" y="595"/>
      <point x="367" y="599" type="curve"/>
      <point x="299" y="470"/>
      <point x="118" y="266"/>
      <point x="118" y="125" type="curve" smooth="yes"/>
      <point x="118" y="49"/>
      <point x="164" y="-11"/>
      <point x="239" y="-11" type="curve" smooth="yes"/>
      <point x="317" y="-11"/>
      <point x="336" y="62"/>
      <point x="336" y="62" type="curve"/>
      <point x="298" y="78"/>
      <point x="274" y="108"/>
      <point x="274" y="164" type="curve" smooth="yes"/>
      <point x="274" y="376"/>
      <point x="502" y="607"/>
      <point x="502" y="698" type="curve" smooth="yes"/>
      <point x="502" y="720"/>
      <point x="497" y="731"/>
      <point x="493" y="736" type="curve"/>
    </contour>
  </outline>
</glyph>
<glyph name="eight" format="1">
  <advance width="653"/>
  <unicode hex="0038"/>
  <outline>
    <contour>
      <point x="200" y="233" type="curve" smooth="yes"/>
      <point x="200" y="269"/>
      <point x="212" y="305"/>
      <point x="235" y="335" type="curve"/>
      <point x="336" y="280"/>
      <point x="450" y="244"/>
      <point x="450" y="158" type="curve" smooth="yes"/>
      <point x="450" y="102"/>
      <point x="398" y="74"/>
      <point x="353" y="74" type="curve" smooth="yes"/>
      <point x="256" y="74"/>
      <point x="200" y="152"/>
    </contour>
    <contour>
      <point x="430" y="509" type="curve" smooth="yes"/>
      <point x="430" y="472"/>
      <point x="420" y="444"/>
      <point x="406" y="419" type="curve"/>
      <point x="311" y="469"/>
      <point x="212" y="506"/>
      <point x="212" y="583" type="curve" smooth="yes"/>
      <point x="212" y="637"/>
      <point x="254" y="665"/>
      <point x="296" y="665" type="curve" smooth="yes"/>
      <point x="374" y="665"/>
      <point x="430" y="590"/>
    </contour>
    <contour>
      <point x="571" y="541" type="curve" smooth="yes"/>
      <point x="571" y="676"/>
      <point x="430" y="746"/>
      <point x="320" y="746" type="curve" smooth="yes"/>
      <point x="176" y="746"/>
      <point x="80" y="654"/>
      <point x="80" y="542" type="curve" smooth="yes"/>
      <point x="80" y="468"/>
      <point x="116" y="420"/>
      <point x="164" y="380" type="curve"/>
      <point x="113" y="349"/>
      <point x="60" y="294"/>
      <point x="60" y="208" type="curve" smooth="yes"/>
      <point x="60" y="65"/>
      <point x="210" y="-11"/>
      <point x="338" y="-11" type="curve" smooth="yes"/>
      <point x="434" y="-11"/>
      <point x="593" y="47"/>
      <point x="593" y="198" type="curve" smooth="yes"/>
      <point x="593" y="282"/>
      <point x="542" y="335"/>
      <point x="478" y="378" type="curve"/>
      <point x="528" y="412"/>
      <point x="571" y="461"/>
    </contour>
  </outline>
</glyph>
<glyph name="nine" format="1">
  <advance width="640"/>
  <unicode hex="0039"/>
  <outline>
    <contour>
      <point x="580" y="414" type="curve" smooth="yes"/>
      <point x="580" y="593"/>
      <point x="481" y="746"/>
      <point x="301" y="746" type="curve" smooth="yes"/>
      <point x="160" y="746"/>
      <point x="48" y="649"/>
      <point x="48" y="494" type="curve" smooth="yes"/>
      <point x="48" y="404"/>
      <point x="114" y="281"/>
      <point x="251" y="281" type="curve" smooth="yes"/>
      <point x="317" y="281"/>
      <point x="367" y="326"/>
      <point x="368" y="389" type="curve"/>
      <point x="244" y="396"/>
      <point x="185" y="488"/>
      <point x="185" y="560" type="curve" smooth="yes"/>
      <point x="185" y="617"/>
      <point x="226" y="653"/>
      <point x="272" y="653" type="curve" smooth="yes"/>
      <point x="338" y="653"/>
      <point x="418" y="581"/>
      <point x="418" y="391" type="curve" smooth="yes"/>
      <point x="418" y="204"/>
      <point x="319" y="71"/>
      <point x="162" y="54" type="curve"/>
      <point x="161" y="50"/>
      <point x="161" y="47"/>
      <point x="161" y="43" type="curve" smooth="yes"/>
      <point x="161" y="6"/>
      <point x="199" y="-11"/>
      <point x="232" y="-11" type="curve" smooth="yes"/>
      <point x="442" y="-11"/>
      <point x="580" y="206"/>
    </contour>
  </outline>
</glyph>
<glyph name="less" format="1">
  <advance width="768"/>
  <unicode hex="003C"/>
  <outline>
    <contour>
      <point x="257" y="454" type="curve" smooth="yes"/>
      <point x="257" y="493"/>
      <point x="608" y="634"/>
      <point x="662" y="656" type="curve"/>
      <point x="662" y="704"/>
      <point x="617" y="720"/>
      <point x="589" y="720" type="curve" smooth="yes"/>
      <point x="518" y="720"/>
      <point x="68" y="514"/>
      <point x="68" y="416" type="curve" smooth="yes"/>
      <point x="68" y="325"/>
      <point x="473" y="128"/>
      <point x="559" y="128" type="curve" smooth="yes"/>
      <point x="620" y="128"/>
      <point x="661" y="176"/>
      <point x="661" y="251" type="curve"/>
      <point x="551" y="295"/>
      <point x="257" y="422"/>
    </contour>
  </outline>
</glyph>
<glyph name="equal" format="1">
  <advance width="848"/>
  <unicode hex="003D"/>
  <outline>
    <contour>
      <point x="250" y="509" type="line"/>
      <point x="208" y="509"/>
      <point x="105" y="509"/>
      <point x="105" y="410" type="curve" smooth="yes"/>
      <point x="105" y="397"/>
      <point x="110" y="382"/>
      <point x="113" y="374" type="curve"/>
      <point x="598" y="374" type="line" smooth="yes"/>
      <point x="640" y="374"/>
      <point x="743" y="374"/>
      <point x="743" y="478" type="curve" smooth="yes"/>
      <point x="743" y="487"/>
      <point x="741" y="502"/>
      <point x="737" y="509" type="curve"/>
    </contour>
    <contour>
      <point x="250" y="228" type="line"/>
      <point x="208" y="228"/>
      <point x="105" y="228"/>
      <point x="105" y="130" type="curve" smooth="yes"/>
      <point x="105" y="116"/>
      <point x="110" y="101"/>
      <point x="113" y="94" type="curve"/>
      <point x="598" y="94" type="line" smooth="yes"/>
      <point x="640" y="94"/>
      <point x="743" y="94"/>
      <point x="743" y="197" type="curve" smooth="yes"/>
      <point x="743" y="206"/>
      <point x="741" y="221"/>
      <point x="737" y="228" type="curve"/>
    </contour>
  </outline>
</glyph>
<glyph name="greater" format="1">
  <advance width="734"/>
  <unicode hex="003E"/>
  <outline>
    <contour>
      <point x="172" y="128" type="curve" smooth="yes"/>
      <point x="258" y="128"/>
      <point x="662" y="325"/>
      <point x="662" y="416" type="curve" smooth="yes"/>
      <point x="662" y="514"/>
      <point x="212" y="720"/>
      <point x="142" y="720" type="curve" smooth="yes"/>
      <point x="114" y="720"/>
      <point x="68" y="704"/>
      <point x="68" y="656" type="curve"/>
      <point x="122" y="634"/>
      <point x="474" y="493"/>
      <point x="474" y="454" type="curve" smooth="yes"/>
      <point x="474" y="422"/>
      <point x="180" y="295"/>
      <point x="70" y="251" type="curve"/>
      <point x="70" y="176"/>
      <point x="110" y="128"/>
    </contour>
  </outline>
</glyph>
<glyph name="question" format="1">
  <advance width="610"/>
  <unicode hex="003F"/>
  <outline>
    <contour>
      <point x="365" y="325" type="curve" smooth="yes"/>
      <point x="365" y="419"/>
      <point x="544" y="473"/>
      <point x="544" y="617" type="curve" smooth="yes"/>
      <point x="544" y="720"/>
      <point x="437" y="784"/>
      <point x="313" y="784" type="curve" smooth="yes"/>
      <point x="184" y="784"/>
      <point x="66" y="720"/>
      <point x="66" y="620" type="curve" smooth="yes"/>
      <point x="66" y="560"/>
      <point x="108" y="512"/>
      <point x="174" y="512" type="curve" smooth="yes"/>
      <point x="236" y="512"/>
      <point x="277" y="564"/>
      <point x="277" y="577" type="curve"/>
      <point x="251" y="587"/>
      <point x="224" y="614"/>
      <point x="224" y="647" type="curve" smooth="yes"/>
      <point x="224" y="683"/>
      <point x="248" y="704"/>
      <point x="290" y="704" type="curve" smooth="yes"/>
      <point x="349" y="704"/>
      <point x="384" y="667"/>
      <point x="384" y="614" type="curve" smooth="yes"/>
      <point x="384" y="470"/>
      <point x="232" y="432"/>
      <point x="232" y="317" type="curve" smooth="yes"/>
      <point x="232" y="248"/>
      <point x="280" y="209"/>
      <point x="337" y="209" type="curve" smooth="yes"/>
      <point x="379" y="209"/>
      <point x="414" y="234"/>
      <point x="418" y="272" type="curve"/>
      <point x="383" y="280"/>
      <point x="365" y="306"/>
    </contour>
    <contour>
      <point x="420" y="89" type="curve" smooth="yes"/>
      <point x="420" y="128"/>
      <point x="388" y="160"/>
      <point x="340" y="160" type="curve" smooth="yes"/>
      <point x="283" y="160"/>
      <point x="228" y="113"/>
      <point x="228" y="60" type="curve" smooth="yes"/>
      <point x="228" y="22"/>
      <point x="260" y="-11"/>
      <point x="308" y="-11" type="curve" smooth="yes"/>
      <point x="367" y="-11"/>
      <point x="420" y="36"/>
    </contour>
  </outline>
</glyph>
<glyph name="B" format="1">
  <advance width="785"/>
  <unicode hex="0042"/>
  <outline>
    <contour>
      <point x="685" y="540" type="curve" smooth="yes"/>
      <point x="685" y="461"/>
      <point x="629" y="407"/>
      <point x="543" y="388" type="curve"/>
      <point x="656" y="372"/>
      <point x="733" y="297"/>
      <point x="733" y="205" type="curve" smooth="yes"/>
      <point x="733" y="105"/>
      <point x="641" y="0"/>
      <point x="432" y="0" type="curve" smooth="yes"/>
      <point x="304" y="0" type="line" smooth="yes"/>
      <point x="152" y="0"/>
      <point x="104" y="39"/>
      <point x="104" y="166" type="curve" smooth="yes"/>
      <point x="104" y="623" type="line" smooth="yes"/>
      <point x="104" y="658"/>
      <point x="93" y="680"/>
      <point x="70" y="692" type="curve"/>
      <point x="92" y="718"/>
      <point x="122" y="736"/>
      <point x="162" y="736" type="curve" smooth="yes"/>
      <point x="399" y="736" type="line" smooth="yes"/>
      <point x="600" y="736"/>
      <point x="685" y="640"/>
    </contour>
    <contour>
      <point x="262" y="629" type="line"/>
      <point x="262" y="428" type="line"/>
      <point x="399" y="427" type="line" smooth="yes"/>
      <point x="488" y="426"/>
      <point x="524" y="469"/>
      <point x="524" y="528" type="curve" smooth="yes"/>
      <point x="524" y="579"/>
      <point x="488" y="629"/>
      <point x="399" y="629" type="curve" smooth="yes"/>
    </contour>
    <contour>
      <point x="262" y="320" type="line"/>
      <point x="262" y="166" type="line" smooth="yes"/>
      <point x="262" y="124"/>
      <point x="275" y="108"/>
      <point x="327" y="108" type="curve" smooth="yes"/>
      <point x="432" y="108" type="line" smooth="yes"/>
      <point x="519" y="108"/>
      <point x="571" y="151"/>
      <point x="571" y="214" type="curve" smooth="yes"/>
      <point x="571" y="283"/>
      <point x="519" y="320"/>
      <point x="432" y="320" type="curve" smooth="yes"/>
    </contour>
  </outline>
</glyph>
<glyph name="C" format="1">
  <advance width="738"/>
  <unicode hex="0043"/>
  <outline>
    <contour>
      <point x="370" y="736" type="move" name="top"/>
    </contour>
    <contour>
      <point x="370" y="0" type="move" name="bottom"/>
    </contour>
    <contour>
      <point x="670" y="599" type="curve" smooth="yes"/>
      <point x="670" y="683"/>
      <point x="553" y="746"/>
      <point x="415" y="746" type="curve" smooth="yes"/>
      <point x="197" y="746"/>
      <point x="62" y="593"/>
      <point x="62" y="361" type="curve" smooth="yes"/>
      <point x="62" y="125"/>
      <point x="185" y="-11"/>
      <point x="395" y="-11" type="curve" smooth="yes"/>
      <point x="554" y="-11"/>
      <point x="672" y="89"/>
      <point x="672" y="164" type="curve" smooth="yes"/>
      <point x="672" y="208"/>
      <point x="644" y="223"/>
      <point x="637" y="226" type="curve"/>
      <point x="599" y="180"/>
      <point x="522" y="130"/>
      <point x="436" y="130" type="curve" smooth="yes"/>
      <point x="317" y="130"/>
      <point x="227" y="185"/>
      <point x="227" y="383" type="curve" smooth="yes"/>
      <point x="227" y="558"/>
      <point x="310" y="658"/>
      <point x="401" y="658" type="curve" smooth="yes"/>
      <point x="467" y="658"/>
      <point x="496" y="611"/>
      <point x="482" y="532" type="curve"/>
      <point x="506" y="517"/>
      <point x="534" y="511"/>
      <point x="558" y="511" type="curve" smooth="yes"/>
      <point x="616" y="511"/>
      <point x="670" y="534"/>
    </contour>
  </outline>
</glyph>
<glyph name="E" format="1">
  <advance width="716"/>
  <unicode hex="0045"/>
  <outline>
    <contour>
      <point x="383" y="736" type="move" name="top"/>
    </contour>
    <contour>
      <point x="576" y="24" type="move" name="ogonek"/>
    </contour>
    <contour>
      <point x="359" y="0" type="move" name="bottom"/>
    </contour>
    <contour>
      <point x="509" y="736" type="line"/>
      <point x="617" y="736"/>
      <point x="656" y="707"/>
      <point x="656" y="654" type="curve" smooth="yes"/>
      <point x="656" y="625"/>
      <point x="643" y="604"/>
      <point x="624" y="588" type="curve"/>
      <point x="589" y="602"/>
      <point x="548" y="607"/>
      <point x="498" y="607" type="curve" smooth="yes"/>
      <point x="275" y="607" type="line"/>
      <point x="275" y="199" type="line" smooth="yes"/>
      <point x="275" y="150"/>
      <point x="295" y="128"/>
      <point x="337" y="128" type="curve" smooth="yes"/>
      <point x="498" y="128" type="line" smooth="yes"/>
      <point x="548" y="128"/>
      <point x="588" y="142"/>
      <point x="624" y="168" type="curve"/>
      <point x="643" y="152"/>
      <point x="656" y="124"/>
      <point x="656" y="95" type="curve" smooth="yes"/>
      <point x="656" y="42"/>
      <point x="617" y="0"/>
      <point x="528" y="0" type="curve" smooth="yes"/>
      <point x="311" y="0" type="line" smooth="yes"/>
      <point x="179" y="0"/>
      <point x="118" y="54"/>
      <point x="118" y="179" type="curve" smooth="yes"/>
      <point x="118" y="623" type="line" smooth="yes"/>
      <point x="118" y="658"/>
      <point x="107" y="680"/>
      <point x="84" y="692" type="curve"/>
      <point x="106" y="718"/>
      <point x="136" y="736"/>
      <point x="175" y="736" type="curve" smooth="yes"/>
    </contour>
    <contour>
      <point x="413" y="457" type="line"/>
      <point x="521" y="457"/>
      <point x="560" y="436"/>
      <point x="560" y="383" type="curve" smooth="yes"/>
      <point x="560" y="354"/>
      <point x="547" y="332"/>
      <point x="528" y="317" type="curve"/>
      <point x="492" y="329"/>
      <point x="452" y="329"/>
      <point x="402" y="329" type="curve" smooth="yes"/>
      <point x="258" y="329" type="line"/>
      <point x="258" y="457" type="line"/>
    </contour>
  </outline>
</glyph>
<glyph name="F" format="1">
  <advance width="670"/>
  <unicode hex="0046"/>
  <outline>
    <contour>
      <point x="413" y="442" type="line"/>
      <point x="521" y="442"/>
      <point x="560" y="424"/>
      <point x="560" y="380" type="curve" smooth="yes"/>
      <point x="560" y="356"/>
      <point x="547" y="337"/>
      <point x="528" y="324" type="curve"/>
      <point x="492" y="334"/>
      <point x="452" y="334"/>
      <point x="402" y="334" type="curve" smooth="yes"/>
      <point x="258" y="334" type="line"/>
      <point x="258" y="442" type="line"/>
    </contour>
    <contour>
      <point x="118" y="623" type="line"/>
      <point x="118" y="658"/>
      <point x="107" y="680"/>
      <point x="84" y="692" type="curve"/>
      <point x="106" y="718"/>
      <point x="136" y="736"/>
      <point x="175" y="736" type="curve" smooth="yes"/>
      <point x="521" y="736" type="line" smooth="yes"/>
      <point x="629" y="736"/>
      <point x="656" y="707"/>
      <point x="656" y="666" type="curve" smooth="yes"/>
      <point x="656" y="637"/>
      <point x="643" y="616"/>
      <point x="624" y="600" type="curve"/>
      <point x="589" y="614"/>
      <point x="548" y="619"/>
      <point x="498" y="619" type="curve" smooth="yes"/>
      <point x="275" y="619" type="line"/>
      <point x="275" y="103" type="line" smooth="yes"/>
      <point x="275" y="67"/>
      <point x="284" y="44"/>
      <point x="307" y="32" type="curve"/>
      <point x="286" y="7"/>
      <point x="257" y="-11"/>
      <point x="216" y="-11" type="curve" smooth="yes"/>
      <point x="148" y="-11"/>
      <point x="118" y="28"/>
      <point x="118" y="108" type="curve" smooth="yes"/>
    </contour>
  </outline>
</glyph>
<glyph name="H" format="1">
  <advance width="852"/>
  <unicode hex="0048"/>
  <outline>
    <contour>
      <point x="268" y="103" type="curve"/>
      <point x="268" y="628" type="line" smooth="yes"/>
      <point x="268" y="708"/>
      <point x="236" y="746"/>
      <point x="168" y="746" type="curve" smooth="yes"/>
      <point x="128" y="746"/>
      <point x="98" y="728"/>
      <point x="77" y="703" type="curve"/>
      <point x="100" y="691"/>
      <point x="110" y="668"/>
      <point x="110" y="634" type="curve" smooth="yes"/>
      <point x="110" y="108" type="line" smooth="yes"/>
      <point x="110" y="28"/>
      <point x="140" y="-11"/>
      <point x="209" y="-11" type="curve" smooth="yes"/>
      <point x="250" y="-11"/>
      <point x="278" y="7"/>
      <point x="300" y="32" type="curve"/>
      <point x="277" y="44"/>
      <point x="268" y="67"/>
    </contour>
    <contour>
      <point x="743" y="103" type="curve"/>
      <point x="743" y="628" type="line" smooth="yes"/>
      <point x="743" y="708"/>
      <point x="712" y="746"/>
      <point x="643" y="746" type="curve" smooth="yes"/>
      <point x="604" y="746"/>
      <point x="574" y="728"/>
      <point x="552" y="703" type="curve"/>
      <point x="575" y="691"/>
      <point x="586" y="668"/>
      <point x="586" y="634" type="curve" smooth="yes"/>
      <point x="586" y="108" type="line" smooth="yes"/>
      <point x="586" y="28"/>
      <point x="616" y="-11"/>
      <point x="684" y="-11" type="curve" smooth="yes"/>
      <point x="725" y="-11"/>
      <point x="754" y="7"/>
      <point x="775" y="32" type="curve"/>
      <point x="752" y="44"/>
      <point x="743" y="67"/>
    </contour>
    <contour>
      <point x="620" y="425" type="line"/>
      <point x="230" y="425" type="line"/>
      <point x="230" y="323" type="line"/>
      <point x="620" y="323" type="line"/>
    </contour>
  </outline>
</glyph>
<glyph name="K" format="1">
  <advance width="769"/>
  <unicode hex="004B"/>
  <outline>
    <contour>
      <point x="385" y="700" type="move" name="top"/>
    </contour>
    <contour>
      <point x="401" y="0" type="move" name="bottom"/>
    </contour>
    <contour>
      <point x="268" y="103" type="line"/>
      <point x="268" y="67"/>
      <point x="277" y="44"/>
      <point x="300" y="32" type="curve"/>
      <point x="278" y="7"/>
      <point x="250" y="-11"/>
      <point x="209" y="-11" type="curve" smooth="yes"/>
      <point x="140" y="-11"/>
      <point x="110" y="28"/>
      <point x="110" y="108" type="curve" smooth="yes"/>
      <point x="110" y="634" type="line" smooth="yes"/>
      <point x="110" y="668"/>
      <point x="100" y="691"/>
      <point x="77" y="703" type="curve"/>
      <point x="98" y="728"/>
      <point x="128" y="746"/>
      <point x="168" y="746" type="curve" smooth="yes"/>
      <point x="236" y="746"/>
      <point x="268" y="708"/>
      <point x="268" y="628" type="curve" smooth="yes"/>
    </contour>
    <contour>
      <point x="715" y="638" type="curve"/>
      <point x="682" y="633"/>
      <point x="647" y="622"/>
      <point x="597" y="573" type="curve" smooth="yes"/>
      <point x="364" y="347" type="line"/>
      <point x="366" y="410" type="line"/>
      <point x="617" y="156" type="line" smooth="yes"/>
      <point x="654" y="119"/>
      <point x="685" y="103"/>
      <point x="721" y="106" type="curve"/>
      <point x="721" y="35"/>
      <point x="668" y="-11"/>
      <point x="613" y="-11" type="curve" smooth="yes"/>
      <point x="555" y="-11"/>
      <point x="516" y="20"/>
      <point x="451" y="102" type="curve" smooth="yes"/>
      <point x="262" y="343" type="line"/>
      <point x="262" y="378" type="line"/>
      <point x="399" y="573" type="line" smooth="yes"/>
      <point x="492" y="706"/>
      <point x="537" y="746"/>
      <point x="610" y="746" type="curve" smooth="yes"/>
      <point x="670" y="746"/>
      <point x="712" y="700"/>
    </contour>
  </outline>
</glyph>
<glyph name="M" format="1">
  <advance width="970"/>
  <unicode hex="004D"/>
  <outline>
    <contour>
      <point x="863" y="630" type="line"/>
      <point x="860" y="665"/>
      <point x="864" y="697"/>
      <point x="880" y="724" type="curve"/>
      <point x="852" y="736"/>
      <point x="812" y="746"/>
      <point x="770" y="746" type="curve" smooth="yes"/>
      <point x="664" y="746"/>
      <point x="608" y="716"/>
      <point x="568" y="570" type="curve" smooth="yes"/>
      <point x="481" y="257" type="line"/>
      <point x="498" y="257" type="line"/>
      <point x="410" y="575" type="line" smooth="yes"/>
      <point x="379" y="689"/>
      <point x="347" y="746"/>
      <point x="246" y="746" type="curve" smooth="yes"/>
      <point x="181" y="746"/>
      <point x="119" y="727"/>
      <point x="82" y="707" type="curve"/>
      <point x="98" y="685"/>
      <point x="104" y="652"/>
      <point x="102" y="619" type="curve" smooth="yes"/>
      <point x="62" y="108" type="line" smooth="yes"/>
      <point x="60" y="74"/>
      <point x="50" y="47"/>
      <point x="30" y="28" type="curve"/>
      <point x="53" y="4"/>
      <point x="84" y="-11"/>
      <point x="121" y="-11" type="curve" smooth="yes"/>
      <point x="175" y="-11"/>
      <point x="197" y="25"/>
      <point x="202" y="98" type="curve" smooth="yes"/>
      <point x="236" y="696" type="line"/>
      <point x="204" y="684" type="line"/>
      <point x="412" y="47" type="line" smooth="yes"/>
      <point x="420" y="20"/>
      <point x="428" y="1"/>
      <point x="469" y="0" type="curve" smooth="yes"/>
      <point x="510" y="0"/>
      <point x="524" y="19"/>
      <point x="533" y="46" type="curve" smooth="yes"/>
      <point x="736" y="690" type="line"/>
      <point x="703" y="688" type="line"/>
      <point x="736" y="95" type="line" smooth="yes"/>
      <point x="740" y="13"/>
      <point x="780" y="-7"/>
      <point x="834" y="-7" type="curve" smooth="yes"/>
      <point x="870" y="-7"/>
      <point x="889" y="-1"/>
      <point x="913" y="10" type="curve"/>
      <point x="902" y="30"/>
      <point x="894" y="80"/>
      <point x="893" y="112" type="curve" smooth="yes"/>
    </contour>
  </outline>
</glyph>
<glyph name="P" format="1">
  <advance width="630"/>
  <unicode hex="0050"/>
  <outline>
    <contour>
      <point x="618" y="499" type="curve" smooth="yes"/>
      <point x="618" y="665"/>
      <point x="472" y="737"/>
      <point x="323" y="736" type="curve" smooth="yes"/>
      <point x="136" y="736" type="line" smooth="yes"/>
      <point x="96" y="736"/>
      <point x="66" y="718"/>
      <point x="44" y="692" type="curve"/>
      <point x="67" y="680"/>
      <point x="78" y="658"/>
      <point x="78" y="623" type="curve" smooth="yes"/>
      <point x="78" y="108" type="line" smooth="yes"/>
      <point x="78" y="28"/>
      <point x="108" y="-11"/>
      <point x="176" y="-11" type="curve" smooth="yes"/>
      <point x="217" y="-11"/>
      <point x="246" y="7"/>
      <point x="268" y="32" type="curve"/>
      <point x="245" y="44"/>
      <point x="235" y="67"/>
      <point x="235" y="103" type="curve" smooth="yes"/>
      <point x="235" y="262" type="line"/>
      <point x="323" y="262" type="line" smooth="yes"/>
      <point x="472" y="262"/>
      <point x="618" y="334"/>
    </contour>
    <contour>
      <point x="236" y="643" type="line"/>
      <point x="293" y="643" type="line" smooth="yes"/>
      <point x="386" y="643"/>
      <point x="437" y="587"/>
      <point x="437" y="499" type="curve" smooth="yes"/>
      <point x="437" y="412"/>
      <point x="386" y="354"/>
      <point x="293" y="354" type="curve" smooth="yes"/>
      <point x="236" y="354" type="line"/>
    </contour>
  </outline>
</glyph>
<glyph name="Q" format="1">
  <advance width="844"/>
  <unicode hex="0051"/>
  <outline>
    <contour>
      <point x="756" y="415" type="curve" smooth="yes"/>
      <point x="756" y="230"/>
      <point x="648" y="60"/>
      <point x="426" y="-2" type="curve"/>
      <point x="481" y="-36"/>
      <point x="548" y="-50"/>
      <point x="629" y="-50" type="curve" smooth="yes"/>
      <point x="670" y="-50"/>
      <point x="709" y="-40"/>
      <point x="742" y="-17" type="curve"/>
      <point x="800" y="-76"/>
      <point x="769" y="-208"/>
      <point x="614" y="-208" type="curve" smooth="yes"/>
      <point x="444" y="-208"/>
      <point x="304" y="-71"/>
      <point x="304" y="2" type="curve" smooth="yes"/>
      <point x="304" y="22"/>
      <point x="314" y="34"/>
      <point x="368" y="59" type="curve" smooth="yes"/>
      <point x="520" y="130"/>
      <point x="593" y="246"/>
      <point x="593" y="391" type="curve" smooth="yes"/>
      <point x="593" y="529"/>
      <point x="509" y="643"/>
      <point x="398" y="643" type="curve" smooth="yes"/>
      <point x="288" y="643"/>
      <point x="227" y="552"/>
      <point x="227" y="412" type="curve" smooth="yes"/>
      <point x="227" y="287"/>
      <point x="286" y="224"/>
      <point x="369" y="224" type="curve" smooth="yes"/>
      <point x="374" y="224"/>
      <point x="379" y="225"/>
      <point x="384" y="225" type="curve"/>
      <point x="386" y="217"/>
      <point x="387" y="209"/>
      <point x="387" y="201" type="curve" smooth="yes"/>
      <point x="387" y="153"/>
      <point x="349" y="106"/>
      <point x="275" y="106" type="curve" smooth="yes"/>
      <point x="174" y="106"/>
      <point x="70" y="179"/>
      <point x="70" y="353" type="curve" smooth="yes"/>
      <point x="70" y="578"/>
      <point x="214" y="746"/>
      <point x="434" y="746" type="curve" smooth="yes"/>
      <point x="618" y="746"/>
      <point x="756" y="625"/>
    </contour>
  </outline>
</glyph>
<glyph name="R" format="1">
  <advance width="676"/>
  <unicode hex="0052"/>
  <outline>
    <contour>
      <point x="328" y="736" type="move" name="top"/>
    </contour>
    <contour>
      <point x="346" y="0" type="move" name="bottom"/>
    </contour>
    <contour>
      <point x="494" y="207" type="line"/>
      <point x="556" y="136"/>
      <point x="590" y="106"/>
      <point x="635" y="106" type="curve"/>
      <point x="635" y="34"/>
      <point x="596" y="-11"/>
      <point x="532" y="-11" type="curve" smooth="yes"/>
      <point x="465" y="-11"/>
      <point x="425" y="32"/>
      <point x="371" y="132" type="curve" smooth="yes"/>
      <point x="281" y="297" type="line"/>
      <point x="395" y="319" type="line"/>
    </contour>
    <contour>
      <point x="598" y="506" type="curve" smooth="yes"/>
      <point x="598" y="353"/>
      <point x="451" y="277"/>
      <point x="302" y="277" type="curve" smooth="yes"/>
      <point x="235" y="277" type="line"/>
      <point x="235" y="103" type="line" smooth="yes"/>
      <point x="235" y="67"/>
      <point x="245" y="44"/>
      <point x="268" y="32" type="curve"/>
      <point x="246" y="7"/>
      <point x="217" y="-11"/>
      <point x="176" y="-11" type="curve" smooth="yes"/>
      <point x="108" y="-11"/>
      <point x="78" y="28"/>
      <point x="78" y="108" type="curve" smooth="yes"/>
      <point x="78" y="623" type="line" smooth="yes"/>
      <point x="78" y="658"/>
      <point x="67" y="680"/>
      <point x="44" y="692" type="curve"/>
      <point x="66" y="718"/>
      <point x="96" y="736"/>
      <point x="136" y="736" type="curve" smooth="yes"/>
      <point x="302" y="736" type="line" smooth="yes"/>
      <point x="451" y="736"/>
      <point x="598" y="660"/>
    </contour>
    <contour>
      <point x="236" y="624" type="line"/>
      <point x="236" y="389" type="line"/>
      <point x="293" y="389" type="line" smooth="yes"/>
      <point x="386" y="389"/>
      <point x="437" y="431"/>
      <point x="437" y="506" type="curve" smooth="yes"/>
      <point x="437" y="582"/>
      <point x="386" y="624"/>
      <point x="293" y="624" type="curve" smooth="yes"/>
    </contour>
  </outline>
</glyph>
<glyph name="V" format="1">
  <advance width="741"/>
  <unicode hex="0056"/>
  <outline>
    <contour>
      <point x="521" y="533" type="curve" smooth="yes"/>
      <point x="521" y="390"/>
      <point x="452" y="193"/>
      <point x="341" y="82" type="curve"/>
      <point x="375" y="67" type="line"/>
      <point x="216" y="626" type="line" smooth="yes"/>
      <point x="189" y="721"/>
      <point x="146" y="746"/>
      <point x="90" y="746" type="curve" smooth="yes"/>
      <point x="50" y="746"/>
      <point x="18" y="733"/>
      <point x="-10" y="704" type="curve"/>
      <point x="16" y="688"/>
      <point x="24" y="659"/>
      <point x="38" y="616" type="curve" smooth="yes"/>
      <point x="202" y="120" type="line" smooth="yes"/>
      <point x="234" y="25"/>
      <point x="267" y="-11"/>
      <point x="337" y="-11" type="curve"/>
      <point x="487" y="-11"/>
      <point x="706" y="359"/>
      <point x="706" y="581" type="curve" smooth="yes"/>
      <point x="706" y="686"/>
      <point x="657" y="747"/>
      <point x="584" y="747" type="curve" smooth="yes"/>
      <point x="551" y="747"/>
      <point x="509" y="731"/>
      <point x="486" y="712" type="curve"/>
      <point x="513" y="659"/>
      <point x="521" y="613"/>
    </contour>
  </outline>
</glyph>
<glyph name="X" format="1">
  <advance width="674"/>
  <unicode hex="0058"/>
  <outline>
    <contour>
      <point x="290" y="415" type="line"/>
      <point x="80" y="126" type="line" smooth="yes"/>
      <point x="59" y="97"/>
      <point x="41" y="88"/>
      <point x="10" y="88" type="curve"/>
      <point x="10" y="23"/>
      <point x="50" y="-11"/>
      <point x="98" y="-11" type="curve" smooth="yes"/>
      <point x="166" y="-11"/>
      <point x="202" y="35"/>
      <point x="266" y="157" type="curve" smooth="yes"/>
      <point x="357" y="328" type="line"/>
    </contour>
    <contour>
      <point x="236" y="668" type="line"/>
      <point x="198" y="728"/>
      <point x="164" y="746"/>
      <point x="118" y="746" type="curve" smooth="yes"/>
      <point x="61" y="746"/>
      <point x="24" y="710"/>
      <point x="10" y="653" type="curve"/>
      <point x="40" y="653"/>
      <point x="72" y="640"/>
      <point x="108" y="583" type="curve" smooth="yes"/>
      <point x="438" y="67" type="line" smooth="yes"/>
      <point x="478" y="5"/>
      <point x="510" y="-11"/>
      <point x="557" y="-11" type="curve" smooth="yes"/>
      <point x="613" y="-11"/>
      <point x="650" y="25"/>
      <point x="665" y="83" type="curve"/>
      <point x="635" y="83"/>
      <point x="602" y="96"/>
      <point x="566" y="152" type="curve" smooth="yes"/>
    </contour>
    <contour>
      <point x="666" y="646" type="curve"/>
      <point x="666" y="711"/>
      <point x="626" y="747"/>
      <point x="578" y="747" type="curve" smooth="yes"/>
      <point x="510" y="747"/>
      <point x="474" y="699"/>
      <point x="410" y="577" type="curve" smooth="yes"/>
      <point x="319" y="406" type="line"/>
      <point x="386" y="319" type="line"/>
      <point x="596" y="608" type="line" smooth="yes"/>
      <point x="617" y="637"/>
      <point x="635" y="646"/>
    </contour>
  </outline>
</glyph>
<glyph name="Z" format="1">
  <advance width="677"/>
  <unicode hex="005A"/>
  <outline>
    <contour>
      <point x="338" y="736" type="move" name="top"/>
    </contour>
    <contour>
      <point x="473" y="736" type="curve"/>
      <point x="199" y="736" type="line" smooth="yes"/>
      <point x="149" y="736"/>
      <point x="104" y="739"/>
      <point x="66" y="750" type="curve"/>
      <point x="52" y="732"/>
      <point x="42" y="708"/>
      <point x="42" y="682" type="curve" smooth="yes"/>
      <point x="42" y="626"/>
      <point x="82" y="582"/>
      <point x="204" y="582" type="curve" smooth="yes"/>
      <point x="270" y="582"/>
      <point x="391" y="590"/>
      <point x="505" y="613" type="curve"/>
      <point x="521" y="644" type="line"/>
      <point x="102" y="266" type="line" smooth="yes"/>
      <point x="53" y="222"/>
      <point x="30" y="185"/>
      <point x="30" y="132" type="curve" smooth="yes"/>
      <point x="30" y="50"/>
      <point x="102" y="0"/>
      <point x="192" y="0" type="curve" smooth="yes"/>
      <point x="476" y="0" type="line" smooth="yes"/>
      <point x="599" y="0"/>
      <point x="638" y="44"/>
      <point x="638" y="100" type="curve" smooth="yes"/>
      <point x="638" y="126"/>
      <point x="628" y="156"/>
      <point x="613" y="174" type="curve"/>
      <point x="578" y="156"/>
      <point x="541" y="148"/>
      <point x="490" y="144" type="curve" smooth="yes"/>
      <point x="160" y="122" type="line"/>
      <point x="150" y="96" type="line"/>
      <point x="563" y="469" type="line" smooth="yes"/>
      <point x="611" y="515"/>
      <point x="635" y="551"/>
      <point x="635" y="604" type="curve" smooth="yes"/>
      <point x="635" y="685"/>
      <point x="563" y="736"/>
    </contour>
  </outline>
</glyph>
<glyph name="grave" format="1">
  <advance width="276"/>
  <unicode hex="0060"/>
  <outline>
    <contour>
      <point x="184" y="523" type="move" name="_top"/>
    </contour>
    <contour>
      <point x="98" y="649" type="curve" smooth="yes"/>
      <point x="179" y="587" type="line" smooth="yes"/>
      <point x="208" y="564"/>
      <point x="247" y="563"/>
      <point x="264" y="595" type="curve"/>
      <point x="209" y="689" type="line" smooth="yes"/>
      <point x="168" y="758"/>
      <point x="136" y="785"/>
      <point x="84" y="785" type="curve" smooth="yes"/>
      <point x="23" y="785"/>
      <point x="-6" y="724"/>
      <point x="24" y="666" type="curve"/>
      <point x="47" y="674"/>
      <point x="70" y="671"/>
    </contour>
  </outline>
</glyph>
<glyph name="a" format="1">
  <advance width="569"/>
  <unicode hex="0061"/>
  <outline>
    <contour>
      <point x="296" y="523" type="move" name="top"/>
    </contour>
    <contour>
      <point x="529" y="26" type="move" name="ogonek"/>
    </contour>
    <contour>
      <point x="497" y="354" type="curve" smooth="yes"/>
      <point x="497" y="127" type="line" smooth="yes"/>
      <point x="497" y="85"/>
      <point x="517" y="58"/>
      <point x="551" y="47" type="curve"/>
      <point x="529" y="16"/>
      <point x="486" y="-11"/>
      <point x="438" y="-11" type="curve" smooth="yes"/>
      <point x="370" y="-11"/>
      <point x="340" y="28"/>
      <point x="340" y="108" type="curve" smooth="yes"/>
      <point x="340" y="402" type="line" smooth="yes"/>
      <point x="340" y="445"/>
      <point x="316" y="465"/>
      <point x="287" y="465" type="curve" smooth="yes"/>
      <point x="258" y="465"/>
      <point x="235" y="445"/>
      <point x="235" y="413" type="curve" smooth="yes"/>
      <point x="235" y="395"/>
      <point x="241" y="381"/>
      <point x="251" y="370" type="curve"/>
      <point x="229" y="347"/>
      <point x="198" y="334"/>
      <point x="161" y="334" type="curve" smooth="yes"/>
      <point x="96" y="334"/>
      <point x="65" y="370"/>
      <point x="65" y="409" type="curve" smooth="yes"/>
      <point x="65" y="495"/>
      <point x="172" y="534"/>
      <point x="287" y="534" type="curve" smooth="yes"/>
      <point x="402" y="534"/>
      <point x="497" y="487"/>
    </contour>
    <contour>
      <point x="353" y="224" type="line"/>
      <point x="245" y="221"/>
      <point x="210" y="181"/>
      <point x="210" y="137" type="curve" smooth="yes"/>
      <point x="210" y="102"/>
      <point x="233" y="88"/>
      <point x="266" y="88" type="curve" smooth="yes"/>
      <point x="300" y="88"/>
      <point x="331" y="109"/>
      <point x="356" y="148" type="curve"/>
      <point x="364" y="78" type="line"/>
      <point x="334" y="34"/>
      <point x="275" y="-11"/>
      <point x="191" y="-11" type="curve" smooth="yes"/>
      <point x="101" y="-11"/>
      <point x="40" y="35"/>
      <point x="40" y="119" type="curve" smooth="yes"/>
      <point x="40" y="221"/>
      <point x="155" y="288"/>
      <point x="353" y="288" type="curve"/>
    </contour>
  </outline>
</glyph>
<glyph name="e" format="1">
  <advance width="534"/>
  <unicode hex="0065"/>
  <outline>
    <contour>
      <point x="298" y="523" type="move" name="top"/>
    </contour>
    <contour>
      <point x="371" y="20" type="move" name="ogonek"/>
    </contour>
    <contour>
      <point x="268" y="0" type="move" name="bottom"/>
    </contour>
    <contour>
      <point x="504" y="352" type="curve" smooth="yes"/>
      <point x="504" y="278"/>
      <point x="472" y="250"/>
      <point x="389" y="247" type="curve" smooth="yes"/>
      <point x="187" y="241" type="line"/>
      <point x="187" y="316" type="line"/>
      <point x="312" y="331" type="line" smooth="yes"/>
      <point x="334" y="334"/>
      <point x="348" y="342"/>
      <point x="348" y="374" type="curve" smooth="yes"/>
      <point x="348" y="416"/>
      <point x="325" y="451"/>
      <point x="293" y="451" type="curve" smooth="yes"/>
      <point x="247" y="451"/>
      <point x="204" y="390"/>
      <point x="204" y="259" type="curve" smooth="yes"/>
      <point x="204" y="140"/>
      <point x="257" y="98"/>
      <point x="329" y="98" type="curve" smooth="yes"/>
      <point x="395" y="98"/>
      <point x="437" y="126"/>
      <point x="468" y="161" type="curve"/>
      <point x="482" y="155"/>
      <point x="491" y="137"/>
      <point x="491" y="119" type="curve" smooth="yes"/>
      <point x="491" y="58"/>
      <point x="406" y="-11"/>
      <point x="300" y="-11" type="curve" smooth="yes"/>
      <point x="142" y="-11"/>
      <point x="48" y="80"/>
      <point x="48" y="234" type="curve" smooth="yes"/>
      <point x="48" y="404"/>
      <point x="156" y="534"/>
      <point x="306" y="534" type="curve" smooth="yes"/>
      <point x="425" y="534"/>
      <point x="504" y="442"/>
    </contour>
  </outline>
</glyph>
<glyph name="g" format="1">
  <advance width="565"/>
  <unicode hex="0067"/>
  <outline>
    <contour>
      <point x="243" y="500" type="move" name="top"/>
    </contour>
    <contour>
      <point x="276" y="534" type="curve" smooth="yes"/>
      <point x="156" y="534"/>
      <point x="53" y="457"/>
      <point x="53" y="331" type="curve" smooth="yes"/>
      <point x="53" y="205"/>
      <point x="156" y="127"/>
      <point x="276" y="127" type="curve" smooth="yes"/>
      <point x="396" y="127"/>
      <point x="498" y="205"/>
      <point x="498" y="331" type="curve" smooth="yes"/>
      <point x="498" y="457"/>
      <point x="396" y="534"/>
    </contour>
    <contour>
      <point x="336" y="331" type="curve" smooth="yes"/>
      <point x="342" y="229"/>
      <point x="319" y="194"/>
      <point x="283" y="194" type="curve" smooth="yes"/>
      <point x="247" y="194"/>
      <point x="221" y="229"/>
      <point x="215" y="331" type="curve" smooth="yes"/>
      <point x="209" y="433"/>
      <point x="233" y="467"/>
      <point x="269" y="467" type="curve" smooth="yes"/>
      <point x="305" y="467"/>
      <point x="330" y="433"/>
    </contour>
    <contour>
      <point x="182" y="185" type="line"/>
      <point x="113" y="158"/>
      <point x="58" y="124"/>
      <point x="58" y="53" type="curve" smooth="yes"/>
      <point x="58" y="-41"/>
      <point x="155" y="-78"/>
      <point x="248" y="-78" type="curve" smooth="yes"/>
      <point x="407" y="-78" type="line" smooth="yes"/>
      <point x="426" y="-78"/>
      <point x="433" y="-88"/>
      <point x="433" y="-100" type="curve" smooth="yes"/>
      <point x="433" y="-132"/>
      <point x="382" y="-156"/>
      <point x="271" y="-156" type="curve" smooth="yes"/>
      <point x="163" y="-156"/>
      <point x="115" y="-132"/>
      <point x="113" y="-64" type="curve"/>
      <point x="64" y="-64"/>
      <point x="16" y="-92"/>
      <point x="16" y="-146" type="curve" smooth="yes"/>
      <point x="16" y="-200"/>
      <point x="66" y="-268"/>
      <point x="245" y="-268" type="curve" smooth="yes"/>
      <point x="430" y="-268"/>
      <point x="541" y="-184"/>
      <point x="541" y="-67" type="curve" smooth="yes"/>
      <point x="541" y="14"/>
      <point x="498" y="68"/>
      <point x="395" y="68" type="curve" smooth="yes"/>
      <point x="258" y="68" type="line" smooth="yes"/>
      <point x="203" y="68"/>
      <point x="178" y="74"/>
      <point x="178" y="107" type="curve" smooth="yes"/>
      <point x="178" y="134"/>
      <point x="210" y="145"/>
      <point x="242" y="144" type="curve"/>
    </contour>
    <contour>
      <point x="508" y="630" type="curve" smooth="yes"/>
      <point x="452" y="630"/>
      <point x="407" y="580"/>
      <point x="407" y="482" type="curve"/>
      <point x="452" y="431" type="line"/>
      <point x="452" y="472"/>
      <point x="479" y="497"/>
      <point x="508" y="497" type="curve" smooth="yes"/>
      <point x="524" y="497"/>
      <point x="542" y="491"/>
      <point x="557" y="480" type="curve"/>
      <point x="576" y="491"/>
      <point x="589" y="520"/>
      <point x="589" y="550" type="curve" smooth="yes"/>
      <point x="589" y="589"/>
      <point x="560" y="630"/>
    </contour>
  </outline>
</glyph>
<glyph name="i" format="1">
  <advance width="307"/>
  <unicode hex="0069"/>
  <outline>
    <contour>
      <point x="238" y="15" type="move" name="ogonek"/>
    </contour>
    <contour>
      <point x="235" y="103" type="line"/>
      <point x="235" y="67"/>
      <point x="245" y="44"/>
      <point x="268" y="32" type="curve"/>
      <point x="246" y="7"/>
      <point x="217" y="-11"/>
      <point x="176" y="-11" type="curve" smooth="yes"/>
      <point x="108" y="-11"/>
      <point x="78" y="28"/>
      <point x="78" y="108" type="curve" smooth="yes"/>
      <point x="78" y="421" type="line" smooth="yes"/>
      <point x="78" y="456"/>
      <point x="67" y="479"/>
      <point x="44" y="491" type="curve"/>
      <point x="66" y="516"/>
      <point x="96" y="534"/>
      <point x="136" y="534" type="curve" smooth="yes"/>
      <point x="204" y="534"/>
      <point x="235" y="496"/>
      <point x="235" y="415" type="curve" smooth="yes"/>
    </contour>
    <contour>
      <point x="253" y="702" type="curve" smooth="yes"/>
      <point x="253" y="647"/>
      <point x="204" y="596"/>
      <point x="143" y="596" type="curve" smooth="yes"/>
      <point x="90" y="596"/>
      <point x="53" y="634"/>
      <point x="53" y="679" type="curve" smooth="yes"/>
      <point x="53" y="745"/>
      <point x="116" y="784"/>
      <point x="164" y="784" type="curve" smooth="yes"/>
      <point x="214" y="784"/>
      <point x="253" y="749"/>
    </contour>
  </outline>
</glyph>
<glyph name="j" format="1">
  <advance width="304"/>
  <unicode hex="006A"/>
  <outline>
    <contour>
      <point x="253" y="702" type="curve" smooth="yes"/>
      <point x="253" y="749"/>
      <point x="214" y="784"/>
      <point x="164" y="784" type="curve" smooth="yes"/>
      <point x="116" y="784"/>
      <point x="53" y="745"/>
      <point x="53" y="679" type="curve" smooth="yes"/>
      <point x="53" y="634"/>
      <point x="90" y="596"/>
      <point x="143" y="596" type="curve" smooth="yes"/>
      <point x="204" y="596"/>
      <point x="253" y="647"/>
    </contour>
    <contour>
      <point x="235" y="-90" type="curve"/>
      <point x="235" y="415" type="line"/>
      <point x="235" y="496"/>
      <point x="204" y="534"/>
      <point x="136" y="534" type="curve" smooth="yes"/>
      <point x="96" y="534"/>
      <point x="66" y="516"/>
      <point x="44" y="492" type="curve"/>
      <point x="67" y="479"/>
      <point x="78" y="456"/>
      <point x="78" y="421" type="curve"/>
      <point x="78" y="-64" type="line" smooth="yes"/>
      <point x="78" y="-142"/>
      <point x="59" y="-178"/>
      <point x="-28" y="-178" type="curve"/>
      <point x="-14" y="-224"/>
      <point x="17" y="-268"/>
      <point x="94" y="-268" type="curve" smooth="yes"/>
      <point x="170" y="-268"/>
      <point x="235" y="-218"/>
    </contour>
  </outline>
</glyph>
<glyph name="k" format="1">
  <advance width="637"/>
  <unicode hex="006B"/>
  <outline>
    <contour>
      <point x="319" y="0" type="move" name="bottom"/>
    </contour>
    <contour>
      <point x="235" y="103" type="curve" smooth="yes"/>
      <point x="235" y="665" type="line" smooth="yes"/>
      <point x="235" y="745"/>
      <point x="204" y="784"/>
      <point x="136" y="784" type="curve" smooth="yes"/>
      <point x="96" y="784"/>
      <point x="66" y="766"/>
      <point x="44" y="742" type="curve"/>
      <point x="67" y="728"/>
      <point x="78" y="706"/>
      <point x="78" y="671" type="curve" smooth="yes"/>
      <point x="78" y="108" type="line" smooth="yes"/>
      <point x="78" y="28"/>
      <point x="108" y="-11"/>
      <point x="176" y="-11" type="curve" smooth="yes"/>
      <point x="217" y="-11"/>
      <point x="246" y="7"/>
      <point x="268" y="32" type="curve"/>
      <point x="245" y="44"/>
      <point x="235" y="67"/>
    </contour>
    <contour>
      <point x="221" y="330" type="curve"/>
      <point x="221" y="300" type="line"/>
      <point x="332" y="66"/>
      <point x="397" y="-11"/>
      <point x="482" y="-11" type="curve" smooth="yes"/>
      <point x="550" y="-11"/>
      <point x="593" y="38"/>
      <point x="593" y="122" type="curve"/>
      <point x="514" y="122"/>
      <point x="472" y="139"/>
      <point x="300" y="319" type="curve"/>
      <point x="296" y="280" type="line"/>
      <point x="428" y="275"/>
      <point x="570" y="345"/>
      <point x="570" y="431" type="curve" smooth="yes"/>
      <point x="570" y="494"/>
      <point x="511" y="534"/>
      <point x="421" y="534" type="curve"/>
      <point x="421" y="436"/>
      <point x="396" y="376"/>
    </contour>
  </outline>
</glyph>
<glyph name="m" format="1">
  <advance width="965"/>
  <unicode hex="006D"/>
  <outline>
    <contour>
      <point x="235" y="103" type="line"/>
      <point x="235" y="67"/>
      <point x="245" y="44"/>
      <point x="268" y="32" type="curve"/>
      <point x="246" y="7"/>
      <point x="217" y="-11"/>
      <point x="176" y="-11" type="curve" smooth="yes"/>
      <point x="108" y="-11"/>
      <point x="78" y="28"/>
      <point x="78" y="108" type="curve" smooth="yes"/>
      <point x="78" y="421" type="line" smooth="yes"/>
      <point x="78" y="456"/>
      <point x="67" y="479"/>
      <point x="44" y="491" type="curve"/>
      <point x="66" y="516"/>
      <point x="96" y="534"/>
      <point x="136" y="534" type="curve" smooth="yes"/>
      <point x="204" y="534"/>
      <point x="235" y="496"/>
      <point x="235" y="415" type="curve" smooth="yes"/>
    </contour>
    <contour>
      <point x="564" y="354" type="curve" smooth="yes"/>
      <point x="564" y="103" type="line" smooth="yes"/>
      <point x="564" y="67"/>
      <point x="574" y="44"/>
      <point x="596" y="32" type="curve"/>
      <point x="575" y="7"/>
      <point x="546" y="-11"/>
      <point x="505" y="-11" type="curve" smooth="yes"/>
      <point x="437" y="-11"/>
      <point x="407" y="28"/>
      <point x="407" y="108" type="curve" smooth="yes"/>
      <point x="407" y="331" type="line" smooth="yes"/>
      <point x="407" y="379"/>
      <point x="383" y="408"/>
      <point x="341" y="408" type="curve" smooth="yes"/>
      <point x="299" y="408"/>
      <point x="247" y="370"/>
      <point x="232" y="275" type="curve"/>
      <point x="217" y="386" type="line"/>
      <point x="246" y="485"/>
      <point x="326" y="534"/>
      <point x="414" y="534" type="curve" smooth="yes"/>
      <point x="502" y="534"/>
      <point x="564" y="475"/>
    </contour>
    <contour>
      <point x="893" y="354" type="curve" smooth="yes"/>
      <point x="893" y="103" type="line" smooth="yes"/>
      <point x="893" y="67"/>
      <point x="902" y="44"/>
      <point x="925" y="32" type="curve"/>
      <point x="904" y="7"/>
      <point x="875" y="-11"/>
      <point x="834" y="-11" type="curve" smooth="yes"/>
      <point x="766" y="-11"/>
      <point x="736" y="28"/>
      <point x="736" y="108" type="curve" smooth="yes"/>
      <point x="736" y="331" type="line" smooth="yes"/>
      <point x="736" y="379"/>
      <point x="712" y="408"/>
      <point x="670" y="408" type="curve" smooth="yes"/>
      <point x="628" y="408"/>
      <point x="576" y="370"/>
      <point x="560" y="275" type="curve"/>
      <point x="546" y="386" type="line"/>
      <point x="575" y="485"/>
      <point x="655" y="534"/>
      <point x="743" y="534" type="curve" smooth="yes"/>
      <point x="830" y="534"/>
      <point x="893" y="475"/>
    </contour>
  </outline>
</glyph>
<glyph name="n" format="1">
  <advance width="636"/>
  <unicode hex="006E"/>
  <outline>
    <contour>
      <point x="325" y="523" type="move" name="top"/>
    </contour>
    <contour>
      <point x="337" y="0" type="move" name="bottom"/>
    </contour>
    <contour>
      <point x="235" y="103" type="line"/>
      <point x="235" y="67"/>
      <point x="245" y="44"/>
      <point x="268" y="32" type="curve"/>
      <point x="246" y="7"/>
      <point x="217" y="-11"/>
      <point x="176" y="-11" type="curve" smooth="yes"/>
      <point x="108" y="-11"/>
      <point x="78" y="28"/>
      <point x="78" y="108" type="curve" smooth="yes"/>
      <point x="78" y="421" type="line" smooth="yes"/>
      <point x="78" y="456"/>
      <point x="67" y="479"/>
      <point x="44" y="491" type="curve"/>
      <point x="66" y="516"/>
      <point x="96" y="534"/>
      <point x="136" y="534" type="curve" smooth="yes"/>
      <point x="204" y="534"/>
      <point x="235" y="496"/>
      <point x="235" y="415" type="curve" smooth="yes"/>
    </contour>
    <contour>
      <point x="564" y="354" type="curve" smooth="yes"/>
      <point x="564" y="103" type="line" smooth="yes"/>
      <point x="564" y="67"/>
      <point x="574" y="44"/>
      <point x="596" y="32" type="curve"/>
      <point x="575" y="7"/>
      <point x="546" y="-11"/>
      <point x="505" y="-11" type="curve" smooth="yes"/>
      <point x="437" y="-11"/>
      <point x="407" y="28"/>
      <point x="407" y="108" type="curve" smooth="yes"/>
      <point x="407" y="331" type="line" smooth="yes"/>
      <point x="407" y="379"/>
      <point x="383" y="408"/>
      <point x="341" y="408" type="curve" smooth="yes"/>
      <point x="299" y="408"/>
      <point x="247" y="370"/>
      <point x="232" y="275" type="curve"/>
      <point x="217" y="386" type="line"/>
      <point x="246" y="485"/>
      <point x="326" y="534"/>
      <point x="414" y="534" type="curve" smooth="yes"/>
      <point x="502" y="534"/>
      <point x="564" y="475"/>
    </contour>
  </outline>
</glyph>
<glyph name="q" format="1">
  <advance width="581"/>
  <unicode hex="0071"/>
  <outline>
    <contour>
      <point x="445" y="440" type="line"/>
      <point x="422" y="488"/>
      <point x="362" y="534"/>
      <point x="293" y="534" type="curve" smooth="yes"/>
      <point x="122" y="534"/>
      <point x="30" y="389"/>
      <point x="30" y="244" type="curve" smooth="yes"/>
      <point x="30" y="84"/>
      <point x="138" y="-11"/>
      <point x="253" y="-11" type="curve" smooth="yes"/>
      <point x="325" y="-11"/>
      <point x="377" y="30"/>
      <point x="404" y="78" type="curve"/>
      <point x="379" y="148" type="line"/>
      <point x="364" y="112"/>
      <point x="326" y="88"/>
      <point x="287" y="88" type="curve" smooth="yes"/>
      <point x="232" y="88"/>
      <point x="192" y="142"/>
      <point x="192" y="262" type="curve" smooth="yes"/>
      <point x="192" y="382"/>
      <point x="241" y="448"/>
      <point x="300" y="448" type="curve" smooth="yes"/>
      <point x="331" y="448"/>
      <point x="372" y="427"/>
      <point x="372" y="374" type="curve"/>
    </contour>
    <contour>
      <point x="529" y="534" type="line"/>
      <point x="490" y="534" type="line" smooth="yes"/>
      <point x="410" y="534"/>
      <point x="372" y="496"/>
      <point x="372" y="389" type="curve"/>
      <point x="372" y="-149" type="line" smooth="yes"/>
      <point x="372" y="-229"/>
      <point x="402" y="-268"/>
      <point x="470" y="-268" type="curve" smooth="yes"/>
      <point x="511" y="-268"/>
      <point x="540" y="-250"/>
      <point x="562" y="-224" type="curve"/>
      <point x="539" y="-212"/>
      <point x="529" y="-190"/>
      <point x="529" y="-154" type="curve" smooth="yes"/>
    </contour>
  </outline>
</glyph>
<glyph name="r" format="1">
  <advance width="493"/>
  <unicode hex="0072"/>
  <outline>
    <contour>
      <point x="247" y="500" type="move" name="top"/>
    </contour>
    <contour>
      <point x="168" y="0" type="move" name="bottom"/>
    </contour>
    <contour>
      <point x="235" y="415" type="line"/>
      <point x="235" y="496"/>
      <point x="204" y="534"/>
      <point x="136" y="534" type="curve" smooth="yes"/>
      <point x="96" y="534"/>
      <point x="66" y="516"/>
      <point x="44" y="491" type="curve"/>
      <point x="67" y="479"/>
      <point x="78" y="456"/>
      <point x="78" y="421" type="curve" smooth="yes"/>
      <point x="78" y="108" type="line" smooth="yes"/>
      <point x="78" y="28"/>
      <point x="108" y="-11"/>
      <point x="176" y="-11" type="curve" smooth="yes"/>
      <point x="217" y="-11"/>
      <point x="246" y="7"/>
      <point x="268" y="32" type="curve"/>
      <point x="245" y="44"/>
      <point x="235" y="67"/>
      <point x="235" y="103" type="curve" smooth="yes"/>
    </contour>
    <contour>
      <point x="475" y="430" type="curve" smooth="yes"/>
      <point x="475" y="496"/>
      <point x="427" y="534"/>
      <point x="367" y="534" type="curve" smooth="yes"/>
      <point x="288" y="534"/>
      <point x="242" y="485"/>
      <point x="217" y="386" type="curve"/>
      <point x="232" y="311" type="line"/>
      <point x="244" y="383"/>
      <point x="276" y="408"/>
      <point x="308" y="408" type="curve" smooth="yes"/>
      <point x="335" y="408"/>
      <point x="358" y="389"/>
      <point x="358" y="354" type="curve" smooth="yes"/>
      <point x="358" y="347"/>
      <point x="356" y="340"/>
      <point x="354" y="331" type="curve"/>
      <point x="364" y="330"/>
      <point x="372" y="329"/>
      <point x="380" y="329" type="curve" smooth="yes"/>
      <point x="446" y="329"/>
      <point x="475" y="371"/>
    </contour>
  </outline>
</glyph>
<glyph name="w" format="1">
  <advance width="899"/>
  <unicode hex="0077"/>
  <outline>
    <contour>
      <point x="211" y="421" type="curve" smooth="yes"/>
      <point x="334" y="14" type="line"/>
      <point x="267" y="78" type="line"/>
      <point x="336" y="124"/>
      <point x="392" y="290"/>
      <point x="415" y="430" type="curve"/>
      <point x="495" y="336" type="line"/>
      <point x="455" y="138"/>
      <point x="376" y="-11"/>
      <point x="292" y="-11" type="curve" smooth="yes"/>
      <point x="212" y="-11"/>
      <point x="186" y="31"/>
      <point x="155" y="115" type="curve" smooth="yes"/>
      <point x="52" y="394" type="line" smooth="yes"/>
      <point x="36" y="438"/>
      <point x="29" y="463"/>
      <point x="5" y="476" type="curve"/>
      <point x="30" y="515"/>
      <point x="61" y="534"/>
      <point x="108" y="534" type="curve" smooth="yes"/>
      <point x="160" y="534"/>
      <point x="187" y="499"/>
    </contour>
    <contour>
      <point x="542" y="421" type="curve"/>
      <point x="636" y="62" type="line"/>
      <point x="610" y="101" type="line"/>
      <point x="712" y="178"/>
      <point x="739" y="433"/>
      <point x="673" y="513" type="curve"/>
      <point x="694" y="528"/>
      <point x="738" y="534"/>
      <point x="761" y="534" type="curve" smooth="yes"/>
      <point x="813" y="534"/>
      <point x="857" y="492"/>
      <point x="857" y="389" type="curve" smooth="yes"/>
      <point x="857" y="221"/>
      <point x="710" y="-11"/>
      <point x="606" y="-11" type="curve" smooth="yes"/>
      <point x="530" y="-11"/>
      <point x="504" y="30"/>
      <point x="475" y="115" type="curve" smooth="yes"/>
      <point x="379" y="394" type="line"/>
      <point x="364" y="436"/>
      <point x="353" y="471"/>
      <point x="333" y="484" type="curve"/>
      <point x="358" y="517"/>
      <point x="387" y="534"/>
      <point x="426" y="534" type="curve" smooth="yes"/>
      <point x="491" y="534"/>
      <point x="521" y="501"/>
    </contour>
  </outline>
</glyph>
<glyph name="y" format="1">
  <advance width="625"/>
  <unicode hex="0079"/>
  <outline>
    <contour>
      <point x="293" y="523" type="move" name="top"/>
    </contour>
    <contour>
      <point x="572" y="385" type="curve" smooth="yes"/>
      <point x="381" y="-132" type="line" smooth="yes"/>
      <point x="345" y="-230"/>
      <point x="292" y="-268"/>
      <point x="223" y="-268" type="curve" smooth="yes"/>
      <point x="159" y="-268"/>
      <point x="113" y="-232"/>
      <point x="113" y="-178" type="curve" smooth="yes"/>
      <point x="113" y="-156"/>
      <point x="121" y="-136"/>
      <point x="131" y="-120" type="curve"/>
      <point x="147" y="-133"/>
      <point x="166" y="-142"/>
      <point x="185" y="-142" type="curve" smooth="yes"/>
      <point x="214" y="-142"/>
      <point x="243" y="-124"/>
      <point x="256" y="-86" type="curve" smooth="yes"/>
      <point x="428" y="422" type="line" smooth="yes"/>
      <point x="442" y="463"/>
      <point x="443" y="492"/>
      <point x="428" y="516" type="curve"/>
      <point x="445" y="527"/>
      <point x="470" y="534"/>
      <point x="493" y="534" type="curve" smooth="yes"/>
      <point x="559" y="534"/>
      <point x="608" y="482"/>
    </contour>
    <contour>
      <point x="221" y="421" type="curve" smooth="yes"/>
      <point x="334" y="8" type="line"/>
      <point x="260" y="-38"/>
      <point x="184" y="8"/>
      <point x="154" y="104" type="curve" smooth="yes"/>
      <point x="59" y="408" type="line" smooth="yes"/>
      <point x="46" y="450"/>
      <point x="38" y="473"/>
      <point x="15" y="491" type="curve"/>
      <point x="43" y="518"/>
      <point x="73" y="534"/>
      <point x="111" y="534" type="curve" smooth="yes"/>
      <point x="169" y="534"/>
      <point x="201" y="498"/>
    </contour>
  </outline>
</glyph>
<glyph name="braceleft" format="1">
  <advance width="588"/>
  <unicode hex="007B"/>
  <outline>
    <contour>
      <point x="436" y="1058" type="curve"/>
      <point x="419" y="1085"/>
      <point x="366" y="1098"/>
      <point x="338" y="1098" type="curve" smooth="yes"/>
      <point x="257" y="1098"/>
      <point x="175" y="1037"/>
      <point x="175" y="896" type="curve" smooth="yes"/>
      <point x="175" y="790"/>
      <point x="205" y="680"/>
      <point x="205" y="593" type="curve" smooth="yes"/>
      <point x="205" y="470"/>
      <point x="120" y="472"/>
      <point x="120" y="433" type="curve" smooth="yes"/>
      <point x="120" y="395"/>
      <point x="205" y="396"/>
      <point x="205" y="274" type="curve" smooth="yes"/>
      <point x="205" y="186"/>
      <point x="175" y="77"/>
      <point x="175" y="-30" type="curve" smooth="yes"/>
      <point x="175" y="-170"/>
      <point x="257" y="-232"/>
      <point x="338" y="-232" type="curve" smooth="yes"/>
      <point x="366" y="-232"/>
      <point x="419" y="-218"/>
      <point x="436" y="-192" type="curve"/>
      <point x="371" y="-176"/>
      <point x="328" y="-126"/>
      <point x="328" y="-47" type="curve" smooth="yes"/>
      <point x="328" y="24"/>
      <point x="355" y="182"/>
      <point x="355" y="257" type="curve" smooth="yes"/>
      <point x="355" y="392"/>
      <point x="256" y="432"/>
      <point x="238" y="433" type="curve"/>
      <point x="256" y="434"/>
      <point x="355" y="474"/>
      <point x="355" y="610" type="curve" smooth="yes"/>
      <point x="355" y="684"/>
      <point x="328" y="842"/>
      <point x="328" y="913" type="curve" smooth="yes"/>
      <point x="328" y="992"/>
      <point x="371" y="1043"/>
    </contour>
  </outline>
</glyph>
<glyph name="braceright" format="1">
  <advance width="588"/>
  <unicode hex="007D"/>
  <outline>
    <contour>
      <point x="380" y="896" type="curve" smooth="yes"/>
      <point x="380" y="790"/>
      <point x="350" y="680"/>
      <point x="350" y="593" type="curve" smooth="yes"/>
      <point x="350" y="470"/>
      <point x="436" y="472"/>
      <point x="436" y="433" type="curve" smooth="yes"/>
      <point x="436" y="395"/>
      <point x="350" y="396"/>
      <point x="350" y="274" type="curve" smooth="yes"/>
      <point x="350" y="186"/>
      <point x="380" y="77"/>
      <point x="380" y="-30" type="curve" smooth="yes"/>
      <point x="380" y="-170"/>
      <point x="299" y="-232"/>
      <point x="217" y="-232" type="curve" smooth="yes"/>
      <point x="190" y="-232"/>
      <point x="137" y="-218"/>
      <point x="120" y="-192" type="curve"/>
      <point x="185" y="-176"/>
      <point x="228" y="-126"/>
      <point x="228" y="-47" type="curve" smooth="yes"/>
      <point x="228" y="24"/>
      <point x="200" y="182"/>
      <point x="200" y="257" type="curve" smooth="yes"/>
      <point x="200" y="392"/>
      <point x="300" y="432"/>
      <point x="318" y="433" type="curve"/>
      <point x="300" y="434"/>
      <point x="200" y="474"/>
      <point x="200" y="610" type="curve" smooth="yes"/>
      <point x="200" y="684"/>
      <point x="228" y="842"/>
      <point x="228" y="913" type="curve" smooth="yes"/>
      <point x="228" y="992"/>
      <point x="185" y="1043"/>
      <point x="120" y="1058" type="curve"/>
      <point x="137" y="1085"/>
      <point x="190" y="1098"/>
      <point x="217" y="1098" type="curve" smooth="yes"/>
      <point x="299" y="1098"/>
      <point x="380" y="1037"/>
    </contour>
  </outline>
</glyph>
<glyph name="exclamdown" format="1">
  <advance width="349"/>
  <unicode hex="00A1"/>
  <outline>
    <contour>
      <point x="95" y="416" type="curve" smooth="yes"/>
      <point x="95" y="376"/>
      <point x="124" y="344"/>
      <point x="168" y="344" type="curve" smooth="yes"/>
      <point x="218" y="344"/>
      <point x="269" y="392"/>
      <point x="269" y="445" type="curve" smooth="yes"/>
      <point x="269" y="486"/>
      <point x="240" y="518"/>
      <point x="196" y="518" type="curve" smooth="yes"/>
      <point x="143" y="518"/>
      <point x="95" y="470"/>
    </contour>
    <contour>
      <point x="174" y="-266" type="curve" smooth="yes"/>
      <point x="240" y="-266"/>
      <point x="293" y="-202"/>
      <point x="272" y="-98" type="curve" smooth="yes"/>
      <point x="227" y="137" type="line" smooth="yes"/>
      <point x="218" y="182"/>
      <point x="215" y="232"/>
      <point x="221" y="270" type="curve"/>
      <point x="210" y="280"/>
      <point x="199" y="284"/>
      <point x="182" y="284" type="curve" smooth="yes"/>
      <point x="143" y="284"/>
      <point x="122" y="251"/>
      <point x="114" y="192" type="curve" smooth="yes"/>
      <point x="74" y="-98" type="line" smooth="yes"/>
      <point x="60" y="-203"/>
      <point x="108" y="-266"/>
    </contour>
  </outline>
</glyph>
<glyph name="sterling" format="1">
  <advance width="668"/>
  <unicode hex="00A3"/>
  <outline>
    <contour>
      <point x="600" y="642" type="curve" smooth="yes"/>
      <point x="600" y="696"/>
      <point x="550" y="746"/>
      <point x="436" y="746" type="curve" smooth="yes"/>
      <point x="289" y="746"/>
      <point x="161" y="646"/>
      <point x="161" y="491" type="curve" smooth="yes"/>
      <point x="161" y="458"/>
      <point x="161" y="440"/>
      <point x="162" y="422" type="curve"/>
      <point x="126" y="422" type="line" smooth="yes"/>
      <point x="100" y="422"/>
      <point x="36" y="422"/>
      <point x="36" y="362" type="curve" smooth="yes"/>
      <point x="36" y="354"/>
      <point x="38" y="344"/>
      <point x="41" y="341" type="curve"/>
      <point x="166" y="341" type="line"/>
      <point x="167" y="313"/>
      <point x="168" y="290"/>
      <point x="168" y="246" type="curve" smooth="yes"/>
      <point x="168" y="191"/>
      <point x="160" y="170"/>
      <point x="154" y="157" type="curve"/>
      <point x="96" y="140"/>
      <point x="61" y="95"/>
      <point x="61" y="48" type="curve" smooth="yes"/>
      <point x="61" y="24"/>
      <point x="67" y="6"/>
      <point x="76" y="-10" type="curve"/>
      <point x="115" y="23"/>
      <point x="162" y="28"/>
      <point x="210" y="28" type="curve" smooth="yes"/>
      <point x="295" y="28"/>
      <point x="379" y="-11"/>
      <point x="509" y="-11" type="curve" smooth="yes"/>
      <point x="590" y="-11"/>
      <point x="644" y="46"/>
      <point x="644" y="107" type="curve" smooth="yes"/>
      <point x="644" y="131"/>
      <point x="638" y="149"/>
      <point x="630" y="164" type="curve"/>
      <point x="594" y="132"/>
      <point x="552" y="127"/>
      <point x="509" y="127" type="curve" smooth="yes"/>
      <point x="422" y="127"/>
      <point x="366" y="152"/>
      <point x="289" y="162" type="curve"/>
      <point x="331" y="191"/>
      <point x="344" y="244"/>
      <point x="344" y="288" type="curve" smooth="yes"/>
      <point x="344" y="341" type="line"/>
      <point x="421" y="341" type="line" smooth="yes"/>
      <point x="448" y="341"/>
      <point x="511" y="341"/>
      <point x="511" y="404" type="curve" smooth="yes"/>
      <point x="511" y="409"/>
      <point x="510" y="419"/>
      <point x="506" y="422" type="curve"/>
      <point x="341" y="422" type="line"/>
      <point x="338" y="452"/>
      <point x="337" y="492"/>
      <point x="337" y="529" type="curve" smooth="yes"/>
      <point x="337" y="589"/>
      <point x="349" y="646"/>
      <point x="396" y="646" type="curve" smooth="yes"/>
      <point x="437" y="646"/>
      <point x="474" y="602"/>
      <point x="486" y="544" type="curve"/>
      <point x="552" y="547"/>
      <point x="600" y="586"/>
    </contour>
  </outline>
</glyph>
<glyph name="brokenbar" format="1">
  <advance width="377"/>
  <unicode hex="00A6"/>
  <outline>
    <contour>
      <point x="268" y="547" type="line"/>
      <point x="268" y="511"/>
      <point x="277" y="488"/>
      <point x="300" y="476" type="curve"/>
      <point x="278" y="451"/>
      <point x="250" y="433"/>
      <point x="209" y="433" type="curve" smooth="yes"/>
      <point x="140" y="433"/>
      <point x="110" y="472"/>
      <point x="110" y="552" type="curve" smooth="yes"/>
      <point x="110" y="790" type="line" smooth="yes"/>
      <point x="110" y="824"/>
      <point x="100" y="847"/>
      <point x="77" y="859" type="curve"/>
      <point x="98" y="884"/>
      <point x="128" y="902"/>
      <point x="168" y="902" type="curve" smooth="yes"/>
      <point x="236" y="902"/>
      <point x="268" y="864"/>
      <point x="268" y="784" type="curve" smooth="yes"/>
    </contour>
    <contour>
      <point x="268" y="-17" type="line"/>
      <point x="268" y="-53"/>
      <point x="277" y="-76"/>
      <point x="300" y="-88" type="curve"/>
      <point x="278" y="-113"/>
      <point x="250" y="-131"/>
      <point x="209" y="-131" type="curve" smooth="yes"/>
      <point x="140" y="-131"/>
      <point x="110" y="-92"/>
      <point x="110" y="-12" type="curve" smooth="yes"/>
      <point x="110" y="226" type="line" smooth="yes"/>
      <point x="110" y="260"/>
      <point x="100" y="283"/>
      <point x="77" y="295" type="curve"/>
      <point x="98" y="320"/>
      <point x="128" y="338"/>
      <point x="168" y="338" type="curve" smooth="yes"/>
      <point x="236" y="338"/>
      <point x="268" y="300"/>
      <point x="268" y="220" type="curve" smooth="yes"/>
    </contour>
  </outline>
</glyph>
<glyph name="ordfeminine" format="1">
  <advance width="469"/>
  <unicode hex="00AA"/>
  <outline>
    <contour>
      <point x="403" y="602" type="line"/>
      <point x="403" y="709"/>
      <point x="329" y="748"/>
      <point x="237" y="748" type="curve" smooth="yes"/>
      <point x="144" y="748"/>
      <point x="53" y="707"/>
      <point x="53" y="644" type="curve" smooth="yes"/>
      <point x="53" y="606"/>
      <point x="78" y="577"/>
      <point x="130" y="577" type="curve" smooth="yes"/>
      <point x="160" y="577"/>
      <point x="185" y="587"/>
      <point x="203" y="606" type="curve"/>
      <point x="195" y="616"/>
      <point x="190" y="630"/>
      <point x="190" y="641" type="curve" smooth="yes"/>
      <point x="190" y="663"/>
      <point x="208" y="680"/>
      <point x="232" y="680" type="curve" smooth="yes"/>
      <point x="258" y="680"/>
      <point x="275" y="664"/>
      <point x="275" y="625" type="curve" smooth="yes"/>
      <point x="275" y="402" type="line" smooth="yes"/>
      <point x="275" y="338"/>
      <point x="300" y="306"/>
      <point x="355" y="306" type="curve" smooth="yes"/>
      <point x="394" y="306"/>
      <point x="428" y="328"/>
      <point x="446" y="353" type="curve"/>
      <point x="419" y="362"/>
      <point x="403" y="384"/>
      <point x="403" y="418" type="curve" smooth="yes"/>
    </contour>
    <contour>
      <point x="286" y="496" type="curve"/>
      <point x="286" y="548" type="line"/>
      <point x="126" y="548"/>
      <point x="32" y="494"/>
      <point x="32" y="411" type="curve" smooth="yes"/>
      <point x="32" y="343"/>
      <point x="82" y="306"/>
      <point x="155" y="306" type="curve" smooth="yes"/>
      <point x="223" y="306"/>
      <point x="271" y="343"/>
      <point x="295" y="378" type="curve"/>
      <point x="288" y="435" type="line"/>
      <point x="268" y="403"/>
      <point x="243" y="386"/>
      <point x="215" y="386" type="curve" smooth="yes"/>
      <point x="189" y="386"/>
      <point x="170" y="398"/>
      <point x="170" y="426" type="curve" smooth="yes"/>
      <point x="170" y="462"/>
      <point x="198" y="494"/>
    </contour>
  </outline>
</glyph>
<glyph name="guillemotleft" format="1">
  <advance width="584"/>
  <unicode hex="00AB"/>
  <outline>
    <contour>
      <point x="559" y="541" type="curve"/>
      <point x="556" y="548"/>
      <point x="543" y="562"/>
      <point x="525" y="562" type="curve" smooth="yes"/>
      <point x="455" y="562"/>
      <point x="285" y="386"/>
      <point x="285" y="311" type="curve" smooth="yes"/>
      <point x="285" y="237"/>
      <point x="455" y="61"/>
      <point x="525" y="61" type="curve" smooth="yes"/>
      <point x="543" y="61"/>
      <point x="556" y="75"/>
      <point x="559" y="82" type="curve"/>
      <point x="463" y="209"/>
      <point x="430" y="261"/>
      <point x="430" y="311" type="curve" smooth="yes"/>
      <point x="430" y="362"/>
      <point x="463" y="413"/>
    </contour>
    <contour>
      <point x="319" y="541" type="curve"/>
      <point x="316" y="548"/>
      <point x="303" y="562"/>
      <point x="285" y="562" type="curve" smooth="yes"/>
      <point x="215" y="562"/>
      <point x="45" y="386"/>
      <point x="45" y="311" type="curve" smooth="yes"/>
      <point x="45" y="237"/>
      <point x="215" y="61"/>
      <point x="285" y="61" type="curve" smooth="yes"/>
      <point x="303" y="61"/>
      <point x="316" y="75"/>
      <point x="319" y="82" type="curve"/>
      <point x="223" y="209"/>
      <point x="190" y="261"/>
      <point x="190" y="311" type="curve" smooth="yes"/>
      <point x="190" y="362"/>
      <point x="223" y="413"/>
    </contour>
  </outline>
</glyph>
<glyph name="macron" format="1">
  <advance width="422"/>
  <unicode hex="00AF"/>
  <outline>
    <contour>
      <point x="211" y="523" type="move" name="_top"/>
    </contour>
    <contour>
      <point x="402" y="694" type="line"/>
      <point x="406" y="689"/>
      <point x="410" y="680"/>
      <point x="410" y="668" type="curve" smooth="yes"/>
      <point x="410" y="636"/>
      <point x="380" y="614"/>
      <point x="335" y="614" type="curve" smooth="yes"/>
      <point x="20" y="614" type="line"/>
      <point x="17" y="619"/>
      <point x="12" y="628"/>
      <point x="12" y="640" type="curve" smooth="yes"/>
      <point x="12" y="672"/>
      <point x="42" y="694"/>
      <point x="88" y="694" type="curve" smooth="yes"/>
    </contour>
  </outline>
</glyph>
<glyph name="degree" format="1">
  <advance width="1000"/>
  <unicode hex="00B0"/>
  <outline>
    <contour>
      <point x="263" y="896" type="curve" smooth="yes"/>
      <point x="155" y="896"/>
      <point x="78" y="826"/>
      <point x="78" y="720" type="curve" smooth="yes"/>
      <point x="78" y="614"/>
      <point x="155" y="542"/>
      <point x="263" y="542" type="curve" smooth="yes"/>
      <point x="371" y="542"/>
      <point x="448" y="614"/>
      <point x="448" y="720" type="curve" smooth="yes"/>
      <point x="448" y="826"/>
      <point x="371" y="896"/>
    </contour>
    <contour>
      <point x="263" y="641" type="curve" smooth="yes"/>
      <point x="217" y="641"/>
      <point x="190" y="674"/>
      <point x="190" y="720" type="curve" smooth="yes"/>
      <point x="190" y="766"/>
      <point x="217" y="799"/>
      <point x="263" y="799" type="curve" smooth="yes"/>
      <point x="308" y="799"/>
      <point x="336" y="767"/>
      <point x="336" y="720" type="curve" smooth="yes"/>
      <point x="336" y="674"/>
      <point x="308" y="641"/>
    </contour>
  </outline>
</glyph>
<glyph name="plusminus" format="1">
  <advance width="726"/>
  <unicode hex="00B1"/>
  <outline>
    <contour>
      <point x="180" y="107" type="line"/>
      <point x="138" y="107"/>
      <point x="36" y="107"/>
      <point x="36" y="10" type="curve" smooth="yes"/>
      <point x="36" y="-3"/>
      <point x="41" y="-19"/>
      <point x="44" y="-26" type="curve"/>
      <point x="546" y="-26" type="line" smooth="yes"/>
      <point x="588" y="-26"/>
      <point x="690" y="-26"/>
      <point x="690" y="76" type="curve" smooth="yes"/>
      <point x="690" y="86"/>
      <point x="688" y="100"/>
      <point x="684" y="107" type="curve"/>
    </contour>
    <contour>
      <point x="430" y="714" type="line"/>
      <point x="422" y="718"/>
      <point x="407" y="723"/>
      <point x="394" y="723" type="curve" smooth="yes"/>
      <point x="308" y="723"/>
      <point x="296" y="645"/>
      <point x="296" y="597" type="curve" smooth="yes"/>
      <point x="296" y="591"/>
      <point x="298" y="585"/>
      <point x="301" y="497" type="curve"/>
      <point x="191" y="501"/>
      <point x="186" y="501"/>
      <point x="181" y="501" type="curve" smooth="yes"/>
      <point x="134" y="501"/>
      <point x="52" y="492"/>
      <point x="52" y="405" type="curve" smooth="yes"/>
      <point x="52" y="392"/>
      <point x="56" y="376"/>
      <point x="60" y="369" type="curve"/>
      <point x="305" y="372" type="line"/>
      <point x="301" y="153" type="line"/>
      <point x="305" y="149"/>
      <point x="319" y="147"/>
      <point x="329" y="147" type="curve" smooth="yes"/>
      <point x="410" y="147"/>
      <point x="430" y="219"/>
      <point x="430" y="279" type="curve"/>
      <point x="430" y="282"/>
      <point x="430" y="286"/>
      <point x="426" y="372" type="curve"/>
      <point x="536" y="369"/>
      <point x="540" y="369"/>
      <point x="545" y="369" type="curve" smooth="yes"/>
      <point x="592" y="369"/>
      <point x="676" y="377"/>
      <point x="676" y="470" type="curve" smooth="yes"/>
      <point x="676" y="479"/>
      <point x="673" y="494"/>
      <point x="670" y="501" type="curve"/>
      <point x="426" y="497" type="line"/>
    </contour>
  </outline>
</glyph>
<glyph name="twosuperior" format="1">
  <advance width="434"/>
  <unicode hex="00B2"/>
  <outline>
    <contour>
      <point x="367" y="617" type="curve" smooth="yes"/>
      <point x="367" y="530"/>
      <point x="277" y="434"/>
      <point x="91" y="376" type="curve"/>
      <point x="85" y="384" type="line"/>
      <point x="160" y="397"/>
      <point x="238" y="402"/>
      <point x="281" y="402" type="curve" smooth="yes"/>
      <point x="360" y="402"/>
      <point x="386" y="377"/>
      <point x="386" y="344" type="curve" smooth="yes"/>
      <point x="386" y="329"/>
      <point x="379" y="316"/>
      <point x="371" y="305" type="curve"/>
      <point x="346" y="311"/>
      <point x="317" y="313"/>
      <point x="283" y="313" type="curve" smooth="yes"/>
      <point x="106" y="313" type="line" smooth="yes"/>
      <point x="54" y="313"/>
      <point x="25" y="342"/>
      <point x="41" y="390" type="curve"/>
      <point x="134" y="442"/>
      <point x="254" y="518"/>
      <point x="254" y="617" type="curve" smooth="yes"/>
      <point x="254" y="666"/>
      <point x="233" y="690"/>
      <point x="197" y="690" type="curve" smooth="yes"/>
      <point x="170" y="690"/>
      <point x="158" y="671"/>
      <point x="158" y="655" type="curve" smooth="yes"/>
      <point x="158" y="637"/>
      <point x="174" y="623"/>
      <point x="197" y="616" type="curve"/>
      <point x="185" y="595"/>
      <point x="163" y="581"/>
      <point x="124" y="581" type="curve" smooth="yes"/>
      <point x="85" y="581"/>
      <point x="44" y="601"/>
      <point x="44" y="643" type="curve" smooth="yes"/>
      <point x="44" y="702"/>
      <point x="125" y="746"/>
      <point x="205" y="746" type="curve" smooth="yes"/>
      <point x="308" y="746"/>
      <point x="367" y="686"/>
    </contour>
  </outline>
</glyph>
<glyph name="threesuperior" format="1">
  <advance width="382"/>
  <unicode hex="00B3"/>
  <outline>
    <contour>
      <point x="331" y="653" type="curve" smooth="yes"/>
      <point x="331" y="614"/>
      <point x="299" y="582"/>
      <point x="254" y="569" type="curve"/>
      <point x="307" y="552"/>
      <point x="352" y="508"/>
      <point x="352" y="451" type="curve" smooth="yes"/>
      <point x="352" y="378"/>
      <point x="246" y="307"/>
      <point x="168" y="307" type="curve" smooth="yes"/>
      <point x="92" y="307"/>
      <point x="30" y="341"/>
      <point x="30" y="394" type="curve" smooth="yes"/>
      <point x="30" y="438"/>
      <point x="74" y="468"/>
      <point x="85" y="468" type="curve"/>
      <point x="106" y="412"/>
      <point x="145" y="397"/>
      <point x="188" y="397" type="curve" smooth="yes"/>
      <point x="232" y="397"/>
      <point x="258" y="418"/>
      <point x="258" y="445" type="curve" smooth="yes"/>
      <point x="258" y="473"/>
      <point x="227" y="511"/>
      <point x="144" y="511" type="curve" smooth="yes"/>
      <point x="136" y="511"/>
      <point x="122" y="510"/>
      <point x="115" y="509" type="curve"/>
      <point x="109" y="514"/>
      <point x="107" y="521"/>
      <point x="107" y="527" type="curve" smooth="yes"/>
      <point x="107" y="568"/>
      <point x="216" y="575"/>
      <point x="216" y="628" type="curve" smooth="yes"/>
      <point x="216" y="655"/>
      <point x="187" y="671"/>
      <point x="154" y="671" type="curve" smooth="yes"/>
      <point x="127" y="671"/>
      <point x="107" y="664"/>
      <point x="85" y="649" type="curve"/>
      <point x="72" y="653"/>
      <point x="64" y="668"/>
      <point x="64" y="682" type="curve" smooth="yes"/>
      <point x="64" y="720"/>
      <point x="119" y="746"/>
      <point x="196" y="746" type="curve" smooth="yes"/>
      <point x="277" y="746"/>
      <point x="331" y="709"/>
    </contour>
  </outline>
</glyph>
<glyph name="acute" format="1">
  <advance width="276"/>
  <unicode hex="00B4"/>
  <outline>
    <contour>
      <point x="96" y="523" type="move" name="_top"/>
    </contour>
    <contour>
      <point x="97" y="587" type="curve"/>
      <point x="178" y="649" type="line" smooth="yes"/>
      <point x="206" y="671"/>
      <point x="229" y="674"/>
      <point x="252" y="666" type="curve"/>
      <point x="282" y="724"/>
      <point x="253" y="785"/>
      <point x="192" y="785" type="curve" smooth="yes"/>
      <point x="140" y="785"/>
      <point x="108" y="758"/>
      <point x="67" y="689" type="curve" smooth="yes"/>
      <point x="12" y="595" type="line"/>
      <point x="29" y="563"/>
      <point x="68" y="564"/>
    </contour>
  </outline>
</glyph>
<glyph name="ordmasculine" format="1">
  <advance width="467"/>
  <unicode hex="00BA"/>
  <outline>
    <contour>
      <point x="35" y="527" type="curve" smooth="yes"/>
      <point x="35" y="406"/>
      <point x="97" y="308"/>
      <point x="233" y="308" type="curve" smooth="yes"/>
      <point x="369" y="308"/>
      <point x="432" y="406"/>
      <point x="432" y="527" type="curve" smooth="yes"/>
      <point x="432" y="649"/>
      <point x="369" y="747"/>
      <point x="233" y="747" type="curve" smooth="yes"/>
      <point x="97" y="747"/>
      <point x="35" y="649"/>
    </contour>
    <contour>
      <point x="229" y="682" type="curve" smooth="yes"/>
      <point x="287" y="682"/>
      <point x="304" y="610"/>
      <point x="305" y="527" type="curve" smooth="yes"/>
      <point x="307" y="445"/>
      <point x="295" y="372"/>
      <point x="237" y="372" type="curve" smooth="yes"/>
      <point x="181" y="372"/>
      <point x="164" y="445"/>
      <point x="162" y="527" type="curve" smooth="yes"/>
      <point x="160" y="610"/>
      <point x="173" y="682"/>
    </contour>
  </outline>
</glyph>
<glyph name="onehalf" format="1">
  <advance width="770"/>
  <unicode hex="00BD"/>
  <outline>
    <contour>
      <point x="557" y="746" type="curve" smooth="yes"/>
      <point x="566" y="746"/>
      <point x="580" y="743"/>
      <point x="593" y="725" type="curve"/>
      <point x="583" y="720"/>
      <point x="575" y="701"/>
      <point x="568" y="690" type="curve" smooth="yes"/>
      <point x="151" y="30" type="line" smooth="yes"/>
      <point x="138" y="10"/>
      <point x="130" y="-8"/>
      <point x="109" y="-8" type="curve" smooth="yes"/>
      <point x="100" y="-8"/>
      <point x="85" y="-6"/>
      <point x="73" y="14" type="curve"/>
      <point x="79" y="19"/>
      <point x="91" y="36"/>
      <point x="98" y="48" type="curve" smooth="yes"/>
      <point x="515" y="710" type="line" smooth="yes"/>
      <point x="521" y="720"/>
      <point x="536" y="746"/>
    </contour>
    <contour>
      <point x="727" y="304" type="curve" smooth="yes"/>
      <point x="727" y="217"/>
      <point x="637" y="121"/>
      <point x="451" y="62" type="curve"/>
      <point x="445" y="71" type="line"/>
      <point x="520" y="84"/>
      <point x="598" y="89"/>
      <point x="641" y="89" type="curve" smooth="yes"/>
      <point x="720" y="89"/>
      <point x="746" y="64"/>
      <point x="746" y="31" type="curve" smooth="yes"/>
      <point x="746" y="16"/>
      <point x="739" y="2"/>
      <point x="731" y="-8" type="curve"/>
      <point x="706" y="-2"/>
      <point x="677" y="0"/>
      <point x="643" y="0" type="curve" smooth="yes"/>
      <point x="466" y="0" type="line" smooth="yes"/>
      <point x="414" y="0"/>
      <point x="385" y="29"/>
      <point x="401" y="77" type="curve"/>
      <point x="494" y="128"/>
      <point x="614" y="205"/>
      <point x="614" y="304" type="curve" smooth="yes"/>
      <point x="614" y="353"/>
      <point x="593" y="377"/>
      <point x="557" y="377" type="curve" smooth="yes"/>
      <point x="530" y="377"/>
      <point x="518" y="358"/>
      <point x="518" y="342" type="curve" smooth="yes"/>
      <point x="518" y="324"/>
      <point x="534" y="310"/>
      <point x="557" y="302" type="curve"/>
      <point x="545" y="282"/>
      <point x="523" y="268"/>
      <point x="484" y="268" type="curve" smooth="yes"/>
      <point x="445" y="268"/>
      <point x="404" y="288"/>
      <point x="404" y="330" type="curve" smooth="yes"/>
      <point x="404" y="389"/>
      <point x="485" y="433"/>
      <point x="565" y="433" type="curve" smooth="yes"/>
      <point x="668" y="433"/>
      <point x="727" y="373"/>
    </contour>
    <contour>
      <point x="200" y="373" type="line"/>
      <point x="200" y="352"/>
      <point x="206" y="338"/>
      <point x="221" y="332" type="curve"/>
      <point x="206" y="317"/>
      <point x="188" y="307"/>
      <point x="162" y="307" type="curve" smooth="yes"/>
      <point x="118" y="307"/>
      <point x="97" y="329"/>
      <point x="97" y="376" type="curve" smooth="yes"/>
      <point x="97" y="659" type="line" smooth="yes"/>
      <point x="97" y="671"/>
      <point x="91" y="677"/>
      <point x="80" y="677" type="curve" smooth="yes"/>
      <point x="68" y="677"/>
      <point x="55" y="672"/>
      <point x="44" y="664" type="curve"/>
      <point x="35" y="667"/>
      <point x="30" y="676"/>
      <point x="30" y="684" type="curve" smooth="yes"/>
      <point x="30" y="712"/>
      <point x="73" y="746"/>
      <point x="133" y="746" type="curve" smooth="yes"/>
      <point x="178" y="746"/>
      <point x="200" y="721"/>
      <point x="200" y="684" type="curve" smooth="yes"/>
    </contour>
  </outline>
</glyph>
<glyph name="threequarters" format="1">
  <advance width="731"/>
  <unicode hex="00BE"/>
  <outline>
    <contour>
      <point x="655" y="364" type="curve" smooth="yes"/>
      <point x="655" y="60" type="line" smooth="yes"/>
      <point x="655" y="38"/>
      <point x="661" y="25"/>
      <point x="676" y="19" type="curve"/>
      <point x="661" y="4"/>
      <point x="643" y="-6"/>
      <point x="617" y="-6" type="curve" smooth="yes"/>
      <point x="572" y="-6"/>
      <point x="550" y="16"/>
      <point x="550" y="62" type="curve" smooth="yes"/>
      <point x="550" y="312" type="line" smooth="yes"/>
      <point x="550" y="316"/>
      <point x="550" y="322"/>
      <point x="542" y="322" type="curve" smooth="yes"/>
      <point x="524" y="322"/>
      <point x="455" y="218"/>
      <point x="455" y="179" type="curve" smooth="yes"/>
      <point x="455" y="169"/>
      <point x="462" y="166"/>
      <point x="479" y="166" type="curve" smooth="yes"/>
      <point x="676" y="166" type="line" smooth="yes"/>
      <point x="689" y="166"/>
      <point x="709" y="167"/>
      <point x="721" y="176" type="curve"/>
      <point x="727" y="170"/>
      <point x="733" y="162"/>
      <point x="733" y="149" type="curve" smooth="yes"/>
      <point x="733" y="124"/>
      <point x="708" y="103"/>
      <point x="668" y="103" type="curve" smooth="yes"/>
      <point x="431" y="103" type="line" smooth="yes"/>
      <point x="389" y="103"/>
      <point x="372" y="120"/>
      <point x="372" y="148" type="curve" smooth="yes"/>
      <point x="372" y="210"/>
      <point x="508" y="433"/>
      <point x="596" y="433" type="curve" smooth="yes"/>
      <point x="637" y="433"/>
      <point x="655" y="409"/>
    </contour>
    <contour>
      <point x="331" y="653" type="curve" smooth="yes"/>
      <point x="331" y="614"/>
      <point x="299" y="582"/>
      <point x="254" y="569" type="curve"/>
      <point x="307" y="552"/>
      <point x="352" y="508"/>
      <point x="352" y="451" type="curve" smooth="yes"/>
      <point x="352" y="378"/>
      <point x="246" y="307"/>
      <point x="168" y="307" type="curve" smooth="yes"/>
      <point x="92" y="307"/>
      <point x="30" y="341"/>
      <point x="30" y="394" type="curve" smooth="yes"/>
      <point x="30" y="438"/>
      <point x="74" y="468"/>
      <point x="85" y="468" type="curve"/>
      <point x="106" y="412"/>
      <point x="145" y="397"/>
      <point x="188" y="397" type="curve" smooth="yes"/>
      <point x="232" y="397"/>
      <point x="258" y="418"/>
      <point x="258" y="445" type="curve" smooth="yes"/>
      <point x="258" y="473"/>
      <point x="227" y="511"/>
      <point x="144" y="511" type="curve" smooth="yes"/>
      <point x="136" y="511"/>
      <point x="122" y="510"/>
      <point x="115" y="509" type="curve"/>
      <point x="109" y="514"/>
      <point x="107" y="521"/>
      <point x="107" y="527" type="curve" smooth="yes"/>
      <point x="107" y="568"/>
      <point x="216" y="575"/>
      <point x="216" y="628" type="curve" smooth="yes"/>
      <point x="216" y="655"/>
      <point x="187" y="671"/>
      <point x="154" y="671" type="curve" smooth="yes"/>
      <point x="127" y="671"/>
      <point x="107" y="664"/>
      <point x="85" y="649" type="curve"/>
      <point x="72" y="653"/>
      <point x="64" y="668"/>
      <point x="64" y="682" type="curve" smooth="yes"/>
      <point x="64" y="720"/>
      <point x="119" y="746"/>
      <point x="196" y="746" type="curve" smooth="yes"/>
      <point x="277" y="746"/>
      <point x="331" y="709"/>
    </contour>
    <contour>
      <point x="643" y="746" type="curve" smooth="yes"/>
      <point x="662" y="746"/>
      <point x="678" y="734"/>
      <point x="684" y="721" type="curve"/>
      <point x="668" y="716"/>
      <point x="660" y="708"/>
      <point x="648" y="690" type="curve" smooth="yes"/>
      <point x="197" y="30" type="line" smooth="yes"/>
      <point x="180" y="5"/>
      <point x="167" y="-8"/>
      <point x="149" y="-8" type="curve" smooth="yes"/>
      <point x="130" y="-8"/>
      <point x="114" y="4"/>
      <point x="108" y="17" type="curve"/>
      <point x="124" y="22"/>
      <point x="132" y="30"/>
      <point x="144" y="48" type="curve" smooth="yes"/>
      <point x="595" y="708" type="line" smooth="yes"/>
      <point x="612" y="733"/>
      <point x="625" y="746"/>
    </contour>
  </outline>
</glyph>
<glyph name="Eth" format="1">
  <advance width="839"/>
  <unicode hex="00D0"/>
  <outline>
    <contour>
      <point x="446" y="392" type="curve" smooth="yes"/>
      <point x="446" y="397"/>
      <point x="445" y="407"/>
      <point x="442" y="410" type="curve"/>
      <point x="85" y="410" type="line" smooth="yes"/>
      <point x="59" y="410"/>
      <point x="-5" y="410"/>
      <point x="-5" y="350" type="curve" smooth="yes"/>
      <point x="-5" y="342"/>
      <point x="-2" y="332"/>
      <point x="0" y="329" type="curve"/>
      <point x="356" y="329" type="line" smooth="yes"/>
      <point x="383" y="329"/>
      <point x="446" y="329"/>
    </contour>
    <component base="D"/>
  </outline>
</glyph>
<glyph name="Oslash" format="1">
  <advance width="832"/>
  <unicode hex="00D8"/>
  <outline>
    <contour>
      <point x="761" y="746" type="curve" smooth="yes"/>
      <point x="738" y="746"/>
      <point x="716" y="733"/>
      <point x="690" y="704" type="curve" smooth="yes"/>
      <point x="116" y="86" type="line" smooth="yes"/>
      <point x="98" y="67"/>
      <point x="71" y="38"/>
      <point x="42" y="23" type="curve"/>
      <point x="47" y="0"/>
      <point x="65" y="-11"/>
      <point x="82" y="-11" type="curve" smooth="yes"/>
      <point x="104" y="-11"/>
      <point x="125" y="1"/>
      <point x="152" y="31" type="curve" smooth="yes"/>
      <point x="726" y="649" type="line" smooth="yes"/>
      <point x="744" y="668"/>
      <point x="772" y="697"/>
      <point x="800" y="713" type="curve"/>
      <point x="796" y="736"/>
      <point x="778" y="746"/>
    </contour>
    <component base="O" yOffset="1"/>
  </outline>
</glyph>
<glyph name="Thorn" format="1">
  <advance width="679"/>
  <unicode hex="00DE"/>
  <outline>
    <contour>
      <point x="268" y="103" type="line"/>
      <point x="268" y="67"/>
      <point x="277" y="44"/>
      <point x="300" y="32" type="curve"/>
      <point x="278" y="7"/>
      <point x="250" y="-11"/>
      <point x="209" y="-11" type="curve" smooth="yes"/>
      <point x="140" y="-11"/>
      <point x="110" y="28"/>
      <point x="110" y="108" type="curve" smooth="yes"/>
      <point x="110" y="634" type="line" smooth="yes"/>
      <point x="110" y="668"/>
      <point x="100" y="691"/>
      <point x="77" y="703" type="curve"/>
      <point x="98" y="728"/>
      <point x="128" y="746"/>
      <point x="168" y="746" type="curve" smooth="yes"/>
      <point x="236" y="746"/>
      <point x="268" y="708"/>
      <point x="268" y="628" type="curve" smooth="yes"/>
    </contour>
    <contour>
      <point x="667" y="401" type="curve" smooth="yes"/>
      <point x="667" y="265"/>
      <point x="548" y="178"/>
      <point x="407" y="178" type="curve" smooth="yes"/>
      <point x="350" y="178"/>
      <point x="292" y="191"/>
      <point x="256" y="209" type="curve"/>
      <point x="256" y="302" type="line"/>
      <point x="293" y="286"/>
      <point x="330" y="278"/>
      <point x="371" y="278" type="curve" smooth="yes"/>
      <point x="450" y="278"/>
      <point x="508" y="324"/>
      <point x="508" y="401" type="curve" smooth="yes"/>
      <point x="508" y="478"/>
      <point x="450" y="523"/>
      <point x="371" y="523" type="curve" smooth="yes"/>
      <point x="330" y="523"/>
      <point x="293" y="516"/>
      <point x="256" y="499" type="curve"/>
      <point x="256" y="593" type="line"/>
      <point x="292" y="611"/>
      <point x="350" y="624"/>
      <point x="407" y="624" type="curve" smooth="yes"/>
      <point x="548" y="624"/>
      <point x="667" y="536"/>
    </contour>
  </outline>
</glyph>
<glyph name="germandbls" format="1">
  <advance width="660"/>
  <unicode hex="00DF"/>
  <outline>
    <contour>
      <point x="542" y="547" type="curve" smooth="yes"/>
      <point x="542" y="473"/>
      <point x="492" y="425"/>
      <point x="430" y="392" type="curve"/>
      <point x="419" y="444" type="line"/>
      <point x="518" y="370" type="line" smooth="yes"/>
      <point x="596" y="313"/>
      <point x="624" y="253"/>
      <point x="624" y="191" type="curve" smooth="yes"/>
      <point x="624" y="78"/>
      <point x="550" y="-11"/>
      <point x="431" y="-11" type="curve" smooth="yes"/>
      <point x="343" y="-11"/>
      <point x="307" y="40"/>
      <point x="307" y="84" type="curve" smooth="yes"/>
      <point x="307" y="92"/>
      <point x="310" y="108"/>
      <point x="313" y="116" type="curve"/>
      <point x="332" y="102"/>
      <point x="359" y="94"/>
      <point x="386" y="94" type="curve" smooth="yes"/>
      <point x="433" y="94"/>
      <point x="462" y="118"/>
      <point x="462" y="162" type="curve" smooth="yes"/>
      <point x="462" y="203"/>
      <point x="448" y="227"/>
      <point x="402" y="269" type="curve" smooth="yes"/>
      <point x="325" y="340"/>
      <point x="295" y="365"/>
      <point x="295" y="384" type="curve"/>
      <point x="295" y="410"/>
      <point x="380" y="444"/>
      <point x="380" y="544" type="curve" smooth="yes"/>
      <point x="380" y="601"/>
      <point x="346" y="631"/>
      <point x="307" y="631" type="curve" smooth="yes"/>
      <point x="263" y="631"/>
      <point x="223" y="604"/>
      <point x="223" y="529" type="curve" smooth="yes"/>
      <point x="223" y="103" type="line" smooth="yes"/>
      <point x="223" y="67"/>
      <point x="233" y="44"/>
      <point x="256" y="32" type="curve"/>
      <point x="234" y="7"/>
      <point x="205" y="-11"/>
      <point x="164" y="-11" type="curve" smooth="yes"/>
      <point x="96" y="-11"/>
      <point x="66" y="28"/>
      <point x="66" y="108" type="curve" smooth="yes"/>
      <point x="66" y="529" type="line" smooth="yes"/>
      <point x="66" y="661"/>
      <point x="167" y="727"/>
      <point x="311" y="727" type="curve" smooth="yes"/>
      <point x="455" y="727"/>
      <point x="542" y="642"/>
    </contour>
  </outline>
</glyph>
<glyph name="divide" format="1">
  <advance width="748"/>
  <unicode hex="00F7"/>
  <outline>
    <contour>
      <point x="200" y="390" type="line"/>
      <point x="158" y="390"/>
      <point x="55" y="390"/>
      <point x="55" y="292" type="curve" smooth="yes"/>
      <point x="55" y="278"/>
      <point x="60" y="263"/>
      <point x="63" y="256" type="curve"/>
      <point x="548" y="256" type="line" smooth="yes"/>
      <point x="590" y="256"/>
      <point x="693" y="256"/>
      <point x="693" y="359" type="curve" smooth="yes"/>
      <point x="693" y="368"/>
      <point x="691" y="383"/>
      <point x="687" y="390" type="curve"/>
    </contour>
    <contour>
      <point x="474" y="118" type="curve" smooth="yes"/>
      <point x="474" y="163"/>
      <point x="441" y="198"/>
      <point x="393" y="198" type="curve" smooth="yes"/>
      <point x="337" y="198"/>
      <point x="282" y="145"/>
      <point x="282" y="86" type="curve" smooth="yes"/>
      <point x="282" y="42"/>
      <point x="314" y="6"/>
      <point x="362" y="6" type="curve" smooth="yes"/>
      <point x="421" y="6"/>
      <point x="474" y="59"/>
    </contour>
    <contour>
      <point x="474" y="562" type="curve" smooth="yes"/>
      <point x="474" y="607"/>
      <point x="441" y="642"/>
      <point x="393" y="642" type="curve" smooth="yes"/>
      <point x="337" y="642"/>
      <point x="282" y="589"/>
      <point x="282" y="530" type="curve" smooth="yes"/>
      <point x="282" y="486"/>
      <point x="314" y="450"/>
      <point x="362" y="450" type="curve" smooth="yes"/>
      <point x="421" y="450"/>
      <point x="474" y="503"/>
    </contour>
  </outline>
</glyph>
<glyph name="oslash" format="1">
  <advance width="615"/>
  <unicode hex="00F8"/>
  <outline>
    <contour>
      <point x="546" y="534" type="curve" smooth="yes"/>
      <point x="523" y="534"/>
      <point x="501" y="521"/>
      <point x="475" y="492" type="curve" smooth="yes"/>
      <point x="104" y="83" type="line" smooth="yes"/>
      <point x="86" y="64"/>
      <point x="59" y="35"/>
      <point x="30" y="19" type="curve"/>
      <point x="35" y="-4"/>
      <point x="53" y="-11"/>
      <point x="69" y="-11" type="curve" smooth="yes"/>
      <point x="92" y="-11"/>
      <point x="114" y="2"/>
      <point x="140" y="31" type="curve" smooth="yes"/>
      <point x="511" y="440" type="line" smooth="yes"/>
      <point x="529" y="460"/>
      <point x="557" y="488"/>
      <point x="585" y="504" type="curve"/>
      <point x="581" y="527"/>
      <point x="563" y="534"/>
    </contour>
    <component base="o" xOffset="1"/>
  </outline>
</glyph>
<glyph name="thorn" format="1">
  <advance width="625"/>
  <unicode hex="00FE"/>
  <outline>
    <contour>
      <point x="235" y="665" type="line"/>
      <point x="235" y="745"/>
      <point x="204" y="784"/>
      <point x="136" y="784" type="curve" smooth="yes"/>
      <point x="96" y="784"/>
      <point x="66" y="766"/>
      <point x="44" y="740" type="curve"/>
      <point x="67" y="728"/>
      <point x="78" y="706"/>
      <point x="78" y="671" type="curve" smooth="yes"/>
      <point x="78" y="-148" type="line" smooth="yes"/>
      <point x="78" y="-228"/>
      <point x="108" y="-266"/>
      <point x="176" y="-266" type="curve" smooth="yes"/>
      <point x="217" y="-266"/>
      <point x="246" y="-248"/>
      <point x="268" y="-223" type="curve"/>
      <point x="245" y="-211"/>
      <point x="235" y="-188"/>
      <point x="235" y="-152" type="curve" smooth="yes"/>
    </contour>
    <contour>
      <point x="586" y="262" type="curve" smooth="yes"/>
      <point x="586" y="442"/>
      <point x="490" y="534"/>
      <point x="377" y="534" type="curve" smooth="yes"/>
      <point x="314" y="534"/>
      <point x="262" y="508"/>
      <point x="226" y="456" type="curve"/>
      <point x="227" y="343" type="line"/>
      <point x="245" y="396"/>
      <point x="286" y="427"/>
      <point x="326" y="427" type="curve" smooth="yes"/>
      <point x="377" y="427"/>
      <point x="428" y="373"/>
      <point x="428" y="262" type="curve" smooth="yes"/>
      <point x="428" y="150"/>
      <point x="377" y="80"/>
      <point x="326" y="80" type="curve" smooth="yes"/>
      <point x="286" y="80"/>
      <point x="256" y="95"/>
      <point x="227" y="137" type="curve"/>
      <point x="220" y="35" type="line"/>
      <point x="258" y="4"/>
      <point x="304" y="-11"/>
      <point x="348" y="-11" type="curve" smooth="yes"/>
      <point x="463" y="-11"/>
      <point x="586" y="82"/>
    </contour>
  </outline>
</glyph>
<glyph name="Lslash" format="1">
  <advance width="590"/>
  <unicode hex="0141"/>
  <outline>
    <contour>
      <point x="403" y="557" type="curve" smooth="yes"/>
      <point x="401" y="562"/>
      <point x="396" y="570"/>
      <point x="391" y="571" type="curve"/>
      <point x="70" y="418" type="line" smooth="yes"/>
      <point x="46" y="406"/>
      <point x="-12" y="380"/>
      <point x="13" y="325" type="curve" smooth="yes"/>
      <point x="17" y="318"/>
      <point x="31" y="311"/>
      <point x="35" y="308" type="curve"/>
      <point x="356" y="463" type="line" smooth="yes"/>
      <point x="380" y="475"/>
      <point x="430" y="499"/>
    </contour>
    <component base="L" xOffset="1"/>
  </outline>
</glyph>
<glyph name="lslash" format="1">
  <advance width="415"/>
  <unicode hex="0142"/>
  <outline>
    <contour>
      <point x="402" y="544" type="curve" smooth="yes"/>
      <point x="400" y="548"/>
      <point x="395" y="557"/>
      <point x="390" y="558" type="curve"/>
      <point x="68" y="404" type="line" smooth="yes"/>
      <point x="44" y="392"/>
      <point x="-13" y="367"/>
      <point x="12" y="312" type="curve" smooth="yes"/>
      <point x="16" y="305"/>
      <point x="30" y="298"/>
      <point x="34" y="295" type="curve"/>
      <point x="355" y="450" type="line" smooth="yes"/>
      <point x="379" y="462"/>
      <point x="428" y="486"/>
    </contour>
    <component base="l" xOffset="43"/>
  </outline>
</glyph>
<glyph name="oe" format="1">
  <advance width="892"/>
  <unicode hex="0153"/>
  <outline>
    <contour>
      <point x="208" y="262" type="curve" smooth="yes"/>
      <point x="198" y="406"/>
      <point x="232" y="458"/>
      <point x="292" y="458" type="curve" smooth="yes"/>
      <point x="352" y="458"/>
      <point x="392" y="406"/>
      <point x="402" y="262" type="curve" smooth="yes"/>
      <point x="412" y="118"/>
      <point x="378" y="65"/>
      <point x="318" y="65" type="curve" smooth="yes"/>
      <point x="258" y="65"/>
      <point x="217" y="118"/>
    </contour>
    <contour>
      <point x="492" y="462" type="curve"/>
      <point x="446" y="510"/>
      <point x="380" y="534"/>
      <point x="305" y="534" type="curve" smooth="yes"/>
      <point x="157" y="534"/>
      <point x="48" y="442"/>
      <point x="48" y="262" type="curve" smooth="yes"/>
      <point x="48" y="82"/>
      <point x="157" y="-11"/>
      <point x="305" y="-11" type="curve" smooth="yes"/>
      <point x="373" y="-11"/>
      <point x="433" y="9"/>
      <point x="478" y="48" type="curve"/>
      <point x="521" y="10"/>
      <point x="582" y="-11"/>
      <point x="658" y="-11" type="curve" smooth="yes"/>
      <point x="763" y="-11"/>
      <point x="848" y="58"/>
      <point x="848" y="119" type="curve" smooth="yes"/>
      <point x="848" y="137"/>
      <point x="840" y="155"/>
      <point x="826" y="161" type="curve"/>
      <point x="794" y="126"/>
      <point x="752" y="98"/>
      <point x="686" y="98" type="curve" smooth="yes"/>
      <point x="614" y="98"/>
      <point x="562" y="140"/>
      <point x="562" y="259" type="curve" smooth="yes"/>
      <point x="562" y="390"/>
      <point x="605" y="451"/>
      <point x="650" y="451" type="curve" smooth="yes"/>
      <point x="683" y="451"/>
      <point x="706" y="416"/>
      <point x="706" y="374" type="curve" smooth="yes"/>
      <point x="706" y="342"/>
      <point x="691" y="334"/>
      <point x="670" y="331" type="curve" smooth="yes"/>
      <point x="545" y="316" type="line"/>
      <point x="545" y="241" type="line"/>
      <point x="746" y="247" type="line" smooth="yes"/>
      <point x="829" y="250"/>
      <point x="862" y="278"/>
      <point x="862" y="352" type="curve" smooth="yes"/>
      <point x="862" y="442"/>
      <point x="782" y="534"/>
      <point x="664" y="534" type="curve" smooth="yes"/>
      <point x="596" y="534"/>
      <point x="536" y="507"/>
    </contour>
  </outline>
</glyph>
<glyph name="ring" format="1">
  <advance width="252"/>
  <unicode hex="02DA"/>
  <outline>
    <contour>
      <point x="126" y="523" type="move" name="_top"/>
    </contour>
    <contour>
      <point x="126" y="775" type="curve" smooth="yes"/>
      <point x="188" y="775"/>
      <point x="240" y="744"/>
      <point x="240" y="680" type="curve" smooth="yes"/>
      <point x="240" y="617"/>
      <point x="188" y="586"/>
      <point x="126" y="586" type="curve" smooth="yes"/>
      <point x="64" y="586"/>
      <point x="12" y="617"/>
      <point x="12" y="680" type="curve" smooth="yes"/>
      <point x="12" y="744"/>
      <point x="64" y="775"/>
    </contour>
    <contour>
      <point x="120" y="738" type="curve" smooth="yes"/>
      <point x="95" y="738"/>
      <point x="80" y="722"/>
      <point x="85" y="680" type="curve" smooth="yes"/>
      <point x="89" y="638"/>
      <point x="106" y="623"/>
      <point x="132" y="623" type="curve" smooth="yes"/>
      <point x="157" y="623"/>
      <point x="170" y="638"/>
      <point x="167" y="680" type="curve" smooth="yes"/>
      <point x="163" y="722"/>
      <point x="146" y="738"/>
    </contour>
  </outline>
</glyph>
<glyph name="pi" format="1">
  <advance width="740"/>
  <unicode hex="03C0"/>
  <outline>
    <contour>
      <point x="274" y="475" type="line"/>
      <point x="274" y="103" type="line" smooth="yes"/>
      <point x="274" y="67"/>
      <point x="283" y="44"/>
      <point x="306" y="32" type="curve"/>
      <point x="284" y="7"/>
      <point x="256" y="-11"/>
      <point x="215" y="-11" type="curve" smooth="yes"/>
      <point x="146" y="-11"/>
      <point x="116" y="28"/>
      <point x="116" y="108" type="curve" smooth="yes"/>
      <point x="116" y="475" type="line"/>
    </contour>
    <contour>
      <point x="599" y="475" type="line"/>
      <point x="599" y="103" type="line" smooth="yes"/>
      <point x="599" y="67"/>
      <point x="608" y="44"/>
      <point x="631" y="32" type="curve"/>
      <point x="610" y="7"/>
      <point x="581" y="-11"/>
      <point x="540" y="-11" type="curve" smooth="yes"/>
      <point x="472" y="-11"/>
      <point x="442" y="28"/>
      <point x="442" y="108" type="curve" smooth="yes"/>
      <point x="442" y="475" type="line"/>
    </contour>
    <contour>
      <point x="609" y="523" type="line"/>
      <point x="685" y="523"/>
      <point x="705" y="489"/>
      <point x="705" y="446" type="curve" smooth="yes"/>
      <point x="705" y="427"/>
      <point x="693" y="404"/>
      <point x="680" y="388" type="curve"/>
      <point x="646" y="403"/>
      <point x="614" y="406"/>
      <point x="562" y="406" type="curve" smooth="yes"/>
      <point x="126" y="406" type="line" smooth="yes"/>
      <point x="50" y="406"/>
      <point x="30" y="440"/>
      <point x="30" y="483" type="curve" smooth="yes"/>
      <point x="30" y="502"/>
      <point x="42" y="525"/>
      <point x="55" y="541" type="curve"/>
      <point x="89" y="526"/>
      <point x="121" y="523"/>
      <point x="173" y="523" type="curve" smooth="yes"/>
    </contour>
  </outline>
</glyph>
<glyph name="dvCandrabindu" format="1">
  <advance width="0"/>
  <unicode hex="0901"/>
  <outline>
    <contour>
      <point x="-220" y="669" type="move" name="_abvm.bindu"/>
    </contour>
    <contour>
      <point x="-146" y="913" type="curve" smooth="yes"/>
      <point x="-106" y="913"/>
      <point x="-79" y="943"/>
      <point x="-79" y="980" type="curve" smooth="yes"/>
      <point x="-79" y="1029"/>
      <point x="-125" y="1073"/>
      <point x="-172" y="1073" type="curve" smooth="yes"/>
      <point x="-212" y="1073"/>
      <point x="-239" y="1044"/>
      <point x="-239" y="1006" type="curve" smooth="yes"/>
      <point x="-239" y="957"/>
      <point x="-195" y="913"/>
    </contour>
    <contour>
      <point x="-319" y="933" type="curve"/>
      <point x="-340" y="922"/>
      <point x="-347" y="905"/>
      <point x="-347" y="889" type="curve" smooth="yes"/>
      <point x="-347" y="827"/>
      <point x="-241" y="747"/>
      <point x="-111" y="747" type="curve" smooth="yes"/>
      <point x="-43" y="747"/>
      <point x="64" y="784"/>
      <point x="64" y="865" type="curve" smooth="yes"/>
      <point x="64" y="907"/>
      <point x="27" y="938"/>
      <point x="-6" y="940" type="curve"/>
      <point x="-36" y="877"/>
      <point x="-98" y="850"/>
      <point x="-157" y="850" type="curve" smooth="yes"/>
      <point x="-220" y="850"/>
      <point x="-278" y="877"/>
    </contour>
  </outline>
</glyph>
<glyph name="dvAnusvara" format="1">
  <advance width="0"/>
  <unicode hex="0902"/>
  <outline>
    <contour>
      <point x="-220" y="669" type="move" name="_abvm.bindu"/>
    </contour>
    <contour>
      <point x="-142" y="745" type="curve" smooth="yes"/>
      <point x="-102" y="745"/>
      <point x="-75" y="775"/>
      <point x="-75" y="812" type="curve" smooth="yes"/>
      <point x="-75" y="861"/>
      <point x="-121" y="905"/>
      <point x="-168" y="905" type="curve" smooth="yes"/>
      <point x="-208" y="905"/>
      <point x="-235" y="876"/>
      <point x="-235" y="838" type="curve" smooth="yes"/>
      <point x="-235" y="789"/>
      <point x="-191" y="745"/>
    </contour>
  </outline>
</glyph>
<glyph name="dvVisarga" format="1">
  <advance width="371"/>
  <unicode hex="0903"/>
  <outline>
    <contour>
      <point x="209" y="374" type="curve" smooth="yes"/>
      <point x="249" y="374"/>
      <point x="276" y="404"/>
      <point x="276" y="441" type="curve" smooth="yes"/>
      <point x="276" y="490"/>
      <point x="230" y="534"/>
      <point x="183" y="534" type="curve" smooth="yes"/>
      <point x="143" y="534"/>
      <point x="116" y="505"/>
      <point x="116" y="467" type="curve" smooth="yes"/>
      <point x="116" y="418"/>
      <point x="160" y="374"/>
    </contour>
    <contour>
      <point x="209" y="50" type="curve" smooth="yes"/>
      <point x="249" y="50"/>
      <point x="276" y="80"/>
      <point x="276" y="117" type="curve" smooth="yes"/>
      <point x="276" y="166"/>
      <point x="230" y="210"/>
      <point x="183" y="210" type="curve" smooth="yes"/>
      <point x="143" y="210"/>
      <point x="116" y="181"/>
      <point x="116" y="143" type="curve" smooth="yes"/>
      <point x="116" y="94"/>
      <point x="160" y="50"/>
    </contour>
  </outline>
</glyph>
<glyph name="dvU" format="1">
  <advance width="521"/>
  <unicode hex="0909"/>
  <outline>
    <contour>
      <point x="234" y="669" type="move" name="abvm.bindu"/>
    </contour>
    <contour>
      <point x="-50" y="669" type="line"/>
      <point x="-53" y="663"/>
      <point x="-55" y="650"/>
      <point x="-55" y="642" type="curve" smooth="yes"/>
      <point x="-55" y="552"/>
      <point x="35" y="552"/>
      <point x="71" y="552" type="curve" smooth="yes"/>
      <point x="577" y="552" type="line"/>
      <point x="580" y="558"/>
      <point x="584" y="572"/>
      <point x="584" y="584" type="curve" smooth="yes"/>
      <point x="584" y="669"/>
      <point x="494" y="669"/>
      <point x="458" y="669" type="curve" smooth="yes"/>
    </contour>
    <contour>
      <point x="338" y="305" type="line"/>
      <point x="345" y="301"/>
      <point x="367" y="278"/>
      <point x="367" y="244" type="curve" smooth="yes"/>
      <point x="367" y="190"/>
      <point x="323" y="162"/>
      <point x="274" y="162" type="curve" smooth="yes"/>
      <point x="175" y="162"/>
      <point x="104" y="251"/>
      <point x="65" y="331" type="curve"/>
      <point x="52" y="328"/>
      <point x="23" y="318"/>
      <point x="23" y="282" type="curve" smooth="yes"/>
      <point x="23" y="224"/>
      <point x="145" y="44"/>
      <point x="313" y="44" type="curve" smooth="yes"/>
      <point x="421" y="44"/>
      <point x="475" y="110"/>
      <point x="475" y="187" type="curve" smooth="yes"/>
      <point x="475" y="300"/>
      <point x="349" y="436"/>
      <point x="240" y="436" type="curve" smooth="yes"/>
      <point x="199" y="436"/>
      <point x="157" y="413"/>
      <point x="157" y="372" type="curve" smooth="yes"/>
      <point x="157" y="319"/>
      <point x="213" y="289"/>
      <point x="276" y="289" type="curve" smooth="yes"/>
      <point x="357" y="289"/>
      <point x="448" y="338"/>
      <point x="448" y="450" type="curve" smooth="yes"/>
      <point x="448" y="506"/>
      <point x="419" y="557"/>
      <point x="379" y="594" type="curve"/>
      <point x="303" y="565" type="line"/>
      <point x="331" y="557"/>
      <point x="346" y="527"/>
      <point x="346" y="495" type="curve" smooth="yes"/>
      <point x="346" y="456"/>
      <point x="314" y="412"/>
      <point x="249" y="399" type="curve"/>
    </contour>
  </outline>
</glyph>
<glyph name="dvUU" format="1">
  <advance width="777"/>
  <unicode hex="090A"/>
  <outline>
    <contour>
      <point x="332" y="669" type="move" name="abvm.bindu"/>
    </contour>
    <contour>
      <point x="-50" y="669" type="line"/>
      <point x="-53" y="663"/>
      <point x="-55" y="650"/>
      <point x="-55" y="642" type="curve" smooth="yes"/>
      <point x="-55" y="552"/>
      <point x="35" y="552"/>
      <point x="71" y="552" type="curve" smooth="yes"/>
      <point x="815" y="552" type="line"/>
      <point x="818" y="558"/>
      <point x="822" y="572"/>
      <point x="822" y="584" type="curve" smooth="yes"/>
      <point x="822" y="669"/>
      <point x="732" y="669"/>
      <point x="696" y="669" type="curve" smooth="yes"/>
    </contour>
    <contour>
      <point x="338" y="305" type="line"/>
      <point x="345" y="301"/>
      <point x="367" y="278"/>
      <point x="367" y="244" type="curve" smooth="yes"/>
      <point x="367" y="190"/>
      <point x="323" y="162"/>
      <point x="274" y="162" type="curve" smooth="yes"/>
      <point x="175" y="162"/>
      <point x="104" y="251"/>
      <point x="65" y="331" type="curve"/>
      <point x="52" y="328"/>
      <point x="23" y="318"/>
      <point x="23" y="282" type="curve" smooth="yes"/>
      <point x="23" y="224"/>
      <point x="145" y="44"/>
      <point x="313" y="44" type="curve" smooth="yes"/>
      <point x="423" y="44"/>
      <point x="459" y="116"/>
      <point x="491" y="181" type="curve" smooth="yes"/>
      <point x="514" y="228"/>
      <point x="547" y="282"/>
      <point x="604" y="282" type="curve" smooth="yes"/>
      <point x="642" y="282"/>
      <point x="662" y="256"/>
      <point x="662" y="228" type="curve" smooth="yes"/>
      <point x="662" y="176"/>
      <point x="610" y="142"/>
      <point x="564" y="142" type="curve" smooth="yes"/>
      <point x="556" y="142"/>
      <point x="548" y="143"/>
      <point x="541" y="145" type="curve"/>
      <point x="540" y="141"/>
      <point x="540" y="137"/>
      <point x="540" y="134" type="curve" smooth="yes"/>
      <point x="540" y="86"/>
      <point x="582" y="44"/>
      <point x="637" y="44" type="curve" smooth="yes"/>
      <point x="718" y="44"/>
      <point x="759" y="113"/>
      <point x="759" y="176" type="curve" smooth="yes"/>
      <point x="759" y="289"/>
      <point x="653" y="390"/>
      <point x="563" y="390" type="curve" smooth="yes"/>
      <point x="466" y="390"/>
      <point x="409" y="287"/>
      <point x="409" y="213" type="curve"/>
      <point x="454" y="231" type="line"/>
      <point x="454" y="324"/>
      <point x="339" y="436"/>
      <point x="240" y="436" type="curve" smooth="yes"/>
      <point x="199" y="436"/>
      <point x="157" y="413"/>
      <point x="157" y="372" type="curve" smooth="yes"/>
      <point x="157" y="319"/>
      <point x="213" y="289"/>
      <point x="276" y="289" type="curve" smooth="yes"/>
      <point x="357" y="289"/>
      <point x="448" y="338"/>
      <point x="448" y="450" type="curve" smooth="yes"/>
      <point x="448" y="506"/>
      <point x="419" y="557"/>
      <point x="379" y="594" type="curve"/>
      <point x="303" y="565" type="line"/>
      <point x="331" y="557"/>
      <point x="346" y="527"/>
      <point x="346" y="495" type="curve" smooth="yes"/>
      <point x="346" y="456"/>
      <point x="314" y="412"/>
      <point x="249" y="399" type="curve"/>
    </contour>
  </outline>
</glyph>
<glyph name="dvvL" format="1">
  <advance width="734"/>
  <unicode hex="090C"/>
  <outline>
    <contour>
      <point x="390" y="669" type="move" name="abvm.bindu"/>
    </contour>
    <contour>
      <point x="450" y="449" type="curve" smooth="yes"/>
      <point x="387" y="449"/>
      <point x="329" y="414"/>
      <point x="297" y="354" type="curve"/>
      <point x="402" y="271" type="line"/>
      <point x="421" y="324"/>
      <point x="463" y="347"/>
      <point x="498" y="347" type="curve" smooth="yes"/>
      <point x="531" y="347"/>
      <point x="560" y="326"/>
      <point x="560" y="288" type="curve" smooth="yes"/>
      <point x="560" y="214"/>
      <point x="444" y="154"/>
      <point x="444" y="44" type="curve" smooth="yes"/>
      <point x="444" y="-68"/>
      <point x="547" y="-143"/>
      <point x="631" y="-143" type="curve" smooth="yes"/>
      <point x="700" y="-143"/>
      <point x="738" y="-95"/>
      <point x="738" y="-49" type="curve" smooth="yes"/>
      <point x="738" y="-15"/>
      <point x="717" y="18"/>
      <point x="672" y="32" type="curve"/>
      <point x="642" y="-20"/>
      <point x="609" y="-44"/>
      <point x="579" y="-44" type="curve" smooth="yes"/>
      <point x="560" y="-44"/>
      <point x="543" y="-33"/>
      <point x="543" y="-9" type="curve" smooth="yes"/>
      <point x="543" y="62"/>
      <point x="673" y="122"/>
      <point x="673" y="250" type="curve" smooth="yes"/>
      <point x="673" y="361"/>
      <point x="551" y="449"/>
    </contour>
    <contour>
      <point x="554" y="373" type="line"/>
      <point x="554" y="431" type="line" smooth="yes"/>
      <point x="554" y="483"/>
      <point x="551" y="570"/>
      <point x="451" y="570" type="curve" smooth="yes"/>
      <point x="433" y="570"/>
      <point x="416" y="564"/>
      <point x="406" y="552" type="curve"/>
      <point x="421" y="529"/>
      <point x="421" y="485"/>
      <point x="421" y="448" type="curve" smooth="yes"/>
      <point x="421" y="390" type="line"/>
    </contour>
    <contour>
      <point x="-78" y="669" type="line"/>
      <point x="-81" y="663"/>
      <point x="-83" y="650"/>
      <point x="-83" y="642" type="curve" smooth="yes"/>
      <point x="-83" y="552"/>
      <point x="7" y="552"/>
      <point x="43" y="552" type="curve" smooth="yes"/>
      <point x="790" y="552" type="line"/>
      <point x="793" y="558"/>
      <point x="797" y="572"/>
      <point x="797" y="584" type="curve" smooth="yes"/>
      <point x="797" y="669"/>
      <point x="707" y="669"/>
      <point x="671" y="669" type="curve" smooth="yes"/>
    </contour>
    <contour>
      <point x="242" y="354" type="curve" smooth="yes"/>
      <point x="260" y="354"/>
      <point x="278" y="349"/>
      <point x="291" y="342" type="curve"/>
      <point x="284" y="328"/>
      <point x="271" y="296"/>
      <point x="271" y="257" type="curve" smooth="yes"/>
      <point x="271" y="210"/>
      <point x="295" y="156"/>
      <point x="345" y="156" type="curve" smooth="yes"/>
      <point x="395" y="156"/>
      <point x="411" y="205"/>
      <point x="411" y="236" type="curve" smooth="yes"/>
      <point x="411" y="366"/>
      <point x="289" y="457"/>
      <point x="179" y="457" type="curve" smooth="yes"/>
      <point x="97" y="457"/>
      <point x="25" y="409"/>
      <point x="25" y="299" type="curve" smooth="yes"/>
      <point x="25" y="173"/>
      <point x="136" y="6"/>
      <point x="194" y="6" type="curve" smooth="yes"/>
      <point x="212" y="6"/>
      <point x="225" y="17"/>
      <point x="232" y="29" type="curve"/>
      <point x="185" y="99"/>
      <point x="156" y="182"/>
      <point x="156" y="247" type="curve" smooth="yes"/>
      <point x="156" y="309"/>
      <point x="182" y="354"/>
    </contour>
  </outline>
</glyph>
<glyph name="dvEcandra" format="1">
  <advance width="585"/>
  <unicode hex="090D"/>
  <outline>
    <contour>
      <point x="207" y="869" type="move" name="abvm.bindu"/>
    </contour>
    <component base="dvE"/>
    <component base="dvmEcandra" xOffset="420"/>
  </outline>
</glyph>
<glyph name="dvO" format="1">
  <advance width="1078"/>
  <unicode hex="0913"/>
  <outline>
    <contour>
      <point x="1005" y="669" type="move" name="abvm.bindu"/>
    </contour>
    <component base="dvmE" xOffset="1078"/>
    <component base="dvAA"/>
  </outline>
</glyph>
<glyph name="dvGA" format="1">
  <advance width="612"/>
  <unicode hex="0917"/>
  <outline>
    <contour>
      <point x="-78" y="669" type="line"/>
      <point x="-81" y="663"/>
      <point x="-83" y="650"/>
      <point x="-83" y="642" type="curve" smooth="yes"/>
      <point x="-83" y="552"/>
      <point x="7" y="552"/>
      <point x="43" y="552" type="curve" smooth="yes"/>
      <point x="668" y="552" type="line"/>
      <point x="671" y="558"/>
      <point x="675" y="572"/>
      <point x="675" y="584" type="curve" smooth="yes"/>
      <point x="675" y="669"/>
      <point x="585" y="669"/>
      <point x="549" y="669" type="curve" smooth="yes"/>
    </contour>
    <contour>
      <point x="406" y="448" type="curve" smooth="yes"/>
      <point x="406" y="294"/>
      <point x="401" y="223"/>
      <point x="401" y="145" type="curve" smooth="yes"/>
      <point x="401" y="102"/>
      <point x="403" y="-7"/>
      <point x="507" y="-7" type="curve" smooth="yes"/>
      <point x="518" y="-7"/>
      <point x="534" y="-6"/>
      <point x="549" y="0" type="curve"/>
      <point x="538" y="18"/>
      <point x="534" y="69"/>
      <point x="534" y="105" type="curve" smooth="yes"/>
      <point x="534" y="208"/>
      <point x="539" y="322"/>
      <point x="539" y="431" type="curve" smooth="yes"/>
      <point x="539" y="483"/>
      <point x="536" y="570"/>
      <point x="436" y="570" type="curve" smooth="yes"/>
      <point x="418" y="570"/>
      <point x="401" y="564"/>
      <point x="391" y="552" type="curve"/>
      <point x="406" y="529"/>
      <point x="406" y="485"/>
    </contour>
    <contour>
      <point x="83" y="562" type="line"/>
      <point x="121" y="540"/>
      <point x="161" y="491"/>
      <point x="161" y="423" type="curve" smooth="yes"/>
      <point x="161" y="406"/>
      <point x="158" y="384"/>
      <point x="149" y="372" type="curve"/>
      <point x="132" y="398"/>
      <point x="108" y="410"/>
      <point x="86" y="410" type="curve" smooth="yes"/>
      <point x="55" y="410"/>
      <point x="27" y="389"/>
      <point x="27" y="346" type="curve" smooth="yes"/>
      <point x="27" y="269"/>
      <point x="99" y="214"/>
      <point x="165" y="214" type="curve" smooth="yes"/>
      <point x="226" y="214"/>
      <point x="283" y="255"/>
      <point x="283" y="353" type="curve" smooth="yes"/>
      <point x="283" y="428"/>
      <point x="248" y="514"/>
      <point x="191" y="562" type="curve"/>
    </contour>
  </outline>
</glyph>
<glyph name="dvJHA" format="1">
  <advance width="762"/>
  <unicode hex="091D"/>
  <outline>
    <contour>
      <point x="-78" y="669" type="line"/>
      <point x="-81" y="663"/>
      <point x="-83" y="650"/>
      <point x="-83" y="642" type="curve" smooth="yes"/>
      <point x="-83" y="552"/>
      <point x="7" y="552"/>
      <point x="43" y="552" type="curve" smooth="yes"/>
      <point x="818" y="552" type="line"/>
      <point x="821" y="558"/>
      <point x="825" y="572"/>
      <point x="825" y="584" type="curve" smooth="yes"/>
      <point x="825" y="669"/>
      <point x="735" y="669"/>
      <point x="699" y="669" type="curve" smooth="yes"/>
    </contour>
    <contour>
      <point x="575" y="365" type="line"/>
      <point x="559" y="326"/>
      <point x="519" y="295"/>
      <point x="450" y="295" type="curve" smooth="yes"/>
      <point x="392" y="295"/>
      <point x="343" y="318"/>
      <point x="289" y="318" type="curve" smooth="yes"/>
      <point x="257" y="318"/>
      <point x="225" y="310"/>
      <point x="198" y="310" type="curve" smooth="yes"/>
      <point x="177" y="310"/>
      <point x="152" y="316"/>
      <point x="152" y="340" type="curve" smooth="yes"/>
      <point x="152" y="377"/>
      <point x="223" y="377"/>
      <point x="254" y="377" type="curve" smooth="yes"/>
      <point x="276" y="377"/>
      <point x="303" y="376"/>
      <point x="328" y="376" type="curve" smooth="yes"/>
      <point x="402" y="376"/>
      <point x="437" y="416"/>
      <point x="437" y="465" type="curve" smooth="yes"/>
      <point x="437" y="501"/>
      <point x="418" y="542"/>
      <point x="380" y="570" type="curve"/>
      <point x="310" y="555" type="line"/>
      <point x="327" y="546"/>
      <point x="333" y="533"/>
      <point x="333" y="521" type="curve" smooth="yes"/>
      <point x="333" y="502"/>
      <point x="313" y="493"/>
      <point x="282" y="493" type="curve" smooth="yes"/>
      <point x="251" y="493"/>
      <point x="228" y="494"/>
      <point x="205" y="494" type="curve" smooth="yes"/>
      <point x="114" y="494"/>
      <point x="64" y="449"/>
      <point x="64" y="377" type="curve" smooth="yes"/>
      <point x="64" y="276"/>
      <point x="152" y="191"/>
      <point x="253" y="191" type="curve" smooth="yes"/>
      <point x="289" y="191"/>
      <point x="325" y="198"/>
      <point x="344" y="198" type="curve" smooth="yes"/>
      <point x="366" y="198"/>
      <point x="379" y="186"/>
      <point x="379" y="168" type="curve" smooth="yes"/>
      <point x="379" y="133"/>
      <point x="312" y="107"/>
      <point x="249" y="107" type="curve" smooth="yes"/>
      <point x="221" y="107"/>
      <point x="190" y="112"/>
      <point x="168" y="124" type="curve"/>
      <point x="157" y="163"/>
      <point x="127" y="207"/>
      <point x="84" y="207" type="curve" smooth="yes"/>
      <point x="52" y="207"/>
      <point x="33" y="182"/>
      <point x="33" y="154" type="curve" smooth="yes"/>
      <point x="33" y="56"/>
      <point x="151" y="-9"/>
      <point x="297" y="-9" type="curve" smooth="yes"/>
      <point x="398" y="-9"/>
      <point x="469" y="46"/>
      <point x="469" y="134" type="curve" smooth="yes"/>
      <point x="469" y="178"/>
      <point x="452" y="212"/>
      <point x="432" y="245" type="curve"/>
      <point x="382" y="258" type="line"/>
      <point x="424" y="210"/>
      <point x="475" y="196"/>
      <point x="514" y="196" type="curve" smooth="yes"/>
      <point x="560" y="196"/>
      <point x="588" y="220"/>
      <point x="595" y="233" type="curve"/>
      <point x="570" y="229" type="line"/>
      <point x="562" y="198"/>
      <point x="557" y="158"/>
      <point x="557" y="121" type="curve" smooth="yes"/>
      <point x="557" y="55"/>
      <point x="580" y="-7"/>
      <point x="660" y="-7" type="curve" smooth="yes"/>
      <point x="671" y="-7"/>
      <point x="687" y="-6"/>
      <point x="702" y="0" type="curve"/>
      <point x="691" y="18"/>
      <point x="687" y="69"/>
      <point x="687" y="105" type="curve" smooth="yes"/>
      <point x="687" y="208"/>
      <point x="692" y="322"/>
      <point x="692" y="431" type="curve" smooth="yes"/>
      <point x="692" y="483"/>
      <point x="689" y="570"/>
      <point x="589" y="570" type="curve" smooth="yes"/>
      <point x="571" y="570"/>
      <point x="554" y="564"/>
      <point x="544" y="552" type="curve"/>
      <point x="559" y="529"/>
      <point x="559" y="485"/>
      <point x="559" y="448" type="curve" smooth="yes"/>
      <point x="559" y="393"/>
      <point x="558" y="353"/>
      <point x="557" y="317" type="curve"/>
    </contour>
    <contour>
      <point x="117" y="81" type="line"/>
      <point x="143" y="-13"/>
      <point x="197" y="-203"/>
      <point x="336" y="-203" type="curve" smooth="yes"/>
      <point x="383" y="-203"/>
      <point x="423" y="-173"/>
      <point x="423" y="-128" type="curve" smooth="yes"/>
      <point x="423" y="-102"/>
      <point x="411" y="-78"/>
      <point x="392" y="-62" type="curve"/>
      <point x="373" y="-78"/>
      <point x="349" y="-83"/>
      <point x="331" y="-83" type="curve" smooth="yes"/>
      <point x="254" y="-83"/>
      <point x="205" y="0"/>
      <point x="182" y="57" type="curve"/>
    </contour>
  </outline>
</glyph>
<glyph name="dvTTA" format="1">
  <advance width="485"/>
  <unicode hex="091F"/>
  <outline>
    <contour>
      <point x="294" y="-22" type="move" name="blwm.uu"/>
    </contour>
    <contour>
      <point x="361" y="-59" type="move" name="blwm.r"/>
    </contour>
    <contour>
      <point x="353" y="669" type="move" name="abvm.e"/>
    </contour>
    <contour>
      <point x="194" y="669" type="move" name="abvm.bindu"/>
    </contour>
    <contour>
      <point x="344" y="48" type="move" name="blwm.virama"/>
    </contour>
    <contour>
      <point x="338" y="-22" type="move" name="blwm.u"/>
    </contour>
    <contour>
      <point x="246" y="552" type="line"/>
      <point x="254" y="543"/>
      <point x="258" y="532"/>
      <point x="258" y="521" type="curve" smooth="yes"/>
      <point x="258" y="447"/>
      <point x="26" y="451"/>
      <point x="26" y="272" type="curve" smooth="yes"/>
      <point x="26" y="151"/>
      <point x="176" y="48"/>
      <point x="287" y="48" type="curve" smooth="yes"/>
      <point x="422" y="48"/>
      <point x="469" y="118"/>
      <point x="469" y="168" type="curve" smooth="yes"/>
      <point x="469" y="220"/>
      <point x="432" y="260"/>
      <point x="381" y="264" type="curve"/>
      <point x="367" y="198"/>
      <point x="302" y="146"/>
      <point x="234" y="146" type="curve" smooth="yes"/>
      <point x="180" y="146"/>
      <point x="142" y="181"/>
      <point x="142" y="225" type="curve" smooth="yes"/>
      <point x="142" y="366"/>
      <point x="378" y="347"/>
      <point x="378" y="475" type="curve" smooth="yes"/>
      <point x="378" y="516"/>
      <point x="344" y="546"/>
      <point x="316" y="564" type="curve"/>
    </contour>
    <contour>
      <point x="-65" y="669" type="line"/>
      <point x="-68" y="663"/>
      <point x="-70" y="650"/>
      <point x="-70" y="642" type="curve" smooth="yes"/>
      <point x="-70" y="552"/>
      <point x="20" y="552"/>
      <point x="56" y="552" type="curve" smooth="yes"/>
      <point x="543" y="552" type="line"/>
      <point x="546" y="558"/>
      <point x="550" y="572"/>
      <point x="550" y="584" type="curve" smooth="yes"/>
      <point x="550" y="669"/>
      <point x="460" y="669"/>
      <point x="424" y="669" type="curve" smooth="yes"/>
    </contour>
  </outline>
</glyph>
<glyph name="dvTA" format="1">
  <advance width="564"/>
  <unicode hex="0924"/>
  <outline>
    <contour>
      <point x="-65" y="669" type="line"/>
      <point x="-68" y="663"/>
      <point x="-70" y="650"/>
      <point x="-70" y="642" type="curve" smooth="yes"/>
      <point x="-70" y="552"/>
      <point x="20" y="552"/>
      <point x="56" y="552" type="curve" smooth="yes"/>
      <point x="620" y="552" type="line"/>
      <point x="623" y="558"/>
      <point x="627" y="572"/>
      <point x="627" y="584" type="curve" smooth="yes"/>
      <point x="627" y="669"/>
      <point x="537" y="669"/>
      <point x="501" y="669" type="curve" smooth="yes"/>
    </contour>
    <contour>
      <point x="363" y="440" type="curve" smooth="yes"/>
      <point x="363" y="290"/>
      <point x="358" y="221"/>
      <point x="358" y="145" type="curve" smooth="yes"/>
      <point x="358" y="102"/>
      <point x="360" y="-7"/>
      <point x="464" y="-7" type="curve" smooth="yes"/>
      <point x="475" y="-7"/>
      <point x="491" y="-6"/>
      <point x="506" y="0" type="curve"/>
      <point x="495" y="18"/>
      <point x="491" y="69"/>
      <point x="491" y="105" type="curve" smooth="yes"/>
      <point x="491" y="208"/>
      <point x="496" y="322"/>
      <point x="496" y="431" type="curve" smooth="yes"/>
      <point x="496" y="483"/>
      <point x="493" y="570"/>
      <point x="393" y="570" type="curve" smooth="yes"/>
      <point x="375" y="570"/>
      <point x="358" y="564"/>
      <point x="348" y="552" type="curve"/>
      <point x="363" y="527"/>
      <point x="363" y="479"/>
    </contour>
    <contour>
      <point x="45" y="287" type="curve" smooth="yes"/>
      <point x="45" y="166"/>
      <point x="153" y="12"/>
      <point x="209" y="12" type="curve" smooth="yes"/>
      <point x="227" y="12"/>
      <point x="241" y="23"/>
      <point x="247" y="35" type="curve"/>
      <point x="200" y="99"/>
      <point x="172" y="171"/>
      <point x="172" y="241" type="curve" smooth="yes"/>
      <point x="172" y="297"/>
      <point x="206" y="326"/>
      <point x="260" y="326" type="curve" smooth="yes"/>
      <point x="366" y="326" type="line"/>
      <point x="372" y="434" type="line"/>
      <point x="316" y="441"/>
      <point x="265" y="445"/>
      <point x="218" y="445" type="curve" smooth="yes"/>
      <point x="126" y="445"/>
      <point x="45" y="404"/>
    </contour>
  </outline>
</glyph>
<glyph name="dvDA" format="1">
  <advance width="493"/>
  <unicode hex="0926"/>
  <outline>
    <contour>
      <point x="222" y="669" type="move" name="abvm.bindu"/>
    </contour>
    <contour>
      <point x="398" y="-130" type="move" name="blwm.virama"/>
    </contour>
    <contour>
      <point x="406" y="669" type="move" name="abvm.e"/>
    </contour>
    <contour>
      <point x="367" y="-84" type="move" name="blwm.u"/>
    </contour>
    <contour>
      <point x="352" y="-84" type="move" name="blwm.uu"/>
    </contour>
    <contour>
      <point x="362" y="198" type="line"/>
      <point x="337" y="158"/>
      <point x="295" y="143"/>
      <point x="248" y="143" type="curve" smooth="yes"/>
      <point x="198" y="143"/>
      <point x="145" y="171"/>
      <point x="145" y="227" type="curve" smooth="yes"/>
      <point x="145" y="368"/>
      <point x="418" y="340"/>
      <point x="418" y="478" type="curve" smooth="yes"/>
      <point x="418" y="510"/>
      <point x="390" y="549"/>
      <point x="363" y="567" type="curve"/>
      <point x="292" y="554" type="line"/>
      <point x="297" y="546"/>
      <point x="300" y="538"/>
      <point x="300" y="528" type="curve" smooth="yes"/>
      <point x="300" y="452"/>
      <point x="32" y="466"/>
      <point x="32" y="277" type="curve" smooth="yes"/>
      <point x="32" y="155"/>
      <point x="174" y="40"/>
      <point x="308" y="40" type="curve" smooth="yes"/>
      <point x="389" y="40"/>
      <point x="464" y="75"/>
      <point x="464" y="160" type="curve" smooth="yes"/>
      <point x="464" y="213"/>
      <point x="422" y="266"/>
      <point x="372" y="266" type="curve" smooth="yes"/>
      <point x="330" y="266"/>
      <point x="297" y="235"/>
      <point x="297" y="189" type="curve" smooth="yes"/>
      <point x="297" y="164"/>
      <point x="310" y="139"/>
      <point x="326" y="121" type="curve"/>
    </contour>
    <contour>
      <point x="348" y="45" type="line"/>
      <point x="353" y="35"/>
      <point x="353" y="25"/>
      <point x="353" y="17" type="curve" smooth="yes"/>
      <point x="353" y="-25"/>
      <point x="320" y="-50"/>
      <point x="278" y="-57" type="curve"/>
      <point x="286" y="-103"/>
      <point x="325" y="-134"/>
      <point x="365" y="-134" type="curve" smooth="yes"/>
      <point x="429" y="-134"/>
      <point x="457" y="-90"/>
      <point x="457" y="-41" type="curve" smooth="yes"/>
      <point x="457" y="-2"/>
      <point x="439" y="36"/>
      <point x="407" y="68" type="curve"/>
    </contour>
    <contour>
      <point x="-66" y="669" type="line"/>
      <point x="-69" y="663"/>
      <point x="-71" y="650"/>
      <point x="-71" y="642" type="curve" smooth="yes"/>
      <point x="-71" y="552"/>
      <point x="19" y="552"/>
      <point x="55" y="552" type="curve" smooth="yes"/>
      <point x="531" y="552" type="line"/>
      <point x="534" y="558"/>
      <point x="538" y="572"/>
      <point x="538" y="584" type="curve" smooth="yes"/>
      <point x="538" y="669"/>
      <point x="448" y="669"/>
      <point x="412" y="669" type="curve" smooth="yes"/>
    </contour>
  </outline>
</glyph>
<glyph name="dvDHA" format="1">
  <advance width="631"/>
  <unicode hex="0927"/>
  <outline>
    <contour>
      <point x="362" y="669" type="line"/>
      <point x="359" y="663"/>
      <point x="357" y="650"/>
      <point x="357" y="642" type="curve" smooth="yes"/>
      <point x="357" y="613"/>
      <point x="368" y="592"/>
      <point x="389" y="571" type="curve" smooth="yes"/>
      <point x="419" y="543"/>
      <point x="426" y="537"/>
      <point x="426" y="448" type="curve" smooth="yes"/>
      <point x="426" y="369"/>
      <point x="424" y="312"/>
      <point x="423" y="265" type="curve"/>
      <point x="432" y="313" type="line"/>
      <point x="404" y="249"/>
      <point x="329" y="198"/>
      <point x="253" y="198" type="curve" smooth="yes"/>
      <point x="214" y="198"/>
      <point x="180" y="219"/>
      <point x="180" y="255" type="curve" smooth="yes"/>
      <point x="180" y="302"/>
      <point x="223" y="326"/>
      <point x="258" y="329" type="curve"/>
      <point x="199" y="345"/>
      <point x="152" y="392"/>
      <point x="152" y="449" type="curve" smooth="yes"/>
      <point x="152" y="511"/>
      <point x="190" y="552"/>
      <point x="252" y="552" type="curve" smooth="yes"/>
      <point x="262" y="552" type="line"/>
      <point x="265" y="558"/>
      <point x="269" y="572"/>
      <point x="269" y="584" type="curve" smooth="yes"/>
      <point x="269" y="669"/>
      <point x="179" y="669"/>
      <point x="143" y="669" type="curve" smooth="yes"/>
      <point x="-78" y="669" type="line"/>
      <point x="-81" y="663"/>
      <point x="-83" y="650"/>
      <point x="-83" y="642" type="curve" smooth="yes"/>
      <point x="-83" y="571"/>
      <point x="-25" y="553"/>
      <point x="26" y="553" type="curve" smooth="yes"/>
      <point x="40" y="553"/>
      <point x="52" y="554"/>
      <point x="64" y="556" type="curve"/>
      <point x="62" y="571" type="line"/>
      <point x="47" y="546"/>
      <point x="41" y="520"/>
      <point x="41" y="495" type="curve" smooth="yes"/>
      <point x="41" y="395"/>
      <point x="146" y="308"/>
      <point x="249" y="308" type="curve" smooth="yes"/>
      <point x="290" y="308"/>
      <point x="331" y="330"/>
      <point x="331" y="368" type="curve" smooth="yes"/>
      <point x="331" y="413"/>
      <point x="285" y="443"/>
      <point x="231" y="443" type="curve" smooth="yes"/>
      <point x="150" y="443"/>
      <point x="69" y="384"/>
      <point x="69" y="293" type="curve" smooth="yes"/>
      <point x="69" y="206"/>
      <point x="171" y="104"/>
      <point x="303" y="104" type="curve" smooth="yes"/>
      <point x="424" y="104"/>
      <point x="482" y="183"/>
      <point x="516" y="267" type="curve"/>
      <point x="450" y="184" type="line"/>
      <point x="438" y="160"/>
      <point x="430" y="128"/>
      <point x="430" y="97" type="curve" smooth="yes"/>
      <point x="430" y="44"/>
      <point x="454" y="-7"/>
      <point x="527" y="-7" type="curve" smooth="yes"/>
      <point x="538" y="-7"/>
      <point x="554" y="-6"/>
      <point x="569" y="0" type="curve"/>
      <point x="558" y="18"/>
      <point x="554" y="69"/>
      <point x="554" y="105" type="curve" smooth="yes"/>
      <point x="554" y="208"/>
      <point x="559" y="322"/>
      <point x="559" y="431" type="curve" smooth="yes"/>
      <point x="559" y="483"/>
      <point x="555" y="570"/>
      <point x="455" y="570" type="curve"/>
      <point x="483" y="552" type="line"/>
      <point x="687" y="552" type="line"/>
      <point x="690" y="558"/>
      <point x="694" y="572"/>
      <point x="694" y="584" type="curve" smooth="yes"/>
      <point x="694" y="669"/>
      <point x="604" y="669"/>
      <point x="568" y="669" type="curve" smooth="yes"/>
    </contour>
  </outline>
</glyph>
<glyph name="dvNA" format="1">
  <advance width="589"/>
  <unicode hex="0928"/>
  <outline>
    <contour>
      <point x="384" y="440" type="curve" smooth="yes"/>
      <point x="384" y="290"/>
      <point x="379" y="221"/>
      <point x="379" y="145" type="curve" smooth="yes"/>
      <point x="379" y="102"/>
      <point x="381" y="-7"/>
      <point x="485" y="-7" type="curve" smooth="yes"/>
      <point x="496" y="-7"/>
      <point x="512" y="-6"/>
      <point x="527" y="0" type="curve"/>
      <point x="516" y="18"/>
      <point x="512" y="69"/>
      <point x="512" y="105" type="curve" smooth="yes"/>
      <point x="512" y="208"/>
      <point x="517" y="322"/>
      <point x="517" y="431" type="curve" smooth="yes"/>
      <point x="517" y="483"/>
      <point x="514" y="570"/>
      <point x="414" y="570" type="curve" smooth="yes"/>
      <point x="396" y="570"/>
      <point x="379" y="564"/>
      <point x="369" y="552" type="curve"/>
      <point x="384" y="527"/>
      <point x="384" y="479"/>
    </contour>
    <contour>
      <point x="-65" y="669" type="line"/>
      <point x="-68" y="663"/>
      <point x="-70" y="650"/>
      <point x="-70" y="642" type="curve" smooth="yes"/>
      <point x="-70" y="552"/>
      <point x="20" y="552"/>
      <point x="56" y="552" type="curve" smooth="yes"/>
      <point x="645" y="552" type="line"/>
      <point x="648" y="558"/>
      <point x="652" y="572"/>
      <point x="652" y="584" type="curve" smooth="yes"/>
      <point x="652" y="669"/>
      <point x="562" y="669"/>
      <point x="526" y="669" type="curve" smooth="yes"/>
    </contour>
    <contour>
      <point x="131" y="262" type="curve" smooth="yes"/>
      <point x="131" y="291"/>
      <point x="157" y="326"/>
      <point x="221" y="326" type="curve" smooth="yes"/>
      <point x="386" y="326" type="line"/>
      <point x="393" y="434" type="line"/>
      <point x="340" y="439"/>
      <point x="280" y="444"/>
      <point x="209" y="444" type="curve" smooth="yes"/>
      <point x="88" y="444"/>
      <point x="24" y="401"/>
      <point x="24" y="316" type="curve" smooth="yes"/>
      <point x="24" y="221"/>
      <point x="135" y="110"/>
      <point x="233" y="110" type="curve" smooth="yes"/>
      <point x="285" y="110"/>
      <point x="307" y="142"/>
      <point x="307" y="177" type="curve" smooth="yes"/>
      <point x="307" y="213"/>
      <point x="284" y="253"/>
      <point x="244" y="268" type="curve"/>
      <point x="241" y="261"/>
      <point x="236" y="253"/>
      <point x="225" y="243" type="curve" smooth="yes"/>
      <point x="213" y="233"/>
      <point x="195" y="223"/>
      <point x="174" y="223" type="curve" smooth="yes"/>
      <point x="144" y="223"/>
      <point x="131" y="244"/>
    </contour>
  </outline>
</glyph>
<glyph name="dvBHA" format="1">
  <advance width="671"/>
  <unicode hex="092D"/>
  <outline>
    <contour>
      <point x="314" y="669" type="line"/>
      <point x="311" y="663"/>
      <point x="309" y="650"/>
      <point x="309" y="642" type="curve" smooth="yes"/>
      <point x="309" y="552"/>
      <point x="399" y="552"/>
      <point x="435" y="552" type="curve" smooth="yes"/>
      <point x="727" y="552" type="line"/>
      <point x="730" y="558"/>
      <point x="734" y="572"/>
      <point x="734" y="584" type="curve" smooth="yes"/>
      <point x="734" y="669"/>
      <point x="644" y="669"/>
      <point x="608" y="669" type="curve" smooth="yes"/>
    </contour>
    <contour>
      <point x="466" y="448" type="curve" smooth="yes"/>
      <point x="466" y="294"/>
      <point x="461" y="223"/>
      <point x="461" y="145" type="curve" smooth="yes"/>
      <point x="461" y="102"/>
      <point x="463" y="-7"/>
      <point x="567" y="-7" type="curve" smooth="yes"/>
      <point x="578" y="-7"/>
      <point x="594" y="-6"/>
      <point x="609" y="0" type="curve"/>
      <point x="598" y="18"/>
      <point x="594" y="69"/>
      <point x="594" y="105" type="curve" smooth="yes"/>
      <point x="594" y="208"/>
      <point x="599" y="322"/>
      <point x="599" y="431" type="curve" smooth="yes"/>
      <point x="599" y="483"/>
      <point x="596" y="570"/>
      <point x="496" y="570" type="curve" smooth="yes"/>
      <point x="478" y="570"/>
      <point x="461" y="564"/>
      <point x="451" y="552" type="curve"/>
      <point x="466" y="529"/>
      <point x="466" y="485"/>
    </contour>
    <contour>
      <point x="184" y="488" type="curve" smooth="yes"/>
      <point x="184" y="356"/>
      <point x="179" y="318"/>
      <point x="170" y="268" type="curve"/>
      <point x="505" y="268" type="line"/>
      <point x="513" y="374" type="line"/>
      <point x="433" y="385"/>
      <point x="280" y="390"/>
      <point x="206" y="390" type="curve" smooth="yes"/>
      <point x="167" y="390"/>
      <point x="93" y="387"/>
      <point x="93" y="319" type="curve" smooth="yes"/>
      <point x="93" y="260"/>
      <point x="165" y="171"/>
      <point x="234" y="171" type="curve" smooth="yes"/>
      <point x="294" y="171"/>
      <point x="309" y="260"/>
      <point x="309" y="367" type="curve" smooth="yes"/>
      <point x="309" y="528"/>
      <point x="209" y="669"/>
      <point x="115" y="669" type="curve" smooth="yes"/>
      <point x="46" y="669"/>
      <point x="10" y="617"/>
      <point x="10" y="560" type="curve" smooth="yes"/>
      <point x="10" y="502"/>
      <point x="45" y="441"/>
      <point x="103" y="441" type="curve" smooth="yes"/>
      <point x="112" y="441"/>
      <point x="120" y="443"/>
      <point x="124" y="445" type="curve"/>
      <point x="118" y="456"/>
      <point x="114" y="476"/>
      <point x="114" y="496" type="curve" smooth="yes"/>
      <point x="114" y="523"/>
      <point x="123" y="560"/>
      <point x="153" y="560" type="curve" smooth="yes"/>
      <point x="176" y="560"/>
      <point x="184" y="537"/>
    </contour>
  </outline>
</glyph>
<glyph name="dvLLA" format="1">
  <advance width="693"/>
  <unicode hex="0933"/>
  <outline>
    <contour>
      <point x="507" y="17" type="move" name="blwm.uu"/>
    </contour>
    <contour>
      <point x="585" y="-30" type="move" name="blwm.r"/>
    </contour>
    <contour>
      <point x="527" y="669" type="move" name="abvm.e"/>
    </contour>
    <contour>
      <point x="362" y="669" type="move" name="abvm.bindu"/>
    </contour>
    <contour>
      <point x="566" y="88" type="move" name="blwm.virama"/>
    </contour>
    <contour>
      <point x="507" y="18" type="move" name="blwm.u"/>
    </contour>
    <contour>
      <point x="527" y="431" type="line"/>
      <point x="527" y="483"/>
      <point x="524" y="570"/>
      <point x="433" y="570" type="curve" smooth="yes"/>
      <point x="418" y="570"/>
      <point x="404" y="564"/>
      <point x="394" y="552" type="curve"/>
      <point x="416" y="527"/>
      <point x="416" y="479"/>
      <point x="416" y="440" type="curve"/>
    </contour>
    <contour>
      <point x="317" y="369" type="line"/>
      <point x="295" y="433"/>
      <point x="238" y="466"/>
      <point x="177" y="466" type="curve" smooth="yes"/>
      <point x="79" y="466"/>
      <point x="25" y="390"/>
      <point x="25" y="310" type="curve" smooth="yes"/>
      <point x="25" y="209"/>
      <point x="115" y="88"/>
      <point x="230" y="88" type="curve" smooth="yes"/>
      <point x="411" y="88"/>
      <point x="376" y="363"/>
      <point x="499" y="363" type="curve" smooth="yes"/>
      <point x="527" y="363"/>
      <point x="563" y="343"/>
      <point x="563" y="300" type="curve" smooth="yes"/>
      <point x="563" y="240"/>
      <point x="503" y="207"/>
      <point x="439" y="207" type="curve" smooth="yes"/>
      <point x="412" y="207"/>
      <point x="391" y="211"/>
      <point x="373" y="217" type="curve"/>
      <point x="367" y="185" type="line"/>
      <point x="389" y="121"/>
      <point x="446" y="88"/>
      <point x="507" y="88" type="curve" smooth="yes"/>
      <point x="605" y="88"/>
      <point x="659" y="164"/>
      <point x="659" y="244" type="curve" smooth="yes"/>
      <point x="659" y="345"/>
      <point x="569" y="466"/>
      <point x="454" y="466" type="curve" smooth="yes"/>
      <point x="273" y="466"/>
      <point x="308" y="191"/>
      <point x="185" y="191" type="curve" smooth="yes"/>
      <point x="157" y="191"/>
      <point x="121" y="211"/>
      <point x="121" y="254" type="curve" smooth="yes"/>
      <point x="121" y="314"/>
      <point x="181" y="347"/>
      <point x="245" y="347" type="curve" smooth="yes"/>
      <point x="272" y="347"/>
      <point x="293" y="343"/>
      <point x="311" y="337" type="curve"/>
    </contour>
    <contour>
      <point x="-75" y="669" type="line"/>
      <point x="-78" y="663"/>
      <point x="-80" y="650"/>
      <point x="-80" y="642" type="curve" smooth="yes"/>
      <point x="-80" y="552"/>
      <point x="10" y="552"/>
      <point x="46" y="552" type="curve" smooth="yes"/>
      <point x="736" y="552" type="line"/>
      <point x="739" y="558"/>
      <point x="743" y="572"/>
      <point x="743" y="584" type="curve" smooth="yes"/>
      <point x="743" y="669"/>
      <point x="653" y="669"/>
      <point x="617" y="669" type="curve" smooth="yes"/>
    </contour>
  </outline>
</glyph>
<glyph name="dvHA" format="1">
  <advance width="491"/>
  <unicode hex="0939"/>
  <outline>
    <contour>
      <point x="199" y="669" type="move" name="abvm.bindu"/>
    </contour>
    <contour>
      <point x="323" y="-56" type="move" name="blwm.uu"/>
    </contour>
    <contour>
      <point x="388" y="669" type="move" name="abvm.e"/>
    </contour>
    <contour>
      <point x="348" y="-60" type="move" name="blwm.u"/>
    </contour>
    <contour>
      <point x="383" y="-116" type="move" name="blwm.virama"/>
    </contour>
    <contour>
      <point x="189" y="253" type="line"/>
      <point x="172" y="271"/>
      <point x="159" y="295"/>
      <point x="159" y="318" type="curve" smooth="yes"/>
      <point x="159" y="344"/>
      <point x="175" y="366"/>
      <point x="224" y="366" type="curve" smooth="yes"/>
      <point x="254" y="366"/>
      <point x="282" y="365"/>
      <point x="313" y="365" type="curve" smooth="yes"/>
      <point x="387" y="365"/>
      <point x="422" y="406"/>
      <point x="422" y="453" type="curve" smooth="yes"/>
      <point x="422" y="492"/>
      <point x="399" y="537"/>
      <point x="354" y="568" type="curve"/>
      <point x="284" y="553" type="line"/>
      <point x="305" y="544"/>
      <point x="318" y="525"/>
      <point x="318" y="509" type="curve" smooth="yes"/>
      <point x="318" y="494"/>
      <point x="306" y="481"/>
      <point x="280" y="481" type="curve" smooth="yes"/>
      <point x="242" y="481"/>
      <point x="222" y="482"/>
      <point x="192" y="482" type="curve" smooth="yes"/>
      <point x="93" y="482"/>
      <point x="52" y="431"/>
      <point x="52" y="370" type="curve" smooth="yes"/>
      <point x="52" y="319"/>
      <point x="83" y="262"/>
      <point x="133" y="221" type="curve"/>
    </contour>
    <contour>
      <point x="-65" y="669" type="line"/>
      <point x="-68" y="663"/>
      <point x="-70" y="650"/>
      <point x="-70" y="642" type="curve" smooth="yes"/>
      <point x="-70" y="552"/>
      <point x="20" y="552"/>
      <point x="56" y="552" type="curve" smooth="yes"/>
      <point x="556" y="552" type="line"/>
      <point x="559" y="558"/>
      <point x="563" y="572"/>
      <point x="563" y="584" type="curve" smooth="yes"/>
      <point x="563" y="669"/>
      <point x="473" y="669"/>
      <point x="437" y="669" type="curve" smooth="yes"/>
    </contour>
    <contour>
      <point x="277" y="103" type="curve"/>
      <point x="284" y="52"/>
      <point x="328" y="27"/>
      <point x="370" y="27" type="curve" smooth="yes"/>
      <point x="421" y="27"/>
      <point x="462" y="65"/>
      <point x="462" y="120" type="curve" smooth="yes"/>
      <point x="462" y="199"/>
      <point x="371" y="298"/>
      <point x="249" y="298" type="curve" smooth="yes"/>
      <point x="152" y="298"/>
      <point x="61" y="240"/>
      <point x="61" y="132" type="curve" smooth="yes"/>
      <point x="61" y="-3"/>
      <point x="196" y="-116"/>
      <point x="348" y="-116" type="curve" smooth="yes"/>
      <point x="400" y="-116"/>
      <point x="426" y="-93"/>
      <point x="426" y="-65" type="curve" smooth="yes"/>
      <point x="426" y="-57"/>
      <point x="423" y="-44"/>
      <point x="419" y="-36" type="curve"/>
      <point x="400" y="-40"/>
      <point x="381" y="-42"/>
      <point x="362" y="-42" type="curve" smooth="yes"/>
      <point x="273" y="-42"/>
      <point x="180" y="5"/>
      <point x="180" y="90" type="curve" smooth="yes"/>
      <point x="180" y="160"/>
      <point x="246" y="202"/>
      <point x="302" y="202" type="curve" smooth="yes"/>
      <point x="336" y="202"/>
      <point x="354" y="185"/>
      <point x="354" y="163" type="curve" smooth="yes"/>
      <point x="354" y="135"/>
      <point x="326" y="110"/>
    </contour>
  </outline>
</glyph>
<glyph name="dvNukta" format="1">
  <advance width="0"/>
  <unicode hex="093C"/>
  <outline>
    <contour>
      <point x="-290" y="-164" type="curve" smooth="yes"/>
      <point x="-290" y="-201"/>
      <point x="-256" y="-235"/>
      <point x="-219" y="-235" type="curve" smooth="yes"/>
      <point x="-188" y="-235"/>
      <point x="-168" y="-212"/>
      <point x="-168" y="-184" type="curve" smooth="yes"/>
      <point x="-168" y="-147"/>
      <point x="-204" y="-113"/>
      <point x="-239" y="-113" type="curve" smooth="yes"/>
      <point x="-270" y="-113"/>
      <point x="-290" y="-135"/>
    </contour>
  </outline>
</glyph>
<glyph name="dvmU" format="1">
  <advance width="0"/>
  <unicode hex="0941"/>
  <outline>
    <contour>
      <point x="-62" y="0" type="move" name="_blwm.u"/>
    </contour>
    <contour>
      <point x="-123" y="-275" type="curve" smooth="yes"/>
      <point x="-36" y="-275"/>
      <point x="28" y="-219"/>
      <point x="28" y="-144" type="curve" smooth="yes"/>
      <point x="28" y="-50"/>
      <point x="-66" y="26"/>
      <point x="-148" y="26" type="curve" smooth="yes"/>
      <point x="-207" y="26"/>
      <point x="-239" y="-11"/>
      <point x="-239" y="-50" type="curve" smooth="yes"/>
      <point x="-239" y="-85"/>
      <point x="-214" y="-121"/>
      <point x="-168" y="-125" type="curve"/>
      <point x="-159" y="-96"/>
      <point x="-131" y="-72"/>
      <point x="-98" y="-72" type="curve" smooth="yes"/>
      <point x="-78" y="-72"/>
      <point x="-66" y="-85"/>
      <point x="-66" y="-101" type="curve" smooth="yes"/>
      <point x="-66" y="-137"/>
      <point x="-104" y="-169"/>
      <point x="-171" y="-169" type="curve" smooth="yes"/>
      <point x="-241" y="-169"/>
      <point x="-331" y="-125"/>
      <point x="-404" y="-41" type="curve"/>
      <point x="-410" y="-43"/>
      <point x="-431" y="-54"/>
      <point x="-431" y="-83" type="curve" smooth="yes"/>
      <point x="-431" y="-144"/>
      <point x="-272" y="-275"/>
    </contour>
  </outline>
</glyph>
<glyph name="dvmE" format="1">
  <advance width="0"/>
  <unicode hex="0947"/>
  <outline>
    <contour>
      <point x="-72" y="669" type="move" name="_abvm.e"/>
    </contour>
    <contour>
      <point x="-151" y="624" type="curve"/>
      <point x="-128" y="624"/>
      <point x="-106" y="636"/>
      <point x="-106" y="666" type="curve" smooth="yes"/>
      <point x="-106" y="711"/>
      <point x="-219" y="950"/>
      <point x="-368" y="950" type="curve" smooth="yes"/>
      <point x="-427" y="950"/>
      <point x="-459" y="911"/>
      <point x="-459" y="868" type="curve" smooth="yes"/>
      <point x="-459" y="827"/>
      <point x="-433" y="786"/>
      <point x="-385" y="774" type="curve"/>
      <point x="-371" y="802"/>
      <point x="-346" y="815"/>
      <point x="-323" y="815" type="curve" smooth="yes"/>
      <point x="-245" y="815"/>
      <point x="-178" y="679"/>
    </contour>
  </outline>
</glyph>
<glyph name="dvPHxA" format="1">
  <advance width="789"/>
  <unicode hex="095E"/>
  <outline>
    <contour>
      <point x="473" y="-1" type="move" name="blwm.uu"/>
    </contour>
    <contour>
      <point x="473" y="0" type="move" name="blwm.r"/>
    </contour>
    <contour>
      <point x="453" y="669" type="move" name="abvm.e"/>
    </contour>
    <contour>
      <point x="315" y="669" type="move" name="abvm.bindu"/>
    </contour>
    <contour>
      <point x="473" y="0" type="move" name="blwm.virama"/>
    </contour>
    <contour>
      <point x="473" y="0" type="move" name="blwm.u"/>
    </contour>
    <component base="dvPHA"/>
    <component base="dvNukta" xOffset="349" yOffset="265"/>
  </outline>
</glyph>
<glyph name="danda" format="1">
  <advance width="606"/>
  <unicode hex="0964"/>
  <outline>
    <contour>
      <point x="396" y="522" type="curve" smooth="yes"/>
      <point x="396" y="565"/>
      <point x="394" y="674"/>
      <point x="290" y="674" type="curve" smooth="yes"/>
      <point x="279" y="674"/>
      <point x="263" y="673"/>
      <point x="248" y="667" type="curve"/>
      <point x="263" y="644"/>
      <point x="263" y="600"/>
      <point x="263" y="563" type="curve" smooth="yes"/>
      <point x="263" y="311"/>
      <point x="258" y="253"/>
      <point x="258" y="145" type="curve" smooth="yes"/>
      <point x="258" y="102"/>
      <point x="260" y="-7"/>
      <point x="364" y="-7" type="curve" smooth="yes"/>
      <point x="375" y="-7"/>
      <point x="391" y="-6"/>
      <point x="406" y="0" type="curve"/>
      <point x="395" y="18"/>
      <point x="391" y="69"/>
      <point x="391" y="105" type="curve" smooth="yes"/>
      <point x="391" y="236"/>
      <point x="396" y="382"/>
    </contour>
  </outline>
</glyph>
<glyph name="emdash" format="1">
  <advance width="1038"/>
  <unicode hex="2014"/>
  <outline>
    <contour>
      <point x="205" y="359" type="line"/>
      <point x="163" y="359"/>
      <point x="60" y="359"/>
      <point x="60" y="261" type="curve" smooth="yes"/>
      <point x="60" y="248"/>
      <point x="65" y="232"/>
      <point x="68" y="225" type="curve"/>
      <point x="833" y="225" type="line" smooth="yes"/>
      <point x="875" y="225"/>
      <point x="978" y="225"/>
      <point x="978" y="328" type="curve" smooth="yes"/>
      <point x="978" y="338"/>
      <point x="976" y="352"/>
      <point x="972" y="359" type="curve"/>
    </contour>
  </outline>
</glyph>
<glyph name="quoteleft" format="1">
  <advance width="265"/>
  <unicode hex="2018"/>
  <outline>
    <contour>
      <point x="178" y="782" type="curve" smooth="yes"/>
      <point x="178" y="830"/>
      <point x="200" y="871"/>
      <point x="240" y="901" type="curve"/>
      <point x="236" y="922"/>
      <point x="221" y="930"/>
      <point x="207" y="930" type="curve" smooth="yes"/>
      <point x="150" y="930"/>
      <point x="40" y="841"/>
      <point x="40" y="716" type="curve" smooth="yes"/>
      <point x="40" y="647"/>
      <point x="88" y="605"/>
      <point x="148" y="605" type="curve" smooth="yes"/>
      <point x="202" y="605"/>
      <point x="233" y="638"/>
      <point x="245" y="673" type="curve"/>
      <point x="198" y="692"/>
      <point x="178" y="738"/>
    </contour>
  </outline>
</glyph>
<glyph name="quotedblright" format="1">
  <advance width="506"/>
  <unicode hex="201D"/>
  <outline>
    <contour>
      <point x="328" y="752" type="curve" smooth="yes"/>
      <point x="328" y="704"/>
      <point x="307" y="664"/>
      <point x="266" y="634" type="curve"/>
      <point x="271" y="613"/>
      <point x="285" y="605"/>
      <point x="300" y="605" type="curve" smooth="yes"/>
      <point x="356" y="605"/>
      <point x="466" y="694"/>
      <point x="466" y="818" type="curve" smooth="yes"/>
      <point x="466" y="888"/>
      <point x="418" y="930"/>
      <point x="358" y="930" type="curve" smooth="yes"/>
      <point x="304" y="930"/>
      <point x="273" y="896"/>
      <point x="261" y="862" type="curve"/>
      <point x="308" y="842"/>
      <point x="328" y="797"/>
    </contour>
    <contour>
      <point x="87" y="752" type="curve" smooth="yes"/>
      <point x="87" y="704"/>
      <point x="66" y="664"/>
      <point x="25" y="634" type="curve"/>
      <point x="30" y="613"/>
      <point x="44" y="605"/>
      <point x="58" y="605" type="curve" smooth="yes"/>
      <point x="115" y="605"/>
      <point x="225" y="694"/>
      <point x="225" y="818" type="curve" smooth="yes"/>
      <point x="225" y="888"/>
      <point x="177" y="930"/>
      <point x="117" y="930" type="curve" smooth="yes"/>
      <point x="63" y="930"/>
      <point x="32" y="896"/>
      <point x="20" y="862" type="curve"/>
      <point x="67" y="842"/>
      <point x="87" y="797"/>
    </contour>
  </outline>
</glyph>
<glyph name="bullet" format="1">
  <advance width="556"/>
  <unicode hex="2022"/>
  <outline>
    <contour>
      <point x="437" y="342" type="curve" smooth="yes"/>
      <point x="437" y="417"/>
      <point x="383" y="476"/>
      <point x="302" y="476" type="curve" smooth="yes"/>
      <point x="208" y="476"/>
      <point x="115" y="387"/>
      <point x="115" y="289" type="curve" smooth="yes"/>
      <point x="115" y="214"/>
      <point x="169" y="154"/>
      <point x="250" y="154" type="curve" smooth="yes"/>
      <point x="348" y="154"/>
      <point x="437" y="243"/>
    </contour>
  </outline>
</glyph>
<glyph name="guilsinglleft" format="1">
  <advance width="346"/>
  <unicode hex="2039"/>
  <outline>
    <contour>
      <point x="310" y="634" type="curve"/>
      <point x="214" y="506"/>
      <point x="181" y="455"/>
      <point x="181" y="404" type="curve" smooth="yes"/>
      <point x="181" y="354"/>
      <point x="214" y="302"/>
      <point x="310" y="175" type="curve"/>
      <point x="307" y="168"/>
      <point x="294" y="154"/>
      <point x="276" y="154" type="curve" smooth="yes"/>
      <point x="206" y="154"/>
      <point x="36" y="330"/>
      <point x="36" y="404" type="curve" smooth="yes"/>
      <point x="36" y="479"/>
      <point x="206" y="655"/>
      <point x="276" y="655" type="curve" smooth="yes"/>
      <point x="294" y="655"/>
      <point x="307" y="641"/>
    </contour>
  </outline>
</glyph>
<glyph name="guilsinglright" format="1">
  <advance width="346"/>
  <unicode hex="203A"/>
  <outline>
    <contour>
      <point x="310" y="404" type="curve" smooth="yes"/>
      <point x="310" y="330"/>
      <point x="139" y="154"/>
      <point x="70" y="154" type="curve" smooth="yes"/>
      <point x="52" y="154"/>
      <point x="38" y="168"/>
      <point x="36" y="175" type="curve"/>
      <point x="132" y="302"/>
      <point x="164" y="354"/>
      <point x="164" y="404" type="curve" smooth="yes"/>
      <point x="164" y="455"/>
      <point x="132" y="506"/>
      <point x="36" y="634" type="curve"/>
      <point x="38" y="641"/>
      <point x="52" y="655"/>
      <point x="70" y="655" type="curve" smooth="yes"/>
      <point x="139" y="655"/>
      <point x="310" y="479"/>
    </contour>
  </outline>
</glyph>
<glyph name="fraction" format="1">
  <advance width="721"/>
  <unicode hex="2044"/>
  <outline>
    <contour>
      <point x="104" y="89" type="line"/>
      <point x="89" y="66"/>
      <point x="61" y="35"/>
      <point x="48" y="29" type="curve"/>
      <point x="67" y="-10"/>
      <point x="94" y="-12"/>
      <point x="107" y="-12" type="curve" smooth="yes"/>
      <point x="148" y="-12"/>
      <point x="179" y="32"/>
      <point x="194" y="54" type="curve" smooth="yes"/>
      <point x="618" y="648" type="line" smooth="yes"/>
      <point x="634" y="670"/>
      <point x="654" y="700"/>
      <point x="673" y="707" type="curve"/>
      <point x="656" y="739"/>
      <point x="628" y="746"/>
      <point x="612" y="746" type="curve" smooth="yes"/>
      <point x="572" y="746"/>
      <point x="540" y="703"/>
      <point x="526" y="683" type="curve" smooth="yes"/>
    </contour>
  </outline>
</glyph>
<glyph name="indianrupee" format="1">
  <advance width="531"/>
  <unicode hex="20A8"/>
  <outline>
    <contour>
      <point x="230" y="600" type="line"/>
      <point x="290" y="569"/>
      <point x="341" y="472"/>
      <point x="341" y="391" type="curve" smooth="yes"/>
      <point x="341" y="323"/>
      <point x="305" y="265"/>
      <point x="205" y="265" type="curve"/>
      <point x="290" y="208" type="line"/>
      <point x="287" y="266"/>
      <point x="248" y="364"/>
      <point x="165" y="364" type="curve" smooth="yes"/>
      <point x="127" y="364"/>
      <point x="98" y="338"/>
      <point x="98" y="301" type="curve" smooth="yes"/>
      <point x="98" y="230"/>
      <point x="181" y="194"/>
      <point x="244" y="194" type="curve" smooth="yes"/>
      <point x="372" y="194"/>
      <point x="455" y="282"/>
      <point x="455" y="406" type="curve" smooth="yes"/>
      <point x="455" y="495"/>
      <point x="415" y="567"/>
      <point x="357" y="611" type="curve"/>
    </contour>
    <contour>
      <point x="135" y="669" type="line"/>
      <point x="106" y="669"/>
      <point x="38" y="669"/>
      <point x="38" y="604" type="curve" smooth="yes"/>
      <point x="38" y="595"/>
      <point x="41" y="584"/>
      <point x="43" y="579" type="curve"/>
      <point x="462" y="579" type="line" smooth="yes"/>
      <point x="490" y="579"/>
      <point x="559" y="579"/>
      <point x="559" y="647" type="curve" smooth="yes"/>
      <point x="559" y="655"/>
      <point x="557" y="665"/>
      <point x="555" y="669" type="curve"/>
    </contour>
    <contour>
      <point x="135" y="508" type="line"/>
      <point x="106" y="508"/>
      <point x="38" y="508"/>
      <point x="38" y="443" type="curve" smooth="yes"/>
      <point x="38" y="434"/>
      <point x="41" y="423"/>
      <point x="43" y="418" type="curve"/>
      <point x="462" y="418" type="line" smooth="yes"/>
      <point x="490" y="418"/>
      <point x="559" y="418"/>
      <point x="559" y="486" type="curve" smooth="yes"/>
      <point x="559" y="494"/>
      <point x="557" y="504"/>
      <point x="555" y="508" type="curve"/>
    </contour>
    <contour>
      <point x="164" y="248" type="line"/>
      <point x="191" y="133"/>
      <point x="243" y="-7"/>
      <point x="359" y="-7" type="curve" smooth="yes"/>
      <point x="409" y="-7"/>
      <point x="447" y="26"/>
      <point x="442" y="77" type="curve"/>
      <point x="325" y="63"/>
      <point x="298" y="187"/>
      <point x="279" y="268" type="curve"/>
    </contour>
  </outline>
</glyph>
<glyph name="Euro" format="1">
  <advance width="779"/>
  <unicode hex="20AC"/>
  <outline>
    <contour>
      <point x="535" y="316" type="curve" smooth="yes"/>
      <point x="535" y="320"/>
      <point x="534" y="330"/>
      <point x="530" y="334" type="curve"/>
      <point x="138" y="334" type="line" smooth="yes"/>
      <point x="112" y="334"/>
      <point x="48" y="334"/>
      <point x="48" y="274" type="curve" smooth="yes"/>
      <point x="48" y="265"/>
      <point x="50" y="256"/>
      <point x="53" y="252" type="curve"/>
      <point x="445" y="252" type="line" smooth="yes"/>
      <point x="472" y="252"/>
      <point x="535" y="252"/>
    </contour>
    <contour>
      <point x="535" y="473" type="curve" smooth="yes"/>
      <point x="535" y="478"/>
      <point x="534" y="487"/>
      <point x="530" y="491" type="curve"/>
      <point x="138" y="491" type="line" smooth="yes"/>
      <point x="112" y="491"/>
      <point x="48" y="491"/>
      <point x="48" y="431" type="curve" smooth="yes"/>
      <point x="48" y="422"/>
      <point x="50" y="413"/>
      <point x="53" y="409" type="curve"/>
      <point x="445" y="409" type="line" smooth="yes"/>
      <point x="472" y="409"/>
      <point x="535" y="409"/>
    </contour>
    <contour>
      <point x="743" y="616" type="curve" smooth="yes"/>
      <point x="743" y="695"/>
      <point x="626" y="746"/>
      <point x="488" y="746" type="curve" smooth="yes"/>
      <point x="270" y="746"/>
      <point x="148" y="593"/>
      <point x="148" y="361" type="curve" smooth="yes"/>
      <point x="148" y="125"/>
      <point x="264" y="-11"/>
      <point x="462" y="-11" type="curve" smooth="yes"/>
      <point x="622" y="-11"/>
      <point x="739" y="89"/>
      <point x="739" y="164" type="curve" smooth="yes"/>
      <point x="739" y="208"/>
      <point x="712" y="223"/>
      <point x="704" y="226" type="curve"/>
      <point x="666" y="180"/>
      <point x="583" y="124"/>
      <point x="497" y="124" type="curve" smooth="yes"/>
      <point x="391" y="124"/>
      <point x="305" y="179"/>
      <point x="305" y="377" type="curve" smooth="yes"/>
      <point x="305" y="552"/>
      <point x="383" y="658"/>
      <point x="474" y="658" type="curve" smooth="yes"/>
      <point x="540" y="658"/>
      <point x="564" y="611"/>
      <point x="556" y="556" type="curve"/>
      <point x="580" y="541"/>
      <point x="607" y="535"/>
      <point x="631" y="535" type="curve" smooth="yes"/>
      <point x="689" y="535"/>
      <point x="743" y="557"/>
    </contour>
  </outline>
</glyph>
<glyph name="litre" format="1">
  <advance width="500"/>
  <unicode hex="2113"/>
  <outline>
    <contour>
      <point x="250" y="784" type="curve" smooth="yes"/>
      <point x="159" y="784"/>
      <point x="78" y="737"/>
      <point x="78" y="613" type="curve" smooth="yes"/>
      <point x="78" y="194" type="line" smooth="yes"/>
      <point x="78" y="46"/>
      <point x="157" y="-11"/>
      <point x="279" y="-11" type="curve" smooth="yes"/>
      <point x="400" y="-11"/>
      <point x="471" y="52"/>
      <point x="471" y="119" type="curve" smooth="yes"/>
      <point x="471" y="137"/>
      <point x="463" y="155"/>
      <point x="448" y="161" type="curve"/>
      <point x="417" y="126"/>
      <point x="385" y="98"/>
      <point x="319" y="98" type="curve" smooth="yes"/>
      <point x="265" y="98"/>
      <point x="235" y="129"/>
      <point x="235" y="184" type="curve" smooth="yes"/>
      <point x="235" y="613" type="line" smooth="yes"/>
      <point x="235" y="659"/>
      <point x="251" y="685"/>
      <point x="281" y="685" type="curve" smooth="yes"/>
      <point x="311" y="685"/>
      <point x="339" y="650"/>
      <point x="339" y="571" type="curve" smooth="yes"/>
      <point x="339" y="379"/>
      <point x="178" y="251"/>
      <point x="-12" y="233" type="curve"/>
      <point x="-12" y="201"/>
      <point x="5" y="184"/>
      <point x="37" y="184" type="curve" smooth="yes"/>
      <point x="204" y="184"/>
      <point x="418" y="354"/>
      <point x="418" y="571" type="curve" smooth="yes"/>
      <point x="418" y="701"/>
      <point x="348" y="784"/>
    </contour>
  </outline>
</glyph>
<glyph name="partialdiff" format="1">
  <advance width="610"/>
  <unicode hex="2202"/>
  <outline>
    <contour>
      <point x="189" y="213" type="curve" smooth="yes"/>
      <point x="189" y="380"/>
      <point x="234" y="450"/>
      <point x="302" y="450" type="curve" smooth="yes"/>
      <point x="355" y="450"/>
      <point x="387" y="411"/>
      <point x="387" y="308" type="curve" smooth="yes"/>
      <point x="387" y="216"/>
      <point x="371" y="73"/>
      <point x="273" y="73" type="curve" smooth="yes"/>
      <point x="221" y="73"/>
      <point x="189" y="112"/>
    </contour>
    <contour>
      <point x="554" y="380" type="curve" smooth="yes"/>
      <point x="554" y="575"/>
      <point x="463" y="784"/>
      <point x="284" y="784" type="curve" smooth="yes"/>
      <point x="193" y="784"/>
      <point x="138" y="736"/>
      <point x="138" y="685" type="curve" smooth="yes"/>
      <point x="138" y="677"/>
      <point x="140" y="670"/>
      <point x="144" y="664" type="curve"/>
      <point x="171" y="680"/>
      <point x="200" y="689"/>
      <point x="230" y="689" type="curve" smooth="yes"/>
      <point x="327" y="689"/>
      <point x="387" y="601"/>
      <point x="387" y="492" type="curve"/>
      <point x="454" y="500" type="line"/>
      <point x="414" y="521"/>
      <point x="364" y="534"/>
      <point x="326" y="534" type="curve" smooth="yes"/>
      <point x="156" y="534"/>
      <point x="27" y="410"/>
      <point x="27" y="207" type="curve" smooth="yes"/>
      <point x="27" y="63"/>
      <point x="118" y="-11"/>
      <point x="250" y="-11" type="curve" smooth="yes"/>
      <point x="450" y="-11"/>
      <point x="554" y="151"/>
    </contour>
  </outline>
</glyph>
<glyph name="product" format="1">
  <advance width="845"/>
  <unicode hex="220F"/>
  <outline>
    <contour>
      <point x="304" y="688" type="line"/>
      <point x="146" y="688" type="line"/>
      <point x="146" y="108" type="line" smooth="yes"/>
      <point x="146" y="28"/>
      <point x="176" y="-11"/>
      <point x="245" y="-11" type="curve" smooth="yes"/>
      <point x="286" y="-11"/>
      <point x="314" y="7"/>
      <point x="336" y="32" type="curve"/>
      <point x="313" y="44"/>
      <point x="304" y="67"/>
      <point x="304" y="103" type="curve" smooth="yes"/>
    </contour>
    <contour>
      <point x="699" y="688" type="line"/>
      <point x="542" y="688" type="line"/>
      <point x="542" y="108" type="line" smooth="yes"/>
      <point x="542" y="28"/>
      <point x="572" y="-11"/>
      <point x="640" y="-11" type="curve" smooth="yes"/>
      <point x="681" y="-11"/>
      <point x="710" y="7"/>
      <point x="731" y="32" type="curve"/>
      <point x="708" y="44"/>
      <point x="699" y="67"/>
      <point x="699" y="103" type="curve" smooth="yes"/>
    </contour>
    <contour>
      <point x="709" y="736" type="curve" smooth="yes"/>
      <point x="203" y="736" type="line" smooth="yes"/>
      <point x="151" y="736"/>
      <point x="119" y="739"/>
      <point x="85" y="754" type="curve"/>
      <point x="72" y="738"/>
      <point x="60" y="715"/>
      <point x="60" y="696" type="curve" smooth="yes"/>
      <point x="60" y="653"/>
      <point x="80" y="619"/>
      <point x="156" y="619" type="curve" smooth="yes"/>
      <point x="662" y="619" type="line" smooth="yes"/>
      <point x="714" y="619"/>
      <point x="746" y="616"/>
      <point x="780" y="601" type="curve"/>
      <point x="793" y="617"/>
      <point x="805" y="640"/>
      <point x="805" y="659" type="curve" smooth="yes"/>
      <point x="805" y="702"/>
      <point x="785" y="736"/>
    </contour>
  </outline>
</glyph>
<glyph name="minus" format="1">
  <advance width="732"/>
  <unicode hex="2212"/>
  <outline>
    <contour>
      <point x="181" y="480" type="line"/>
      <point x="139" y="480"/>
      <point x="36" y="480"/>
      <point x="36" y="382" type="curve" smooth="yes"/>
      <point x="36" y="368"/>
      <point x="41" y="353"/>
      <point x="44" y="346" type="curve"/>
      <point x="551" y="346" type="line" smooth="yes"/>
      <point x="593" y="346"/>
      <point x="696" y="346"/>
      <point x="696" y="449" type="curve" smooth="yes"/>
      <point x="696" y="458"/>
      <point x="694" y="473"/>
      <point x="690" y="480" type="curve"/>
    </contour>
  </outline>
</glyph>
